<svg width="30" height="30" viewBox="0 0 30 30" fill="none" xmlns="http://www.w3.org/2000/svg">
<path d="M9.99997 0.859375V29.1409C7.07642 28.1063 4.54539 26.191 2.75526 23.6587C0.96513 21.1263 0.00390625 18.1013 0.00390625 15.0001C0.00390625 11.8989 0.96513 8.87397 2.75526 6.3416C4.54539 3.80923 7.07642 1.89392 9.99997 0.859375Z" fill="#169B62"/>
<path d="M20 0.859215V29.1407C16.7651 30.2864 13.2349 30.2864 10 29.1407V0.859215C13.2349 -0.286405 16.7651 -0.286405 20 0.859215Z" fill="white"/>
<path d="M30 15.0001C30.0008 18.1021 29.0394 21.1279 27.2484 23.6605C25.4574 26.1932 22.9249 28.1079 20 29.1409V0.859375C22.9249 1.89233 25.4574 3.80711 27.2484 6.33974C29.0394 8.87238 30.0008 11.8982 30 15.0001Z" fill="#FF883E"/>
</svg>
