<svg width="30" height="31" viewBox="0 0 30 31" fill="none" xmlns="http://www.w3.org/2000/svg">
<path d="M29.9991 15.1579C29.9991 19.1356 28.4189 22.9505 25.6062 25.7632C22.7935 28.5759 18.9786 30.1561 15.0009 30.1561C11.0231 30.1561 7.20826 28.5759 4.39555 25.7632C1.58285 22.9505 0.00268069 19.1356 0.00268045 15.1579C0.00268045 15.0616 0.00268045 14.9505 0.00268045 14.8468C0.00268045 14.7431 0.00268045 14.4987 0.00268045 14.3209C-0.000893485 14.279 -0.000893485 14.2369 0.00268045 14.195C0.00268045 13.8469 0.0545369 13.5062 0.106383 13.1655C0.106383 13.01 0.143412 12.8396 0.173038 12.6767C0.202665 12.5138 0.173021 12.4841 0.224867 12.3952C0.276713 12.3064 0.224867 12.2545 0.224867 12.1878C0.224867 12.1212 0.276724 11.9508 0.30635 11.8249C0.395229 11.4398 0.506321 11.0472 0.624825 10.6695C0.676671 10.5066 0.728517 10.3362 0.787769 10.1807C0.798047 10.142 0.812967 10.1047 0.832207 10.0696C0.898865 9.87702 0.96553 9.69184 1.047 9.49927C1.08766 9.42564 1.12232 9.34886 1.15068 9.26967L1.19512 9.1586C1.2153 9.10709 1.24009 9.05751 1.26919 9.01046V8.93637C1.33261 8.77838 1.40686 8.62495 1.4914 8.47717C1.6025 8.25497 1.70619 8.04022 1.8395 7.81802L1.89875 7.72173C3.51665 4.80369 6.06183 2.50878 9.1312 1.20048C12.2006 -0.10781 15.6187 -0.354722 18.8442 0.498845C22.0697 1.35241 24.9183 3.25765 26.9388 5.91287C28.9593 8.56809 30.0363 11.8215 29.9991 15.1579Z" fill="#012169"/>
<path d="M15.2525 9.46973V12.3657H0.261719C0.261719 12.299 0.261719 12.225 0.261719 12.1583C0.261719 12.0916 0.313554 11.9213 0.34318 11.7954C0.432058 11.4102 0.543173 11.0177 0.661677 10.64C0.713523 10.477 0.765346 10.3067 0.824599 10.1511C0.834876 10.1124 0.849819 10.0751 0.869058 10.04C0.935717 9.84747 1.00236 9.6623 1.08383 9.46973H15.2525Z" fill="white"/>
<path d="M8.00195 15.2621V6.57422H5.09861V15.2621H8.00195Z" fill="white"/>
<path d="M15.2531 10.0399V11.7953H7.43185V15.2615H5.66171V11.7953H0.380859C0.469738 11.4101 0.58083 11.0176 0.699334 10.6399C0.75118 10.4769 0.803026 10.3065 0.862278 10.151C0.872556 10.1123 0.887476 10.075 0.906716 10.0399H5.66171V6.58105H7.43185V10.0399H15.2531Z" fill="#CF142B"/>
<path d="M7.99414 9.24056L13.3046 6.57422H15.2525V7.55188L11.4234 9.47017H7.99414V9.24056Z" fill="white"/>
<path d="M8.15039 9.47017L13.9571 6.57422H15.2532L9.46875 9.47017H8.15039Z" fill="#CF142B"/>
<path d="M7.99414 12.6031L13.3046 15.2695H15.2525V14.2918L11.4234 12.3735H7.99414V12.6031Z" fill="white"/>
<path d="M5.09095 12.3657V12.5953L0.00268045 15.158C0.00268045 15.0617 0.00268045 14.9506 0.00268045 14.8469C0.00268045 14.7432 0.00268045 14.4988 0.00268045 14.3211C-0.000893485 14.2792 -0.000893485 14.237 0.00268045 14.1952C0.00268045 13.847 0.0545369 13.5063 0.106383 13.1656L1.63212 12.425L5.09095 12.3657Z" fill="white"/>
<path d="M4.94324 12.3657L0.010493 14.8247C0.010493 14.6469 0.010493 14.4766 0.010493 14.2989C0.00691902 14.257 0.00691902 14.2148 0.010493 14.1729L3.59524 12.3731L4.94324 12.3657Z" fill="#CF142B"/>
<path d="M5.09081 9.23304V9.46264H1.669L1.22461 9.23304L1.26905 9.12192C1.28922 9.07042 1.31402 9.02088 1.34312 8.97383V8.89974C1.40654 8.74174 1.48077 8.58832 1.5653 8.44054C1.6764 8.21834 1.78009 8.00354 1.91341 7.78135L1.97267 7.68506L5.09081 9.23304Z" fill="white"/>
<path d="M6.55061 17.0464L7.06166 18.5795L8.57999 18.024L7.70602 19.3868L9.08363 20.2238L7.47642 20.3941L7.6764 21.9865L6.55061 20.8459L5.41741 21.9865L5.61739 20.3941L4.01758 20.2238L5.38778 19.3868L4.51381 18.024L6.03215 18.5795L6.55061 17.0464Z" fill="white"/>
<path d="M19.6151 12.9878L19.8521 13.6988L20.5558 13.4396L20.1558 14.0766L20.7928 14.4617L20.0447 14.5432L20.1336 15.2838L19.6151 14.7505L19.0893 15.2838L19.1782 14.5432L18.4375 14.4617L19.0745 14.0766L18.6671 13.4396L19.3707 13.6988L19.6151 12.9878Z" fill="white"/>
<path d="M23.9628 8.2627L24.1998 8.97372L24.9034 8.71449L24.5035 9.34405L25.1404 9.73659L24.3924 9.81806L24.4887 10.5587L23.9628 10.0254L23.4369 10.5587L23.5332 9.81806L22.7852 9.73659L23.4221 9.34405L23.0148 8.71449L23.7184 8.97372L23.9628 8.2627Z" fill="white"/>
<path d="M27.83 11.8179L28.0744 12.5289L28.778 12.2697L28.3707 12.9066L29.0076 13.2918L28.267 13.3732L28.3558 14.1139L27.83 13.5806L27.3041 14.1139L27.4004 13.3732L26.6523 13.2918L27.2893 12.9066L26.8894 12.2697L27.593 12.5289L27.83 11.8179Z" fill="white"/>
<path d="M23.9628 19.8833L24.2072 20.5943L24.9108 20.3351L24.5035 20.9647L25.1404 21.3572L24.3998 21.4387L24.4887 22.1793L23.9628 21.6461L23.4369 22.1793L23.5332 21.4387L22.7852 21.3572L23.4221 20.9647L23.0222 20.3351L23.7258 20.5943L23.9628 19.8833Z" fill="white"/>
<path d="M25.7103 15.2915L25.9029 15.7581L26.3991 15.7951L26.0214 16.121L26.1325 16.6025L25.7103 16.3506L25.2807 16.6025L25.3992 16.121L25.0215 15.7951L25.5177 15.7581L25.7103 15.2915Z" fill="white"/>
<path d="M3.63977 9.46986H2.32142L1.34375 8.981V8.90695C1.40717 8.74896 1.4814 8.59553 1.56594 8.44775L3.63977 9.46986Z" fill="#CF142B"/>
<path d="M15.2524 15.2695L9.45312 12.3735H10.7789L15.2524 14.6103V15.2695Z" fill="#CF142B"/>
</svg>
