<svg width="537" height="462" viewBox="0 0 537 462" fill="none" xmlns="http://www.w3.org/2000/svg">
<path fill-rule="evenodd" clip-rule="evenodd" d="M88.7893 413.248C88.7893 413.248 -8.26715 351.471 48.4506 243.469C105.168 135.467 136.381 199.882 195.154 74.8289C253.927 -50.2242 434.188 -7.74832 429.144 135.858C424.1 279.465 586.716 335.043 519.906 388.095C453.096 441.146 219.88 510.397 88.7893 413.248Z" fill="#FFE6EB"/>
<path d="M269.725 188.302C276.938 188.302 282.785 181.692 282.785 173.538C282.785 165.384 276.938 158.774 269.725 158.774C262.512 158.774 256.665 165.384 256.665 173.538C256.665 181.692 262.512 188.302 269.725 188.302Z" fill="#557AED"/>
<path fill-rule="evenodd" clip-rule="evenodd" d="M234.074 308.557C234.074 308.557 262.343 162.055 390.853 174.261C473.01 182.063 528.868 407.899 370.179 412.843C53.4392 422.693 175.323 407.899 234.074 308.557Z" fill="#81B9EB"/>
<path d="M240.736 372.963C236.188 371.895 232.253 369.085 229.789 365.148C227.326 361.21 226.536 356.466 227.592 351.953L249.125 260.84C250.203 256.332 253.037 252.43 257.009 249.988C260.98 247.546 265.766 246.763 270.318 247.81C274.865 248.878 278.8 251.687 281.264 255.624C283.727 259.561 284.517 264.304 283.462 268.817L261.934 359.919C260.859 364.431 258.025 368.337 254.052 370.782C250.079 373.227 245.291 374.011 240.736 372.963Z" fill="#E3735A"/>
<path d="M237.356 308.684L266.609 338.211L273.698 310.468L237.356 308.684Z" fill="#BA5E4A"/>
<path d="M143.096 383.412L232.202 341.618L261.206 360.531C261.206 360.531 256.378 386.979 160.115 400.673L143.096 383.412Z" fill="#E3735A"/>
<path fill-rule="evenodd" clip-rule="evenodd" d="M277.49 371.187C264.232 384.475 235.035 399.045 235.086 412.566L355.189 415.778C355.189 415.778 363.52 417.566 375.037 415.778C386.113 414.056 364.366 358.653 364.366 358.653L277.49 371.187Z" fill="#223A7A"/>
<path d="M215.238 154.231H135.687C125.98 154.231 118.111 162.119 118.111 171.85V197.94C118.111 207.67 125.98 215.558 135.687 215.558H215.238C224.945 215.558 232.814 207.67 232.814 197.94V171.85C232.814 162.119 224.945 154.231 215.238 154.231Z" fill="#A8D6FF"/>
<path d="M211.767 107.669H89.1882C82.582 107.669 77.2266 113.174 77.2266 119.964V136.258C77.2266 143.048 82.582 148.553 89.1882 148.553H211.767C218.373 148.553 223.729 143.048 223.729 136.258V119.964C223.729 113.174 218.373 107.669 211.767 107.669Z" fill="#223A7A"/>
<path fill-rule="evenodd" clip-rule="evenodd" d="M81.505 185.736C84.9716 182.289 89.6734 180.352 94.5759 180.352H174.194C179.097 180.352 183.799 182.289 187.265 185.736C190.732 189.183 192.679 193.858 192.679 198.733V224.641C192.679 224.641 192.679 224.641 192.679 224.641C192.68 226.618 192.36 228.581 191.732 230.456L195.25 247.064C195.25 247.064 195.25 247.064 195.25 247.064C195.409 247.814 195.349 248.594 195.076 249.311C194.802 250.028 194.328 250.652 193.709 251.109C193.091 251.566 192.353 251.837 191.584 251.89C190.815 251.943 190.047 251.775 189.37 251.407L173.965 243.02H94.5759C89.6732 243.019 84.9713 241.082 81.5048 237.634C78.0382 234.187 76.0908 229.511 76.0908 224.636V198.733C76.0908 193.858 78.0384 189.183 81.505 185.736ZM94.5759 182.131C90.1479 182.131 85.9013 183.88 82.7702 186.994C79.6392 190.107 77.8801 194.33 77.8801 198.733V224.636C77.8801 229.039 79.6391 233.262 82.7701 236.376C85.9011 239.49 90.1477 241.24 94.5759 241.24C94.576 241.24 94.5759 241.24 94.5759 241.24H174.423L190.229 249.847C190.606 250.051 191.033 250.145 191.46 250.115C191.888 250.086 192.298 249.935 192.643 249.681C192.987 249.427 193.25 249.08 193.402 248.681C193.554 248.282 193.588 247.849 193.499 247.431L189.88 230.342L189.961 230.108C190.577 228.351 190.89 226.502 190.89 224.641V198.733C190.89 194.33 189.131 190.107 186 186.994C182.869 183.88 178.622 182.131 174.194 182.131H94.5759Z" fill="#223A7A"/>
<path d="M103.346 225.779C111.5 225.779 118.11 219.423 118.11 211.583C118.11 203.742 111.5 197.387 103.346 197.387C95.192 197.387 88.582 203.742 88.582 211.583C88.582 219.423 95.192 225.779 103.346 225.779Z" fill="#FF5D17"/>
<path fill-rule="evenodd" clip-rule="evenodd" d="M122.654 203.633C122.654 203.32 123.054 203.065 123.547 203.065H180.816C181.309 203.065 181.709 203.32 181.709 203.633C181.709 203.947 181.309 204.201 180.816 204.201H123.547C123.054 204.201 122.654 203.947 122.654 203.633Z" fill="#223A7A"/>
<path fill-rule="evenodd" clip-rule="evenodd" d="M122.654 219.533C122.654 219.219 123.055 218.965 123.55 218.965H163.778C164.273 218.965 164.674 219.219 164.674 219.533C164.674 219.846 164.273 220.101 163.778 220.101H123.55C123.055 220.101 122.654 219.846 122.654 219.533Z" fill="#223A7A"/>
<path d="M199.881 405.216H349.525C351.101 405.216 352.612 405.864 353.726 407.017C354.841 408.169 355.467 409.733 355.467 411.364V415.437H199.879V405.216H199.881Z" fill="white"/>
<path fill-rule="evenodd" clip-rule="evenodd" d="M239.628 415.437H60.6665L1.13574 297.994L4.95182 292.769C5.71966 291.718 6.72433 290.863 7.88425 290.274C9.04416 289.684 10.3266 289.377 11.6274 289.377H178.683C179.933 289.397 181.152 289.777 182.192 290.472C183.232 291.167 184.051 292.148 184.549 293.296L239.628 415.437Z" fill="white"/>
<path fill-rule="evenodd" clip-rule="evenodd" d="M231.678 415.437H52.9304L1.48063 300.595C1.21201 299.997 1.09732 299.341 1.14707 298.686C1.19681 298.032 1.40943 297.4 1.76544 296.85C2.12144 296.299 2.60954 295.846 3.18518 295.532C3.76083 295.219 4.40568 295.055 5.06089 295.055H175.205C175.962 295.055 176.703 295.275 177.338 295.687C177.973 296.099 178.476 296.687 178.785 297.379L231.678 415.437Z" fill="#223A7A"/>
<path d="M121.694 365.336C124.27 358.756 118.929 350.513 109.764 346.925C100.6 343.337 91.0821 345.763 88.5059 352.343C85.9297 358.924 91.2706 367.167 100.435 370.755C109.6 374.342 119.117 371.916 121.694 365.336Z" fill="white"/>
<path fill-rule="evenodd" clip-rule="evenodd" d="M238.029 409.69C237.238 410.018 236.863 410.924 237.19 411.715C237.518 412.506 238.424 412.881 239.215 412.554C240.006 412.226 240.381 411.32 240.054 410.529C239.726 409.738 238.82 409.363 238.029 409.69ZM235.538 412.399C234.833 410.696 235.641 408.744 237.345 408.038C239.048 407.333 241 408.142 241.706 409.845C242.411 411.548 241.603 413.5 239.9 414.206C238.196 414.911 236.244 414.102 235.538 412.399Z" fill="#223A7A"/>
<path fill-rule="evenodd" clip-rule="evenodd" d="M314.583 410.894C314.583 410.267 314.977 409.759 315.464 409.759H328.464C328.951 409.759 329.346 410.267 329.346 410.894C329.346 411.522 328.951 412.03 328.464 412.03H315.464C314.977 412.03 314.583 411.522 314.583 410.894Z" fill="#223A7A"/>
<path fill-rule="evenodd" clip-rule="evenodd" d="M333.89 410.894C333.89 410.267 334.284 409.759 334.771 409.759H347.772C348.259 409.759 348.653 410.267 348.653 410.894C348.653 411.522 348.259 412.03 347.772 412.03H334.771C334.284 412.03 333.89 411.522 333.89 410.894Z" fill="#223A7A"/>
<path d="M359.859 232.626C334.142 240.164 308.809 239.018 283.858 229.186C283.858 229.186 251.461 247.399 254.607 287.278C255.565 299.424 265.5 306.464 271.087 311.903C274.101 334.136 274.61 356.893 269.332 372.278C259.338 410.987 311.537 394.745 361.52 378.154C361.52 378.154 380.882 303.319 383.32 293.439C392.664 255.492 359.859 232.626 359.859 232.626Z" fill="#4F71DD"/>
<path d="M322.953 140.173C322.953 140.173 340.231 159.101 333.446 173.284C326.661 187.467 324.11 201.651 314.888 196.188C305.666 190.726 302.09 129.246 302.09 129.246L322.953 140.173Z" fill="#223A7A"/>
<path d="M320.756 244.126L318.465 244.653C311.433 246.265 294.631 243.393 292.875 235.666C305.641 228.977 297.481 203.382 289.989 178.765C288.231 171.051 292.559 163.417 299.604 161.802L301.894 161.278C308.927 159.665 319.38 166.7 321.135 174.414C326.852 197.424 327.665 217.796 341.702 222.535C343.458 230.229 327.801 242.514 320.756 244.126Z" fill="#E3735A"/>
<path d="M358.34 275.749L253.256 266.097C253.256 251.392 258.554 222.433 292.805 221.553L337.51 221.236L365.198 227.615C378.672 227.612 371.812 275.759 358.34 275.749Z" fill="#E3735A"/>
<path d="M296.412 201.59C296.412 201.59 299.653 200.952 300.619 200.489C301.585 200.025 314.582 192.844 314.582 192.844C314.582 192.844 309.72 210.803 298.789 213.286C298.794 213.286 297.059 204.145 296.412 201.59Z" fill="#BA5E4A"/>
<path fill-rule="evenodd" clip-rule="evenodd" d="M314.957 120.911C314.957 120.911 328.934 106.319 344.195 112.682C359.456 119.046 351.893 132.234 369.99 139.224C400.028 150.823 391.508 179.278 380.697 185.652C361.392 197.033 349.926 186.61 347.268 175.261C344.609 163.913 348.087 135.678 332.862 138.823C317.636 141.969 313.158 140.124 314.957 120.911Z" fill="#223A7A"/>
<path d="M285.949 206.81C278.506 202.735 271.775 191.691 270.468 179.671L267.07 159.117C265.389 143.671 275.297 129.84 289.097 128.382L290.475 128.236C304.263 126.778 316.916 138.222 318.596 153.668L321.319 178.721C322.638 190.847 306.719 199.06 301.013 205.13C298.105 208.207 288.073 207.972 285.949 206.81Z" fill="#E3735A"/>
<path d="M257.992 150.849C256.373 158.161 265.338 162.918 270.78 157.717C273.335 155.275 276.414 153.661 278.966 151.835C293.865 141.186 311.384 148.225 309.959 142.797L293.852 124.722C293.852 124.722 279.997 116.453 267.355 131.347C262.236 137.391 259.444 144.319 257.992 150.849Z" fill="#223A7A"/>
<path fill-rule="evenodd" clip-rule="evenodd" d="M286.576 122.064C286.576 122.064 304.38 107.624 325.773 121.972C347.167 136.32 334.97 170.131 334.97 170.131C334.97 170.131 307.244 163.136 305.44 148.987C303.637 134.838 283.919 129.432 283.919 129.432L286.576 122.064Z" fill="#223A7A"/>
<path d="M328.521 170.55C328.891 165.803 326.756 161.765 323.753 161.532C320.749 161.298 318.015 164.957 317.646 169.704C317.277 174.451 319.412 178.489 322.415 178.723C325.418 178.957 328.152 175.298 328.521 170.55Z" fill="#587FF5"/>
<path d="M272.924 167.827C274.606 167.417 276.332 167.27 278.051 167.389C278.226 167.394 278.4 167.359 278.563 167.288C278.726 167.217 278.874 167.11 278.998 166.974C279.122 166.838 279.219 166.675 279.284 166.496C279.349 166.318 279.381 166.126 279.376 165.934C279.379 165.601 279.271 165.279 279.072 165.028C278.874 164.777 278.599 164.614 278.299 164.57C276.307 164.309 274.288 164.485 272.359 165.09C272.063 165.19 271.809 165.401 271.641 165.685C271.472 165.97 271.4 166.31 271.436 166.648C271.453 166.837 271.507 167.02 271.593 167.185C271.68 167.35 271.797 167.493 271.938 167.605C272.079 167.716 272.239 167.794 272.409 167.832C272.579 167.87 272.754 167.869 272.924 167.827Z" fill="#223A7A"/>
<path d="M294.695 165.564C296.629 165.275 298.594 165.156 300.558 165.21C301.382 165.234 302.087 164.781 302.092 164.248C302.092 163.789 301.58 163.415 300.88 163.372C298.605 163.228 296.316 163.368 294.091 163.787C293.4 163.917 292.941 164.36 293.014 164.814C293.099 165.344 293.873 165.684 294.695 165.564Z" fill="#223A7A"/>
<path d="M298.647 172.167C298.839 173.415 298.247 174.532 297.33 174.662C296.414 174.791 295.505 173.885 295.313 172.639C295.12 171.393 295.713 170.276 296.63 170.144C297.546 170.012 298.455 170.92 298.647 172.167Z" fill="#223A7A"/>
<path d="M278.205 174.438C278.397 175.685 277.805 176.803 276.889 176.933C275.973 177.063 275.063 176.158 274.871 174.911C274.678 173.664 275.273 172.544 276.187 172.414C277.1 172.285 278.016 173.213 278.205 174.438Z" fill="#223A7A"/>
<path fill-rule="evenodd" clip-rule="evenodd" d="M322.309 170.486L322.309 170.481C322.31 170.475 322.311 170.464 322.313 170.45C322.317 170.422 322.323 170.379 322.332 170.323C322.35 170.211 322.379 170.049 322.423 169.856C322.512 169.464 322.657 168.968 322.881 168.508C323.111 168.033 323.385 167.68 323.674 167.485C323.906 167.329 324.176 167.247 324.624 167.357C325.168 167.49 325.738 167.228 325.897 166.773C326.056 166.317 325.743 165.84 325.199 165.707C324.088 165.436 323.125 165.649 322.386 166.147C321.703 166.608 321.265 167.272 320.979 167.861C320.686 168.464 320.509 169.08 320.406 169.534C320.354 169.764 320.319 169.958 320.297 170.096C320.286 170.166 320.278 170.221 320.273 170.261C320.27 170.281 320.268 170.297 320.267 170.308L320.265 170.322L320.264 170.326L320.264 170.329C320.264 170.329 320.264 170.329 321.286 170.408L320.264 170.329C320.212 170.802 320.628 171.22 321.193 171.263C321.757 171.306 322.257 170.959 322.309 170.486L322.309 170.486Z" fill="#223A7A"/>
<path d="M299.819 217.675C299.819 217.675 292.997 214.45 289.806 219.693L272.012 224.874C267.365 226.227 263.121 228.688 259.648 232.042C256.175 235.397 253.577 239.544 252.082 244.124L235.085 307.226C247.324 312.055 259.254 312.339 270.816 307.226L299.819 217.675Z" fill="#557AED"/>
<path d="M299.634 218.094C299.634 218.094 298.746 243.771 315.431 243.771C332.115 243.771 333.266 215.558 333.266 215.558L354.419 235.265L362.902 284.301L373.638 330.134V388.18H269.419V324.748C269.419 324.748 247.057 310.064 254.94 281.75C262.823 253.435 299.634 218.094 299.634 218.094Z" fill="#557AED"/>
<path d="M391.772 376.755C386.508 377.19 381.284 375.553 377.24 372.201C373.195 368.85 370.661 364.056 370.189 358.867L362.352 269.848C361.911 264.657 363.571 259.504 366.969 255.515C370.367 251.527 375.228 249.027 380.489 248.561C385.754 248.125 390.979 249.762 395.023 253.114C399.067 256.466 401.602 261.26 402.073 266.449L409.91 355.458C410.354 360.651 408.696 365.806 405.297 369.797C401.898 373.788 397.036 376.289 391.772 376.755Z" fill="#E3735A"/>
<path fill-rule="evenodd" clip-rule="evenodd" d="M301.367 248.62C301.786 248.379 302.343 248.488 302.612 248.864L301.853 249.3C302.612 248.864 302.611 248.863 302.611 248.863L302.611 248.863C302.611 248.863 302.611 248.863 302.611 248.863L302.615 248.868C302.618 248.873 302.624 248.881 302.632 248.892C302.649 248.914 302.675 248.949 302.711 248.995C302.782 249.087 302.891 249.223 303.037 249.394C303.329 249.736 303.765 250.213 304.335 250.744C305.479 251.812 307.139 253.072 309.227 253.907C311.302 254.737 313.804 255.148 316.685 254.528C319.576 253.905 322.929 252.225 326.658 248.741C327.003 248.419 327.573 248.408 327.932 248.717C328.291 249.026 328.303 249.537 327.958 249.859C324.06 253.501 320.417 255.384 317.105 256.098C313.783 256.814 310.875 256.334 308.493 255.382C306.125 254.435 304.281 253.024 303.036 251.864C302.412 251.282 301.932 250.757 301.606 250.375C301.443 250.184 301.318 250.028 301.233 249.918C301.19 249.863 301.157 249.819 301.134 249.788C301.123 249.773 301.114 249.761 301.107 249.752L301.099 249.741L301.097 249.738L301.096 249.737C301.096 249.736 301.095 249.736 301.853 249.3L301.095 249.736C300.827 249.36 300.948 248.861 301.367 248.62ZM302.611 248.863L302.611 248.863L302.611 248.863Z" fill="#223A7A"/>
<path fill-rule="evenodd" clip-rule="evenodd" d="M271.759 255.314C272.265 255.378 272.622 255.821 272.555 256.304L271.637 256.189C272.555 256.304 272.555 256.304 272.555 256.305L272.555 256.305L272.553 256.315L272.549 256.344C272.546 256.369 272.54 256.405 272.533 256.453C272.519 256.548 272.499 256.687 272.471 256.865C272.416 257.221 272.334 257.73 272.226 258.351C272.009 259.591 271.684 261.278 271.256 263.061C270.829 264.84 270.294 266.735 269.651 268.383C269.022 269.995 268.242 271.504 267.261 272.39L267.261 272.39C259.88 279.05 256.913 285.356 255.772 289.951C255.201 292.253 255.085 294.137 255.11 295.434C255.122 296.083 255.17 296.585 255.213 296.919C255.235 297.086 255.255 297.21 255.269 297.291C255.277 297.331 255.282 297.36 255.286 297.377C255.287 297.386 255.289 297.391 255.289 297.394L255.29 297.395C255.29 297.396 255.29 297.396 255.29 297.396C255.396 297.872 255.079 298.34 254.58 298.442C254.081 298.545 253.588 298.242 253.48 297.766L254.38 297.581C253.48 297.766 253.48 297.766 253.48 297.765L253.48 297.764L253.479 297.76L253.476 297.748C253.474 297.739 253.472 297.727 253.469 297.712C253.463 297.682 253.455 297.641 253.445 297.588C253.426 297.481 253.401 297.329 253.376 297.134C253.326 296.743 253.273 296.18 253.26 295.466C253.232 294.038 253.36 292.006 253.971 289.545C255.195 284.613 258.348 278.004 265.988 271.109C266.638 270.522 267.3 269.349 267.917 267.768C268.52 266.222 269.034 264.41 269.452 262.668C269.87 260.929 270.187 259.278 270.4 258.061C270.507 257.452 270.587 256.954 270.64 256.608C270.667 256.435 270.687 256.3 270.7 256.209C270.707 256.164 270.712 256.129 270.715 256.106L270.719 256.081L270.72 256.073L270.72 256.073C270.787 255.59 271.252 255.25 271.759 255.314Z" fill="#223A7A"/>
<path d="M271.995 339.347C275.444 339.347 278.241 335.533 278.241 330.829C278.241 326.125 275.444 322.312 271.995 322.312C268.545 322.312 265.749 326.125 265.749 330.829C265.749 335.533 268.545 339.347 271.995 339.347Z" fill="#557AED"/>
<path d="M274.265 391.588C280.224 391.588 285.054 387.266 285.054 381.935C285.054 376.603 280.224 372.281 274.265 372.281C268.307 372.281 263.477 376.603 263.477 381.935C263.477 387.266 268.307 391.588 274.265 391.588Z" fill="#557AED"/>
<path d="M249.978 405.216C248.986 405.216 253.118 387.045 282.304 387.045C308.946 387.045 306.579 405.216 306.579 405.216H249.978Z" fill="#E3735A"/>
<path fill-rule="evenodd" clip-rule="evenodd" d="M269.932 323.869C270.438 324.4 270.405 325.227 269.858 325.718C269.858 325.718 269.857 325.718 269.857 325.718C269.857 325.718 269.857 325.718 269.857 325.719M268.937 324.757L268.02 323.794C268.569 323.304 269.425 323.337 269.932 323.869" fill="#223A7A"/>
<path fill-rule="evenodd" clip-rule="evenodd" d="M288.22 220.105C288.655 220.154 288.972 220.579 288.928 221.055L288.928 221.058C288.928 221.062 288.927 221.07 288.926 221.081C288.925 221.103 288.922 221.139 288.92 221.186C288.915 221.281 288.91 221.425 288.91 221.605C288.91 221.968 288.931 222.477 289.014 223.052C289.181 224.216 289.588 225.566 290.502 226.57C290.81 226.909 290.81 227.459 290.5 227.797C290.19 228.135 289.688 228.135 289.379 227.795C288.135 226.428 287.642 224.67 287.448 223.321C287.35 222.639 287.326 222.038 287.326 221.606C287.326 221.39 287.332 221.214 287.338 221.09C287.341 221.028 287.344 220.978 287.347 220.943C287.348 220.925 287.349 220.911 287.35 220.901L287.351 220.888L287.352 220.883L287.352 220.882L287.352 220.881C287.352 220.881 287.352 220.88 288.14 220.968L287.352 220.88C287.396 220.404 287.785 220.057 288.22 220.105Z" fill="#223A7A"/>
<path d="M366.824 310.569L407.709 327.99L405.601 303.005L366.824 310.569Z" fill="#BA5E4A"/>
<path d="M332.753 215.831C332.753 215.831 341.527 213.665 345.817 221.523L367.114 225.865C375.043 227.6 382.395 231.289 388.481 236.585C394.567 241.881 399.187 248.61 401.91 256.143L409.979 301.545C393.116 306.668 377.451 314.095 365.275 309.531L345.357 231.533L332.753 215.831Z" fill="#557AED"/>
<path fill-rule="evenodd" clip-rule="evenodd" d="M362.005 278.026C362.536 277.971 363.014 278.325 363.074 278.818L366.817 309.959C366.876 310.451 366.494 310.894 365.963 310.949C365.432 311.004 364.953 310.649 364.894 310.157L361.151 279.016C361.091 278.524 361.474 278.08 362.005 278.026Z" fill="#223A7A"/>
<path fill-rule="evenodd" clip-rule="evenodd" d="M3.98798 295.695L3.98776 295.695L3.9903 295.69C3.9933 295.684 3.99863 295.673 4.00632 295.658C4.0217 295.628 4.04648 295.58 4.08087 295.518C4.14972 295.393 4.25668 295.21 4.40343 294.988C4.69789 294.542 5.14712 293.948 5.76278 293.355C6.99182 292.173 8.84722 291.029 11.4641 291.029H178.541C179.036 291.029 179.437 290.659 179.437 290.203C179.437 289.747 179.036 289.377 178.541 289.377H11.4641C8.21619 289.377 5.92296 290.814 4.46957 292.212C3.74402 292.911 3.21858 293.607 2.87368 294.129C2.70075 294.39 2.57186 294.611 2.48477 294.768C2.44119 294.847 2.40798 294.911 2.38487 294.956C2.37331 294.979 2.36427 294.997 2.35771 295.01C2.35443 295.017 2.35177 295.022 2.34972 295.027L2.34712 295.032L2.34616 295.034L2.34576 295.035C2.34559 295.035 2.34543 295.036 3.16685 295.365L2.34543 295.036C2.14829 295.454 2.35624 295.941 2.8099 296.122C3.26334 296.304 3.79063 296.113 3.98798 295.695Z" fill="#223A7A"/>
<path fill-rule="evenodd" clip-rule="evenodd" d="M285.329 172.419C285.72 172.5 285.964 172.856 285.875 173.214L285.19 173.071C285.875 173.214 285.875 173.214 285.875 173.214L285.859 173.281C285.848 173.325 285.832 173.389 285.811 173.472C285.769 173.639 285.708 173.88 285.631 174.179C285.478 174.778 285.262 175.61 285.013 176.546C284.514 178.412 283.877 180.702 283.329 182.357C283.058 183.173 283.053 183.768 283.18 184.199C283.303 184.617 283.565 184.934 283.951 185.18C284.768 185.701 286.135 185.897 287.698 185.823C288.099 185.804 288.44 186.086 288.461 186.452C288.481 186.818 288.173 187.131 287.773 187.149C286.125 187.227 284.347 187.052 283.12 186.269C282.484 185.863 281.998 185.295 281.777 184.543C281.56 183.805 281.616 182.946 281.939 181.972M285.329 172.419C284.938 172.338 284.549 172.562 284.46 172.919L285.329 172.419ZM284.46 172.919L285.125 173.058L284.46 172.919ZM285.125 173.058C284.46 172.919 284.46 172.919 284.46 172.919L285.125 173.058ZM284.46 172.919L284.459 172.92L284.46 172.919ZM284.459 172.92L284.459 172.923L284.459 172.92ZM284.459 172.923L284.455 172.935L284.459 172.923ZM284.455 172.935L284.443 172.984L284.455 172.935ZM284.443 172.984C284.432 173.028 284.416 173.091 284.396 173.174L284.443 172.984ZM284.396 173.174C284.354 173.339 284.293 173.579 284.217 173.876L284.396 173.174ZM284.217 173.876C284.065 174.472 283.85 175.3 283.602 176.231L284.217 173.876ZM283.602 176.231C283.104 178.095 282.475 180.354 281.939 181.972L283.602 176.231Z" fill="#AB4A35"/>
<path fill-rule="evenodd" clip-rule="evenodd" d="M307.065 137.217C307.548 137.322 307.853 137.794 307.747 138.271C306.732 142.842 303.642 146.317 299.707 148.947C295.776 151.574 290.935 153.405 286.258 154.683C276.908 157.238 268.002 157.638 267.778 157.638C267.284 157.638 266.884 157.242 266.884 156.754C266.884 156.265 267.284 155.869 267.778 155.869L267.78 155.869C267.811 155.867 268.354 155.845 269.324 155.771C270.306 155.695 271.699 155.568 273.376 155.363C276.731 154.952 281.206 154.228 285.781 152.978C290.363 151.725 294.999 149.957 298.706 147.48C302.408 145.006 305.116 141.871 306 137.891C306.106 137.414 306.583 137.112 307.065 137.217Z" fill="#223A7A"/>
<path fill-rule="evenodd" clip-rule="evenodd" d="M354.752 126.134C354.752 126.134 354.752 126.134 354.752 126.134L354.752 126.134C354.752 126.134 354.752 126.134 354.752 126.134ZM354.752 126.134L354.754 126.136C354.756 126.139 354.76 126.143 354.766 126.15C354.777 126.162 354.796 126.182 354.822 126.209C354.873 126.263 354.953 126.345 355.06 126.45C355.273 126.661 355.595 126.965 356.02 127.327C356.87 128.053 358.124 129.009 359.734 129.921C362.952 131.745 367.563 133.377 373.191 132.662C376.388 132.256 379.692 133.297 382.626 135.213C385.564 137.133 388.188 139.965 390.054 143.256C393.783 149.837 394.556 158.442 388.433 165.29C388.102 165.661 387.536 165.69 387.17 165.354C386.803 165.019 386.775 164.446 387.106 164.075C392.562 157.973 391.967 150.272 388.501 144.157C386.769 141.101 384.339 138.488 381.655 136.735C378.967 134.979 376.082 134.12 373.413 134.459C367.308 135.234 362.313 133.458 358.86 131.501C357.133 130.523 355.785 129.496 354.866 128.711C354.406 128.318 354.052 127.985 353.811 127.747C353.69 127.628 353.598 127.533 353.534 127.466C353.502 127.433 353.477 127.406 353.46 127.388C353.451 127.378 353.444 127.371 353.439 127.365L353.433 127.358L353.431 127.356L353.43 127.355C353.43 127.355 353.43 127.354 354.091 126.745L353.43 127.354C353.097 126.985 353.123 126.412 353.488 126.075C353.853 125.739 354.419 125.765 354.752 126.134" fill="#223A7A"/>
<path fill-rule="evenodd" clip-rule="evenodd" d="M277.106 396.361C273 396.611 269.051 397.984 265.719 400.321L258.92 405.086C258.604 405.308 258.162 405.239 257.934 404.933C257.705 404.627 257.776 404.199 258.092 403.977L264.89 399.213C268.439 396.724 272.644 395.261 277.017 394.995L277.106 396.361Z" fill="#AB4A35"/>
<path fill-rule="evenodd" clip-rule="evenodd" d="M229.253 344.975L229.254 344.975L229.263 344.972C229.271 344.968 229.285 344.963 229.303 344.957C229.34 344.943 229.397 344.923 229.472 344.898C229.622 344.847 229.844 344.776 230.125 344.696C230.689 344.537 231.485 344.345 232.411 344.217C234.279 343.96 236.589 343.975 238.59 344.95C238.937 345.119 239.366 344.994 239.548 344.67C239.73 344.347 239.596 343.947 239.248 343.778C236.867 342.618 234.208 342.633 232.203 342.909C231.193 343.049 230.327 343.257 229.712 343.431C229.405 343.518 229.159 343.597 228.988 343.655C228.902 343.684 228.835 343.707 228.789 343.724C228.765 343.733 228.747 343.739 228.734 343.744L228.719 343.75L228.714 343.752L228.712 343.753C228.712 343.753 228.712 343.753 228.979 344.357L228.712 343.753C228.349 343.892 228.177 344.279 228.326 344.616C228.476 344.954 228.891 345.114 229.253 344.975L229.253 344.975Z" fill="#AB4A35"/>
<path fill-rule="evenodd" clip-rule="evenodd" d="M287.93 123.601C287.931 123.601 287.931 123.601 287.862 124.192L287.931 123.601C288.26 123.639 288.496 123.934 288.458 124.261C288.419 124.587 288.122 124.82 287.793 124.783C287.793 124.783 287.793 124.783 287.793 124.783L287.792 124.783L287.788 124.783C287.783 124.782 287.774 124.781 287.761 124.78C287.736 124.778 287.695 124.774 287.64 124.771C287.529 124.765 287.361 124.758 287.141 124.758C286.7 124.759 286.052 124.788 285.24 124.904C283.616 125.137 281.338 125.718 278.757 127.118C273.607 129.911 267.178 136.008 262.371 149.294C262.259 149.604 261.915 149.764 261.603 149.653C261.291 149.542 261.129 149.202 261.241 148.892C266.128 135.386 272.727 129.032 278.181 126.074C280.903 124.597 283.321 123.976 285.068 123.726C285.941 123.601 286.647 123.569 287.139 123.568C287.385 123.568 287.578 123.575 287.712 123.583C287.779 123.587 287.831 123.591 287.868 123.595C287.886 123.596 287.901 123.598 287.911 123.599L287.924 123.6L287.928 123.6L287.93 123.601Z" fill="#7E9CFC"/>
<path fill-rule="evenodd" clip-rule="evenodd" d="M308.255 140.612C308.573 140.558 308.874 140.772 308.928 141.09C308.928 141.09 308.928 141.09 308.928 141.09L308.352 141.188C308.928 141.09 308.928 141.09 308.928 141.09M308.352 141.188L307.777 141.286C307.723 140.968 307.937 140.666 308.255 140.612M308.352 141.188C307.777 141.286 307.777 141.286 307.777 141.287L307.777 141.287L307.778 141.29L307.779 141.3C307.781 141.308 307.783 141.32 307.785 141.335C307.791 141.365 307.799 141.408 307.81 141.465C307.832 141.578 307.865 141.742 307.911 141.951C308.003 142.37 308.146 142.968 308.354 143.696C308.767 145.15 309.437 147.128 310.461 149.218C312.503 153.384 316 158.086 321.775 159.884C322.083 159.979 322.41 159.807 322.506 159.499C322.602 159.191 322.43 158.863 322.122 158.767C316.79 157.107 313.489 152.741 311.51 148.703C310.523 146.691 309.877 144.782 309.476 143.376C309.277 142.673 309.139 142.098 309.051 141.7C309.008 141.501 308.976 141.347 308.956 141.243C308.946 141.191 308.939 141.152 308.934 141.126C308.932 141.113 308.93 141.104 308.929 141.098L308.928 141.091L308.928 141.09" fill="#7E9CFC"/>
<path fill-rule="evenodd" clip-rule="evenodd" d="M288.426 219.611C288.563 220.087 288.294 220.586 287.825 220.726L270.307 225.93C265.87 227.248 261.817 229.644 258.501 232.912C255.19 236.174 252.713 240.206 251.284 244.659L234.555 308.017C234.428 308.496 233.943 308.781 233.47 308.652C232.998 308.524 232.717 308.031 232.844 307.552L249.585 244.148L249.592 244.126C251.109 239.386 253.743 235.094 257.267 231.623C260.79 228.151 265.096 225.605 269.809 224.206L287.327 219.001C287.796 218.862 288.288 219.135 288.426 219.611Z" fill="#223A7A"/>
<path d="M268.587 233.729C269.528 233.729 270.291 232.966 270.291 232.025C270.291 231.084 269.528 230.322 268.587 230.322C267.646 230.322 266.884 231.084 266.884 232.025C266.884 232.966 267.646 233.729 268.587 233.729Z" fill="#223A7A"/>
<path d="M289.029 233.729C289.97 233.729 290.733 232.966 290.733 232.025C290.733 231.084 289.97 230.322 289.029 230.322C288.088 230.322 287.326 231.084 287.326 232.025C287.326 232.966 288.088 233.729 289.029 233.729Z" fill="#223A7A"/>
<path d="M332.752 232.025C332.752 232.362 332.652 232.692 332.465 232.972C332.277 233.252 332.011 233.47 331.7 233.599C331.389 233.728 331.046 233.762 330.716 233.696C330.385 233.63 330.082 233.468 329.844 233.23C329.605 232.992 329.443 232.688 329.377 232.358C329.312 232.027 329.345 231.685 329.474 231.373C329.603 231.062 329.822 230.796 330.102 230.609C330.382 230.422 330.711 230.322 331.048 230.322C331.5 230.322 331.933 230.501 332.253 230.821C332.572 231.14 332.752 231.573 332.752 232.025Z" fill="#223A7A"/>
<path d="M354.331 232.025C354.331 232.362 354.231 232.692 354.044 232.972C353.857 233.252 353.591 233.47 353.28 233.599C352.968 233.728 352.626 233.762 352.295 233.696C351.965 233.63 351.661 233.468 351.423 233.23C351.185 232.992 351.023 232.688 350.957 232.358C350.891 232.027 350.925 231.685 351.054 231.373C351.183 231.062 351.401 230.796 351.681 230.609C351.962 230.422 352.291 230.322 352.628 230.322C353.08 230.322 353.513 230.501 353.832 230.821C354.152 231.14 354.331 231.573 354.331 232.025Z" fill="#223A7A"/>
<path d="M373.638 233.729C374.265 233.729 374.774 232.966 374.774 232.025C374.774 231.084 374.265 230.322 373.638 230.322C373.011 230.322 372.502 231.084 372.502 232.025C372.502 232.966 373.011 233.729 373.638 233.729Z" fill="#223A7A"/>
<path d="M340.702 221.804C340.702 222.141 340.635 222.47 340.511 222.751C340.386 223.031 340.208 223.249 340.001 223.378C339.793 223.507 339.565 223.541 339.345 223.475C339.124 223.409 338.922 223.247 338.763 223.009C338.604 222.77 338.496 222.467 338.452 222.136C338.409 221.806 338.431 221.463 338.517 221.152C338.603 220.841 338.749 220.575 338.935 220.388C339.122 220.2 339.342 220.101 339.566 220.101C339.868 220.101 340.156 220.28 340.369 220.6C340.582 220.919 340.702 221.352 340.702 221.804Z" fill="#223A7A"/>
<path d="M295.844 224.643C296.785 224.643 297.548 223.881 297.548 222.94C297.548 221.999 296.785 221.236 295.844 221.236C294.903 221.236 294.141 221.999 294.141 222.94C294.141 223.881 294.903 224.643 295.844 224.643Z" fill="#223A7A"/>
<path d="M270.291 253.603C270.291 253.94 270.191 254.269 270.004 254.549C269.817 254.829 269.55 255.048 269.239 255.177C268.928 255.306 268.585 255.339 268.255 255.274C267.925 255.208 267.621 255.046 267.383 254.808C267.145 254.569 266.982 254.266 266.917 253.935C266.851 253.605 266.885 253.262 267.013 252.951C267.142 252.64 267.361 252.374 267.641 252.186C267.921 251.999 268.25 251.899 268.587 251.899C269.039 251.899 269.472 252.079 269.792 252.398C270.111 252.718 270.291 253.151 270.291 253.603Z" fill="#223A7A"/>
<path d="M290.733 253.603C290.733 253.94 290.633 254.269 290.445 254.55C290.258 254.83 289.992 255.048 289.681 255.177C289.369 255.306 289.026 255.339 288.696 255.274C288.365 255.208 288.062 255.045 287.824 254.807C287.586 254.568 287.424 254.264 287.358 253.934C287.293 253.603 287.327 253.26 287.456 252.949C287.585 252.638 287.804 252.372 288.085 252.185C288.365 251.998 288.695 251.899 289.032 251.899C289.483 251.9 289.916 252.08 290.235 252.399C290.554 252.719 290.733 253.152 290.733 253.603Z" fill="#223A7A"/>
<path d="M332.752 253.603C332.752 253.94 332.652 254.269 332.465 254.549C332.277 254.829 332.011 255.048 331.7 255.177C331.389 255.306 331.046 255.339 330.716 255.274C330.385 255.208 330.082 255.046 329.844 254.808C329.605 254.569 329.443 254.266 329.377 253.935C329.312 253.605 329.345 253.262 329.474 252.951C329.603 252.64 329.822 252.374 330.102 252.186C330.382 251.999 330.711 251.899 331.048 251.899C331.5 251.899 331.933 252.079 332.253 252.398C332.572 252.718 332.752 253.151 332.752 253.603Z" fill="#223A7A"/>
<path d="M354.331 253.603C354.331 253.94 354.231 254.269 354.044 254.549C353.857 254.829 353.591 255.048 353.28 255.177C352.968 255.306 352.626 255.339 352.295 255.274C351.965 255.208 351.661 255.046 351.423 254.808C351.185 254.569 351.023 254.266 350.957 253.935C350.891 253.605 350.925 253.262 351.054 252.951C351.183 252.64 351.401 252.374 351.681 252.186C351.962 251.999 352.291 251.899 352.628 251.899C353.08 251.899 353.513 252.079 353.832 252.398C354.152 252.718 354.331 253.151 354.331 253.603Z" fill="#223A7A"/>
<path d="M374.774 253.603C374.774 253.94 374.707 254.269 374.582 254.55C374.457 254.83 374.28 255.048 374.072 255.177C373.865 255.306 373.636 255.339 373.416 255.274C373.196 255.208 372.993 255.045 372.834 254.807C372.676 254.568 372.568 254.264 372.524 253.934C372.48 253.603 372.503 253.26 372.589 252.949C372.676 252.638 372.821 252.372 373.008 252.185C373.195 251.998 373.415 251.899 373.64 251.899C373.941 251.9 374.229 252.08 374.442 252.399C374.654 252.719 374.774 253.152 374.774 253.603Z" fill="#223A7A"/>
<path d="M396.35 253.603C396.35 253.94 396.25 254.269 396.063 254.549C395.876 254.829 395.61 255.048 395.299 255.177C394.988 255.306 394.645 255.339 394.315 255.274C393.984 255.208 393.681 255.046 393.442 254.808C393.204 254.569 393.042 254.266 392.976 253.935C392.91 253.605 392.944 253.262 393.073 252.951C393.202 252.64 393.42 252.374 393.7 252.186C393.981 251.999 394.31 251.899 394.647 251.899C395.099 251.899 395.532 252.079 395.851 252.398C396.171 252.718 396.35 253.151 396.35 253.603Z" fill="#223A7A"/>
<path d="M257.8 245.086C258.427 245.086 258.936 244.323 258.936 243.382C258.936 242.441 258.427 241.679 257.8 241.679C257.173 241.679 256.665 242.441 256.665 243.382C256.665 244.323 257.173 245.086 257.8 245.086Z" fill="#223A7A"/>
<path d="M278.81 245.086C279.751 245.086 280.513 244.323 280.513 243.382C280.513 242.441 279.751 241.679 278.81 241.679C277.869 241.679 277.106 242.441 277.106 243.382C277.106 244.323 277.869 245.086 278.81 245.086Z" fill="#223A7A"/>
<path d="M322.532 244.517C322.532 244.855 322.432 245.184 322.244 245.464C322.057 245.744 321.791 245.963 321.479 246.092C321.168 246.22 320.825 246.254 320.495 246.188C320.164 246.122 319.861 245.96 319.623 245.721C319.384 245.483 319.222 245.179 319.157 244.848C319.091 244.518 319.126 244.175 319.255 243.864C319.384 243.553 319.603 243.287 319.884 243.1C320.164 242.913 320.494 242.813 320.831 242.814C321.054 242.814 321.276 242.858 321.482 242.944C321.689 243.029 321.876 243.155 322.034 243.313C322.192 243.471 322.318 243.659 322.403 243.866C322.488 244.072 322.532 244.294 322.532 244.517Z" fill="#223A7A"/>
<path d="M299.818 245.086C300.446 245.086 300.954 244.323 300.954 243.382C300.954 242.441 300.446 241.679 299.818 241.679C299.191 241.679 298.683 242.441 298.683 243.382C298.683 244.323 299.191 245.086 299.818 245.086Z" fill="#223A7A"/>
<path d="M342.407 245.086C343.347 245.086 344.11 244.323 344.11 243.382C344.11 242.441 343.347 241.679 342.407 241.679C341.466 241.679 340.703 242.441 340.703 243.382C340.703 244.323 341.466 245.086 342.407 245.086Z" fill="#223A7A"/>
<path d="M362.848 245.086C363.789 245.086 364.552 244.323 364.552 243.382C364.552 242.441 363.789 241.679 362.848 241.679C361.907 241.679 361.145 242.441 361.145 243.382C361.145 244.323 361.907 245.086 362.848 245.086Z" fill="#223A7A"/>
<path d="M384.426 245.086C385.367 245.086 386.13 244.323 386.13 243.382C386.13 242.441 385.367 241.679 384.426 241.679C383.485 241.679 382.723 242.441 382.723 243.382C382.723 244.323 383.485 245.086 384.426 245.086Z" fill="#223A7A"/>
<path d="M257.8 265.528C258.427 265.528 258.936 264.765 258.936 263.825C258.936 262.884 258.427 262.121 257.8 262.121C257.173 262.121 256.665 262.884 256.665 263.825C256.665 264.765 257.173 265.528 257.8 265.528Z" fill="#223A7A"/>
<path d="M278.81 265.528C279.751 265.528 280.513 264.765 280.513 263.825C280.513 262.884 279.751 262.121 278.81 262.121C277.869 262.121 277.106 262.884 277.106 263.825C277.106 264.765 277.869 265.528 278.81 265.528Z" fill="#223A7A"/>
<path d="M322.532 263.825C322.532 264.162 322.432 264.491 322.244 264.771C322.057 265.051 321.791 265.27 321.479 265.399C321.168 265.528 320.825 265.561 320.495 265.495C320.164 265.429 319.861 265.267 319.623 265.028C319.384 264.79 319.222 264.486 319.157 264.155C319.091 263.825 319.126 263.482 319.255 263.171C319.384 262.86 319.603 262.594 319.884 262.407C320.164 262.22 320.494 262.121 320.831 262.121C321.282 262.122 321.715 262.302 322.034 262.621C322.352 262.94 322.532 263.373 322.532 263.825Z" fill="#223A7A"/>
<path d="M299.818 265.528C300.446 265.528 300.954 264.765 300.954 263.825C300.954 262.884 300.446 262.121 299.818 262.121C299.191 262.121 298.683 262.884 298.683 263.825C298.683 264.765 299.191 265.528 299.818 265.528Z" fill="#223A7A"/>
<path d="M342.407 265.528C343.347 265.528 344.11 264.765 344.11 263.825C344.11 262.884 343.347 262.121 342.407 262.121C341.466 262.121 340.703 262.884 340.703 263.825C340.703 264.765 341.466 265.528 342.407 265.528Z" fill="#223A7A"/>
<path d="M362.848 265.528C363.789 265.528 364.552 264.765 364.552 263.825C364.552 262.884 363.789 262.121 362.848 262.121C361.907 262.121 361.145 262.884 361.145 263.825C361.145 264.765 361.907 265.528 362.848 265.528Z" fill="#223A7A"/>
<path d="M384.426 265.528C385.367 265.528 386.13 264.765 386.13 263.825C386.13 262.884 385.367 262.121 384.426 262.121C383.485 262.121 382.723 262.884 382.723 263.825C382.723 264.765 383.485 265.528 384.426 265.528Z" fill="#223A7A"/>
<path d="M257.8 287.105C258.427 287.105 258.936 286.343 258.936 285.402C258.936 284.461 258.427 283.698 257.8 283.698C257.173 283.698 256.665 284.461 256.665 285.402C256.665 286.343 257.173 287.105 257.8 287.105Z" fill="#223A7A"/>
<path d="M278.81 287.105C279.751 287.105 280.513 286.343 280.513 285.402C280.513 284.461 279.751 283.698 278.81 283.698C277.869 283.698 277.106 284.461 277.106 285.402C277.106 286.343 277.869 287.105 278.81 287.105Z" fill="#223A7A"/>
<path d="M322.532 285.399C322.532 285.736 322.433 286.066 322.246 286.347C322.059 286.627 321.793 286.846 321.481 286.975C321.17 287.104 320.827 287.138 320.496 287.073C320.166 287.007 319.862 286.845 319.623 286.606C319.385 286.368 319.223 286.064 319.157 285.733C319.091 285.403 319.125 285.06 319.255 284.749C319.384 284.437 319.603 284.171 319.883 283.984C320.164 283.797 320.494 283.698 320.831 283.698C321.282 283.699 321.714 283.878 322.033 284.197C322.351 284.516 322.531 284.948 322.532 285.399Z" fill="#223A7A"/>
<path d="M299.818 287.105C300.446 287.105 300.954 286.343 300.954 285.402C300.954 284.461 300.446 283.698 299.818 283.698C299.191 283.698 298.683 284.461 298.683 285.402C298.683 286.343 299.191 287.105 299.818 287.105Z" fill="#223A7A"/>
<path d="M342.407 287.105C343.347 287.105 344.11 286.343 344.11 285.402C344.11 284.461 343.347 283.698 342.407 283.698C341.466 283.698 340.703 284.461 340.703 285.402C340.703 286.343 341.466 287.105 342.407 287.105Z" fill="#223A7A"/>
<path d="M384.426 287.105C385.367 287.105 386.13 286.343 386.13 285.402C386.13 284.461 385.367 283.698 384.426 283.698C383.485 283.698 382.723 284.461 382.723 285.402C382.723 286.343 383.485 287.105 384.426 287.105Z" fill="#223A7A"/>
<path d="M404.869 287.105C405.809 287.105 406.572 286.343 406.572 285.402C406.572 284.461 405.809 283.698 404.869 283.698C403.928 283.698 403.165 284.461 403.165 285.402C403.165 286.343 403.928 287.105 404.869 287.105Z" fill="#223A7A"/>
<path d="M258.936 305.841C258.936 306.178 258.87 306.508 258.745 306.789C258.621 307.069 258.444 307.288 258.236 307.417C258.029 307.547 257.8 307.581 257.58 307.515C257.359 307.45 257.157 307.288 256.998 307.05C256.839 306.812 256.73 306.508 256.687 306.177C256.643 305.847 256.665 305.504 256.751 305.193C256.837 304.881 256.982 304.615 257.169 304.428C257.356 304.241 257.576 304.141 257.8 304.141C258.101 304.141 258.39 304.32 258.603 304.639C258.816 304.958 258.935 305.39 258.936 305.841Z" fill="#223A7A"/>
<path d="M280.513 305.841C280.514 306.179 280.414 306.508 280.227 306.789C280.04 307.069 279.774 307.288 279.463 307.417C279.152 307.547 278.809 307.581 278.478 307.515C278.148 307.449 277.844 307.287 277.605 307.049C277.367 306.81 277.205 306.507 277.139 306.176C277.073 305.845 277.107 305.502 277.237 305.191C277.366 304.88 277.585 304.614 277.865 304.427C278.146 304.24 278.475 304.14 278.813 304.141C279.263 304.141 279.696 304.321 280.015 304.64C280.333 304.958 280.513 305.391 280.513 305.841Z" fill="#223A7A"/>
<path d="M322.532 305.841C322.532 306.179 322.433 306.508 322.246 306.789C322.059 307.069 321.793 307.288 321.481 307.417C321.17 307.547 320.827 307.581 320.496 307.515C320.166 307.449 319.862 307.287 319.623 307.049C319.385 306.81 319.223 306.507 319.157 306.176C319.091 305.845 319.125 305.502 319.255 305.191C319.384 304.88 319.603 304.614 319.883 304.427C320.164 304.24 320.494 304.14 320.831 304.141C321.282 304.141 321.714 304.321 322.033 304.64C322.351 304.958 322.531 305.391 322.532 305.841Z" fill="#223A7A"/>
<path d="M300.954 305.841C300.954 306.179 300.888 306.508 300.763 306.789C300.639 307.069 300.461 307.288 300.254 307.417C300.046 307.547 299.818 307.581 299.597 307.515C299.377 307.449 299.174 307.287 299.015 307.049C298.856 306.81 298.748 306.507 298.704 306.176C298.661 305.845 298.683 305.502 298.769 305.191C298.856 304.88 299.001 304.614 299.188 304.427C299.375 304.24 299.595 304.14 299.82 304.141C300.121 304.141 300.409 304.321 300.621 304.64C300.834 304.958 300.953 305.391 300.954 305.841Z" fill="#223A7A"/>
<path d="M344.11 305.841C344.111 306.178 344.011 306.508 343.824 306.789C343.638 307.069 343.372 307.288 343.06 307.417C342.749 307.547 342.407 307.581 342.076 307.515C341.745 307.45 341.442 307.288 341.203 307.05C340.964 306.812 340.802 306.508 340.736 306.177C340.67 305.847 340.704 305.504 340.833 305.193C340.961 304.881 341.18 304.615 341.46 304.428C341.74 304.241 342.07 304.141 342.407 304.141C342.858 304.141 343.291 304.32 343.61 304.639C343.93 304.958 344.109 305.39 344.11 305.841Z" fill="#223A7A"/>
<path d="M386.13 305.841C386.13 306.178 386.031 306.508 385.844 306.789C385.657 307.069 385.391 307.288 385.08 307.417C384.769 307.547 384.426 307.581 384.096 307.515C383.765 307.45 383.461 307.288 383.223 307.05C382.984 306.812 382.822 306.508 382.756 306.177C382.69 305.847 382.723 305.504 382.852 305.193C382.981 304.881 383.199 304.615 383.48 304.428C383.76 304.241 384.089 304.141 384.426 304.141C384.878 304.141 385.31 304.32 385.63 304.639C385.949 304.958 386.129 305.39 386.13 305.841Z" fill="#223A7A"/>
<path d="M280.513 327.42C280.514 327.757 280.414 328.086 280.227 328.367C280.04 328.648 279.774 328.866 279.463 328.996C279.152 329.125 278.809 329.159 278.478 329.093C278.148 329.028 277.844 328.865 277.605 328.627C277.367 328.388 277.205 328.085 277.139 327.754C277.073 327.423 277.107 327.08 277.237 326.769C277.366 326.458 277.585 326.192 277.865 326.005C278.146 325.818 278.475 325.718 278.813 325.719C279.263 325.719 279.696 325.899 280.015 326.218C280.333 326.537 280.513 326.969 280.513 327.42Z" fill="#223A7A"/>
<path d="M322.532 327.42C322.532 327.757 322.433 328.086 322.246 328.367C322.059 328.648 321.793 328.866 321.481 328.996C321.17 329.125 320.827 329.159 320.496 329.093C320.166 329.028 319.862 328.865 319.623 328.627C319.385 328.388 319.223 328.085 319.157 327.754C319.091 327.423 319.125 327.08 319.255 326.769C319.384 326.458 319.603 326.192 319.883 326.005C320.164 325.818 320.494 325.718 320.831 325.719C321.282 325.719 321.714 325.899 322.033 326.218C322.351 326.537 322.531 326.969 322.532 327.42Z" fill="#223A7A"/>
<path d="M300.954 327.42C300.954 327.757 300.888 328.086 300.763 328.367C300.639 328.648 300.461 328.866 300.254 328.996C300.046 329.125 299.818 329.159 299.597 329.093C299.377 329.028 299.174 328.865 299.015 328.627C298.856 328.388 298.748 328.085 298.704 327.754C298.661 327.423 298.683 327.08 298.769 326.769C298.856 326.458 299.001 326.192 299.188 326.005C299.375 325.818 299.595 325.718 299.82 325.719C300.121 325.719 300.409 325.899 300.621 326.218C300.834 326.537 300.953 326.969 300.954 327.42Z" fill="#223A7A"/>
<path d="M344.11 327.42C344.111 327.757 344.011 328.086 343.824 328.367C343.638 328.647 343.372 328.866 343.06 328.995C342.749 329.125 342.407 329.159 342.076 329.093C341.745 329.028 341.442 328.866 341.203 328.628C340.964 328.39 340.802 328.086 340.736 327.756C340.67 327.425 340.704 327.082 340.833 326.771C340.961 326.46 341.18 326.193 341.46 326.006C341.74 325.819 342.07 325.719 342.407 325.719C342.858 325.719 343.291 325.898 343.61 326.217C343.93 326.536 344.109 326.968 344.11 327.42Z" fill="#223A7A"/>
<path d="M364.552 327.42C364.552 327.757 364.453 328.086 364.266 328.367C364.079 328.648 363.813 328.866 363.501 328.996C363.19 329.125 362.847 329.159 362.516 329.093C362.186 329.028 361.882 328.865 361.643 328.627C361.405 328.388 361.243 328.085 361.177 327.754C361.111 327.423 361.145 327.08 361.275 326.769C361.404 326.458 361.623 326.192 361.903 326.005C362.184 325.818 362.514 325.718 362.851 325.719C363.302 325.719 363.734 325.899 364.053 326.218C364.371 326.537 364.551 326.969 364.552 327.42Z" fill="#223A7A"/>
<path d="M280.513 348.432C280.513 348.657 280.413 348.876 280.226 349.063C280.039 349.25 279.773 349.396 279.461 349.481C279.15 349.567 278.807 349.59 278.477 349.546C278.146 349.502 277.843 349.393 277.604 349.234C277.366 349.075 277.204 348.873 277.139 348.653C277.073 348.432 277.108 348.204 277.237 347.996C277.366 347.789 277.585 347.611 277.865 347.487C278.146 347.362 278.476 347.296 278.813 347.296C279.264 347.297 279.697 347.417 280.015 347.63C280.334 347.843 280.513 348.131 280.513 348.432Z" fill="#223A7A"/>
<path d="M322.532 348.432C322.532 348.657 322.432 348.876 322.244 349.063C322.057 349.25 321.791 349.396 321.479 349.481C321.168 349.567 320.825 349.59 320.495 349.546C320.164 349.502 319.861 349.393 319.623 349.234C319.384 349.075 319.222 348.873 319.157 348.653C319.091 348.432 319.126 348.204 319.255 347.996C319.384 347.789 319.603 347.611 319.884 347.487C320.164 347.362 320.494 347.296 320.831 347.296C321.282 347.297 321.715 347.417 322.034 347.63C322.352 347.843 322.532 348.131 322.532 348.432Z" fill="#223A7A"/>
<path d="M300.954 348.432C300.954 348.657 300.887 348.876 300.762 349.063C300.638 349.25 300.46 349.396 300.252 349.481C300.045 349.567 299.816 349.59 299.596 349.546C299.376 349.502 299.173 349.393 299.015 349.234C298.856 349.075 298.748 348.873 298.704 348.653C298.661 348.432 298.683 348.204 298.77 347.996C298.856 347.789 299.002 347.611 299.189 347.487C299.376 347.362 299.595 347.296 299.82 347.296C300.121 347.297 300.409 347.417 300.622 347.63C300.835 347.843 300.954 348.131 300.954 348.432Z" fill="#223A7A"/>
<path d="M344.11 348.432C344.11 348.657 344.01 348.876 343.823 349.063C343.636 349.25 343.37 349.395 343.059 349.481C342.747 349.567 342.405 349.59 342.074 349.546C341.744 349.502 341.44 349.394 341.202 349.235C340.964 349.076 340.802 348.874 340.736 348.654C340.67 348.433 340.704 348.205 340.833 347.997C340.962 347.79 341.18 347.613 341.46 347.488C341.74 347.363 342.07 347.296 342.407 347.296C342.858 347.296 343.292 347.416 343.611 347.629C343.931 347.842 344.11 348.131 344.11 348.432Z" fill="#223A7A"/>
<path d="M364.552 348.432C364.552 348.657 364.452 348.876 364.264 349.063C364.077 349.25 363.811 349.396 363.499 349.481C363.188 349.567 362.845 349.59 362.515 349.546C362.184 349.502 361.881 349.393 361.643 349.234C361.404 349.075 361.242 348.873 361.177 348.653C361.112 348.432 361.146 348.204 361.275 347.996C361.404 347.789 361.623 347.611 361.904 347.487C362.184 347.362 362.514 347.296 362.851 347.296C363.302 347.297 363.735 347.417 364.054 347.63C364.372 347.843 364.552 348.131 364.552 348.432Z" fill="#223A7A"/>
<path d="M278.81 371.145C279.751 371.145 280.513 370.383 280.513 369.442C280.513 368.501 279.751 367.738 278.81 367.738C277.869 367.738 277.106 368.501 277.106 369.442C277.106 370.383 277.869 371.145 278.81 371.145Z" fill="#223A7A"/>
<path d="M322.532 369.439C322.532 369.776 322.433 370.106 322.246 370.387C322.059 370.667 321.793 370.886 321.481 371.015C321.17 371.144 320.827 371.178 320.496 371.113C320.166 371.047 319.862 370.885 319.623 370.646C319.385 370.408 319.223 370.104 319.157 369.773C319.091 369.443 319.125 369.1 319.255 368.789C319.384 368.477 319.603 368.211 319.883 368.024C320.164 367.837 320.494 367.738 320.831 367.738C321.282 367.739 321.714 367.918 322.033 368.237C322.351 368.556 322.531 368.988 322.532 369.439Z" fill="#223A7A"/>
<path d="M299.818 371.145C300.446 371.145 300.954 370.383 300.954 369.442C300.954 368.501 300.446 367.738 299.818 367.738C299.191 367.738 298.683 368.501 298.683 369.442C298.683 370.383 299.191 371.145 299.818 371.145Z" fill="#223A7A"/>
<path d="M270.291 274.043C270.291 274.38 270.192 274.709 270.005 274.99C269.818 275.27 269.552 275.489 269.241 275.618C268.93 275.748 268.587 275.782 268.257 275.716C267.926 275.651 267.622 275.489 267.384 275.251C267.145 275.013 266.983 274.709 266.917 274.379C266.851 274.048 266.884 273.705 267.013 273.394C267.142 273.083 267.36 272.816 267.641 272.629C267.921 272.442 268.25 272.342 268.587 272.342C269.039 272.342 269.472 272.521 269.791 272.84C270.11 273.159 270.29 273.591 270.291 274.043Z" fill="#223A7A"/>
<path d="M248.713 274.043C248.713 274.38 248.614 274.709 248.427 274.99C248.24 275.27 247.974 275.489 247.663 275.618C247.352 275.748 247.009 275.782 246.678 275.716C246.348 275.651 246.044 275.489 245.806 275.251C245.567 275.013 245.405 274.709 245.339 274.379C245.273 274.048 245.306 273.705 245.435 273.394C245.564 273.083 245.782 272.816 246.062 272.629C246.343 272.442 246.672 272.342 247.009 272.342C247.46 272.342 247.893 272.521 248.213 272.84C248.532 273.159 248.712 273.591 248.713 274.043Z" fill="#223A7A"/>
<path d="M290.733 274.043C290.733 274.38 290.634 274.71 290.447 274.99C290.26 275.271 289.994 275.489 289.682 275.619C289.371 275.748 289.028 275.782 288.698 275.716C288.367 275.651 288.063 275.488 287.825 275.25C287.586 275.011 287.424 274.708 287.358 274.377C287.293 274.046 287.327 273.704 287.456 273.392C287.585 273.081 287.804 272.815 288.084 272.628C288.365 272.441 288.695 272.341 289.032 272.342C289.483 272.343 289.915 272.522 290.234 272.841C290.553 273.16 290.732 273.592 290.733 274.043Z" fill="#223A7A"/>
<path d="M332.752 274.043C332.752 274.38 332.653 274.709 332.466 274.99C332.279 275.27 332.013 275.489 331.702 275.618C331.391 275.748 331.048 275.782 330.718 275.716C330.387 275.651 330.083 275.489 329.845 275.251C329.606 275.013 329.444 274.709 329.378 274.379C329.312 274.048 329.345 273.705 329.474 273.394C329.603 273.083 329.821 272.816 330.102 272.629C330.382 272.442 330.711 272.342 331.048 272.342C331.5 272.342 331.932 272.521 332.252 272.84C332.571 273.159 332.751 273.591 332.752 274.043Z" fill="#223A7A"/>
<path d="M354.331 274.043C354.332 274.38 354.232 274.709 354.046 274.99C353.859 275.27 353.593 275.489 353.282 275.618C352.97 275.748 352.628 275.782 352.297 275.716C351.967 275.651 351.663 275.489 351.424 275.251C351.186 275.013 351.023 274.709 350.957 274.379C350.891 274.048 350.925 273.705 351.054 273.394C351.183 273.083 351.401 272.816 351.681 272.629C351.961 272.442 352.291 272.342 352.628 272.342C353.079 272.342 353.512 272.521 353.831 272.84C354.151 273.159 354.331 273.591 354.331 274.043Z" fill="#223A7A"/>
<path d="M312.311 274.043C312.312 274.38 312.212 274.71 312.025 274.99C311.838 275.271 311.572 275.489 311.261 275.619C310.95 275.748 310.607 275.782 310.276 275.716C309.945 275.651 309.642 275.488 309.403 275.25C309.165 275.011 309.003 274.708 308.937 274.377C308.871 274.046 308.905 273.704 309.035 273.392C309.164 273.081 309.383 272.815 309.663 272.628C309.944 272.441 310.273 272.341 310.611 272.342C311.061 272.343 311.494 272.522 311.812 272.841C312.131 273.16 312.311 273.592 312.311 274.043Z" fill="#223A7A"/>
<path d="M374.774 274.043C374.774 274.38 374.708 274.71 374.583 274.99C374.458 275.271 374.281 275.489 374.074 275.619C373.866 275.748 373.637 275.782 373.417 275.716C373.197 275.651 372.994 275.488 372.835 275.25C372.676 275.011 372.568 274.708 372.524 274.377C372.48 274.046 372.503 273.704 372.589 273.392C372.675 273.081 372.821 272.815 373.008 272.628C373.195 272.441 373.415 272.341 373.64 272.342C373.94 272.343 374.229 272.522 374.441 272.841C374.654 273.16 374.773 273.592 374.774 274.043Z" fill="#223A7A"/>
<path d="M396.35 274.043C396.351 274.38 396.251 274.709 396.065 274.99C395.878 275.27 395.612 275.489 395.301 275.618C394.989 275.748 394.647 275.782 394.316 275.716C393.986 275.651 393.682 275.489 393.443 275.251C393.205 275.013 393.042 274.709 392.976 274.379C392.91 274.048 392.944 273.705 393.073 273.394C393.202 273.083 393.42 272.816 393.7 272.629C393.98 272.442 394.31 272.342 394.647 272.342C395.098 272.342 395.531 272.521 395.851 272.84C396.17 273.159 396.35 273.591 396.35 274.043Z" fill="#223A7A"/>
<path d="M270.291 295.623C270.291 295.96 270.191 296.289 270.004 296.569C269.817 296.85 269.55 297.068 269.239 297.197C268.928 297.326 268.585 297.359 268.255 297.294C267.925 297.228 267.621 297.066 267.383 296.828C267.145 296.589 266.982 296.286 266.917 295.955C266.851 295.625 266.885 295.282 267.013 294.971C267.142 294.66 267.361 294.394 267.641 294.207C267.921 294.019 268.25 293.919 268.587 293.919C269.039 293.919 269.472 294.099 269.792 294.418C270.111 294.738 270.291 295.171 270.291 295.623Z" fill="#223A7A"/>
<path d="M290.733 295.623C290.733 295.96 290.633 296.289 290.445 296.57C290.258 296.85 289.992 297.068 289.681 297.197C289.369 297.326 289.026 297.359 288.696 297.294C288.365 297.228 288.062 297.065 287.824 296.827C287.586 296.588 287.424 296.284 287.358 295.954C287.293 295.623 287.327 295.28 287.456 294.969C287.585 294.658 287.804 294.392 288.085 294.205C288.365 294.018 288.695 293.919 289.032 293.919C289.255 293.919 289.477 293.964 289.683 294.049C289.89 294.135 290.077 294.26 290.235 294.419C290.393 294.577 290.519 294.765 290.604 294.971C290.689 295.178 290.733 295.399 290.733 295.623Z" fill="#223A7A"/>
<path d="M332.752 295.623C332.752 295.96 332.652 296.289 332.465 296.569C332.277 296.85 332.011 297.068 331.7 297.197C331.389 297.326 331.046 297.359 330.716 297.294C330.385 297.228 330.082 297.066 329.844 296.828C329.605 296.589 329.443 296.286 329.377 295.955C329.312 295.625 329.345 295.282 329.474 294.971C329.603 294.66 329.822 294.394 330.102 294.207C330.382 294.019 330.711 293.919 331.048 293.919C331.5 293.919 331.933 294.099 332.253 294.418C332.572 294.738 332.752 295.171 332.752 295.623Z" fill="#223A7A"/>
<path d="M312.311 295.623C312.311 295.96 312.211 296.289 312.024 296.57C311.837 296.85 311.571 297.068 311.259 297.197C310.948 297.326 310.605 297.359 310.274 297.294C309.944 297.228 309.64 297.065 309.402 296.827C309.164 296.588 309.002 296.284 308.937 295.954C308.871 295.623 308.905 295.28 309.035 294.969C309.164 294.658 309.383 294.392 309.663 294.205C309.944 294.018 310.273 293.919 310.611 293.919C310.834 293.919 311.055 293.964 311.262 294.049C311.469 294.135 311.656 294.26 311.814 294.419C311.972 294.577 312.097 294.765 312.183 294.971C312.268 295.178 312.312 295.399 312.311 295.623Z" fill="#223A7A"/>
<path d="M248.713 295.623C248.713 295.96 248.613 296.289 248.426 296.569C248.238 296.85 247.972 297.068 247.661 297.197C247.35 297.326 247.007 297.359 246.677 297.294C246.346 297.228 246.043 297.066 245.805 296.828C245.566 296.589 245.404 296.286 245.338 295.955C245.273 295.625 245.306 295.282 245.435 294.971C245.564 294.66 245.783 294.394 246.063 294.207C246.343 294.019 246.672 293.919 247.009 293.919C247.461 293.919 247.894 294.099 248.214 294.418C248.533 294.738 248.713 295.171 248.713 295.623Z" fill="#223A7A"/>
<path d="M354.331 295.623C354.331 295.96 354.231 296.289 354.044 296.569C353.857 296.85 353.591 297.068 353.28 297.197C352.968 297.326 352.626 297.359 352.295 297.294C351.965 297.228 351.661 297.066 351.423 296.828C351.185 296.589 351.023 296.286 350.957 295.955C350.891 295.625 350.925 295.282 351.054 294.971C351.183 294.66 351.401 294.394 351.681 294.207C351.962 294.019 352.291 293.919 352.628 293.919C353.08 293.919 353.513 294.099 353.832 294.418C354.152 294.738 354.331 295.171 354.331 295.623Z" fill="#223A7A"/>
<path d="M374.774 295.623C374.774 295.96 374.707 296.289 374.582 296.57C374.457 296.85 374.28 297.068 374.072 297.197C373.865 297.326 373.636 297.359 373.416 297.294C373.196 297.228 372.993 297.065 372.834 296.827C372.676 296.588 372.568 296.284 372.524 295.954C372.48 295.623 372.503 295.28 372.589 294.969C372.676 294.658 372.821 294.392 373.008 294.205C373.195 294.018 373.415 293.919 373.64 293.919C373.789 293.919 373.937 293.964 374.074 294.049C374.212 294.135 374.337 294.26 374.442 294.419C374.548 294.577 374.631 294.765 374.688 294.971C374.745 295.178 374.774 295.399 374.774 295.623Z" fill="#223A7A"/>
<path d="M396.35 295.623C396.35 295.96 396.25 296.289 396.063 296.569C395.876 296.85 395.61 297.068 395.299 297.197C394.988 297.326 394.645 297.359 394.315 297.294C393.984 297.228 393.681 297.066 393.442 296.828C393.204 296.589 393.042 296.286 392.976 295.955C392.91 295.625 392.944 295.282 393.073 294.971C393.202 294.66 393.42 294.394 393.7 294.207C393.981 294.019 394.31 293.919 394.647 293.919C395.099 293.919 395.532 294.099 395.851 294.418C396.171 294.738 396.35 295.171 396.35 295.623Z" fill="#223A7A"/>
<path d="M270.291 317.201C270.291 317.538 270.191 317.867 270.004 318.147C269.817 318.427 269.55 318.645 269.239 318.774C268.928 318.903 268.585 318.937 268.255 318.871C267.925 318.806 267.621 318.643 267.383 318.405C267.145 318.167 266.982 317.863 266.917 317.533C266.851 317.202 266.885 316.86 267.013 316.549C267.142 316.237 267.361 315.971 267.641 315.784C267.921 315.597 268.25 315.497 268.587 315.497C269.039 315.497 269.472 315.677 269.792 315.996C270.111 316.315 270.291 316.749 270.291 317.201Z" fill="#223A7A"/>
<path d="M290.733 317.201C290.733 317.538 290.633 317.867 290.445 318.147C290.258 318.427 289.992 318.646 289.681 318.775C289.369 318.904 289.026 318.937 288.696 318.871C288.365 318.805 288.062 318.643 287.824 318.404C287.586 318.166 287.424 317.862 287.358 317.531C287.293 317.201 287.327 316.858 287.456 316.547C287.585 316.236 287.804 315.97 288.085 315.783C288.365 315.596 288.695 315.497 289.032 315.497C289.483 315.498 289.916 315.678 290.235 315.997C290.554 316.316 290.733 316.749 290.733 317.201Z" fill="#223A7A"/>
<path d="M332.752 317.201C332.752 317.538 332.652 317.867 332.465 318.147C332.277 318.427 332.011 318.645 331.7 318.774C331.389 318.903 331.046 318.937 330.716 318.871C330.385 318.806 330.082 318.643 329.844 318.405C329.605 318.167 329.443 317.863 329.377 317.533C329.312 317.202 329.345 316.86 329.474 316.549C329.603 316.237 329.822 315.971 330.102 315.784C330.382 315.597 330.711 315.497 331.048 315.497C331.5 315.497 331.933 315.677 332.253 315.996C332.572 316.315 332.752 316.749 332.752 317.201Z" fill="#223A7A"/>
<path d="M312.311 317.201C312.311 317.538 312.211 317.867 312.024 318.147C311.837 318.427 311.571 318.646 311.259 318.775C310.948 318.904 310.605 318.937 310.274 318.871C309.944 318.805 309.64 318.643 309.402 318.404C309.164 318.166 309.002 317.862 308.937 317.531C308.871 317.201 308.905 316.858 309.035 316.547C309.164 316.236 309.383 315.97 309.663 315.783C309.944 315.596 310.273 315.497 310.611 315.497C311.062 315.498 311.494 315.678 311.813 315.997C312.132 316.316 312.311 316.749 312.311 317.201Z" fill="#223A7A"/>
<path d="M354.331 317.201C354.331 317.538 354.231 317.867 354.044 318.147C353.857 318.427 353.591 318.645 353.28 318.774C352.968 318.903 352.626 318.937 352.295 318.871C351.965 318.806 351.661 318.643 351.423 318.405C351.185 318.167 351.023 317.863 350.957 317.533C350.891 317.202 350.925 316.86 351.054 316.549C351.183 316.237 351.401 315.971 351.681 315.784C351.962 315.597 352.291 315.497 352.628 315.497C353.08 315.497 353.513 315.677 353.832 315.996C354.152 316.315 354.331 316.749 354.331 317.201Z" fill="#223A7A"/>
<path d="M270.291 337.643C270.291 337.98 270.191 338.31 270.004 338.59C269.817 338.87 269.55 339.088 269.239 339.217C268.928 339.346 268.585 339.38 268.255 339.314C267.925 339.249 267.621 339.086 267.383 338.848C267.145 338.61 266.982 338.306 266.917 337.976C266.851 337.645 266.885 337.303 267.013 336.992C267.142 336.68 267.361 336.414 267.641 336.227C267.921 336.04 268.25 335.94 268.587 335.94C269.039 335.94 269.472 336.119 269.792 336.439C270.111 336.758 270.291 337.192 270.291 337.643Z" fill="#223A7A"/>
<path d="M290.733 337.643C290.733 337.98 290.633 338.31 290.445 338.59C290.258 338.87 289.992 339.089 289.681 339.218C289.369 339.346 289.026 339.38 288.696 339.314C288.365 339.248 288.062 339.086 287.824 338.847C287.586 338.609 287.424 338.305 287.358 337.974C287.293 337.644 287.327 337.301 287.456 336.99C287.585 336.678 287.804 336.413 288.085 336.226C288.365 336.039 288.695 335.939 289.032 335.94C289.255 335.94 289.477 335.984 289.683 336.07C289.89 336.155 290.077 336.281 290.235 336.439C290.393 336.597 290.519 336.785 290.604 336.992C290.689 337.198 290.733 337.42 290.733 337.643Z" fill="#223A7A"/>
<path d="M332.752 337.643C332.752 337.98 332.652 338.31 332.465 338.59C332.277 338.87 332.011 339.088 331.7 339.217C331.389 339.346 331.046 339.38 330.716 339.314C330.385 339.249 330.082 339.086 329.844 338.848C329.605 338.61 329.443 338.306 329.377 337.976C329.312 337.645 329.345 337.303 329.474 336.992C329.603 336.68 329.822 336.414 330.102 336.227C330.382 336.04 330.711 335.94 331.048 335.94C331.5 335.94 331.933 336.119 332.253 336.439C332.572 336.758 332.752 337.192 332.752 337.643Z" fill="#223A7A"/>
<path d="M312.311 337.643C312.311 337.98 312.211 338.31 312.024 338.59C311.837 338.87 311.571 339.089 311.259 339.218C310.948 339.346 310.605 339.38 310.274 339.314C309.944 339.248 309.64 339.086 309.402 338.847C309.164 338.609 309.002 338.305 308.937 337.974C308.871 337.644 308.905 337.301 309.035 336.99C309.164 336.678 309.383 336.413 309.663 336.226C309.944 336.039 310.273 335.939 310.611 335.94C310.834 335.94 311.055 335.984 311.262 336.07C311.469 336.155 311.656 336.281 311.814 336.439C311.972 336.597 312.097 336.785 312.183 336.992C312.268 337.198 312.312 337.42 312.311 337.643Z" fill="#223A7A"/>
<path d="M354.331 337.643C354.331 337.98 354.231 338.31 354.044 338.59C353.857 338.87 353.591 339.088 353.28 339.217C352.968 339.346 352.626 339.38 352.295 339.314C351.965 339.249 351.661 339.086 351.423 338.848C351.185 338.61 351.023 338.306 350.957 337.976C350.891 337.645 350.925 337.303 351.054 336.992C351.183 336.68 351.401 336.414 351.681 336.227C351.962 336.04 352.291 335.94 352.628 335.94C353.08 335.94 353.513 336.119 353.832 336.439C354.152 336.758 354.331 337.192 354.331 337.643Z" fill="#223A7A"/>
<path d="M290.733 359.218C290.733 359.555 290.634 359.885 290.447 360.165C290.26 360.446 289.994 360.665 289.682 360.794C289.371 360.923 289.028 360.957 288.698 360.892C288.367 360.826 288.063 360.664 287.825 360.425C287.586 360.187 287.424 359.883 287.358 359.552C287.293 359.222 287.327 358.879 287.456 358.567C287.585 358.256 287.804 357.99 288.084 357.803C288.365 357.616 288.695 357.517 289.032 357.517C289.483 357.518 289.915 357.697 290.234 358.016C290.553 358.335 290.732 358.767 290.733 359.218Z" fill="#223A7A"/>
<path d="M332.752 359.218C332.752 359.555 332.653 359.885 332.466 360.165C332.279 360.446 332.013 360.664 331.702 360.794C331.391 360.923 331.048 360.957 330.718 360.892C330.387 360.826 330.083 360.664 329.845 360.426C329.606 360.188 329.444 359.884 329.378 359.554C329.312 359.223 329.345 358.881 329.474 358.569C329.603 358.258 329.821 357.992 330.102 357.804C330.382 357.617 330.711 357.517 331.048 357.517C331.5 357.517 331.932 357.696 332.252 358.015C332.571 358.334 332.751 358.767 332.752 359.218Z" fill="#223A7A"/>
<path d="M312.311 359.218C312.312 359.555 312.212 359.885 312.025 360.165C311.838 360.446 311.572 360.665 311.261 360.794C310.95 360.923 310.607 360.957 310.276 360.892C309.945 360.826 309.642 360.664 309.403 360.425C309.165 360.187 309.003 359.883 308.937 359.552C308.871 359.222 308.905 358.879 309.035 358.567C309.164 358.256 309.383 357.99 309.663 357.803C309.944 357.616 310.273 357.517 310.611 357.517C311.061 357.518 311.494 357.697 311.812 358.016C312.131 358.335 312.311 358.767 312.311 359.218Z" fill="#223A7A"/>
<path d="M354.331 359.218C354.332 359.555 354.232 359.885 354.046 360.165C353.859 360.446 353.593 360.664 353.282 360.794C352.97 360.923 352.628 360.957 352.297 360.892C351.967 360.826 351.663 360.664 351.424 360.426C351.186 360.188 351.023 359.884 350.957 359.554C350.891 359.223 350.925 358.881 351.054 358.569C351.183 358.258 351.401 357.992 351.681 357.804C351.961 357.617 352.291 357.517 352.628 357.517C353.079 357.517 353.512 357.696 353.831 358.015C354.151 358.334 354.331 358.767 354.331 359.218Z" fill="#223A7A"/>
<path d="M268.587 381.367C269.528 381.367 270.291 380.604 270.291 379.663C270.291 378.722 269.528 377.959 268.587 377.959C267.646 377.959 266.884 378.722 266.884 379.663C266.884 380.604 267.646 381.367 268.587 381.367Z" fill="#223A7A"/>
<path d="M289.029 381.367C289.97 381.367 290.733 380.604 290.733 379.663C290.733 378.722 289.97 377.959 289.029 377.959C288.088 377.959 287.326 378.722 287.326 379.663C287.326 380.604 288.088 381.367 289.029 381.367Z" fill="#223A7A"/>
<path d="M312.311 379.66C312.312 379.997 312.212 380.327 312.025 380.608C311.838 380.888 311.572 381.107 311.261 381.236C310.95 381.366 310.607 381.4 310.276 381.334C309.945 381.268 309.642 381.106 309.403 380.868C309.165 380.629 309.003 380.325 308.937 379.995C308.871 379.664 308.905 379.321 309.035 379.01C309.164 378.698 309.383 378.432 309.663 378.245C309.944 378.058 310.273 377.959 310.611 377.959C311.061 377.96 311.494 378.14 311.812 378.458C312.131 378.777 312.311 379.209 312.311 379.66Z" fill="#223A7A"/>
<path d="M294.141 389.097L378.578 346.161L407.708 366.33C407.708 366.33 402.858 391.519 306.171 405.216L294.141 389.097Z" fill="#E3735A"/>
<path fill-rule="evenodd" clip-rule="evenodd" d="M370.154 350.606L370.155 350.606L370.165 350.6C370.174 350.595 370.188 350.587 370.209 350.575C370.249 350.553 370.311 350.519 370.394 350.476C370.559 350.391 370.805 350.268 371.121 350.127C371.754 349.844 372.663 349.486 373.759 349.192C375.958 348.602 378.86 348.28 381.795 349.271C382.158 349.393 382.556 349.21 382.684 348.861C382.811 348.512 382.62 348.13 382.257 348.008C378.958 346.894 375.744 347.27 373.384 347.903C372.201 348.22 371.22 348.606 370.533 348.913C370.189 349.067 369.918 349.201 369.731 349.299C369.637 349.347 369.564 349.387 369.514 349.415C369.489 349.429 369.469 349.44 369.455 349.448L369.438 349.457L369.433 349.46L369.432 349.461L369.431 349.461C369.431 349.461 369.431 349.462 369.792 350.034L369.431 349.462C369.102 349.653 368.997 350.065 369.197 350.381C369.396 350.697 369.825 350.798 370.154 350.606L370.154 350.606Z" fill="#AB4A35"/>
<path fill-rule="evenodd" clip-rule="evenodd" d="M450.864 217.443C446.206 217.443 442.429 221.429 442.429 226.347C442.429 231.264 446.206 235.25 450.864 235.25C455.523 235.25 459.299 231.264 459.299 226.347C459.299 221.429 455.523 217.443 450.864 217.443ZM440.643 226.347C440.643 220.388 445.219 215.558 450.864 215.558C456.509 215.558 461.085 220.388 461.085 226.347C461.085 232.305 456.509 237.135 450.864 237.135C445.219 237.135 440.643 232.305 440.643 226.347Z" fill="#223A7A"/>
<path fill-rule="evenodd" clip-rule="evenodd" d="M232.717 449.095C232.294 451.706 234.066 454.166 236.677 454.589C239.287 455.013 241.747 453.24 242.171 450.63C242.594 448.02 240.822 445.56 238.211 445.136C235.601 444.712 233.141 446.485 232.717 449.095ZM236.39 456.355C232.805 455.773 230.37 452.394 230.952 448.809C231.534 445.224 234.912 442.789 238.498 443.371C242.083 443.953 244.518 447.331 243.936 450.916C243.354 454.502 239.976 456.937 236.39 456.355Z" fill="#223A7A"/>
<path fill-rule="evenodd" clip-rule="evenodd" d="M6.92416 247.755C6.49769 250.365 8.26778 252.826 10.8777 253.253C13.4877 253.679 15.9492 251.909 16.3757 249.299C16.8022 246.689 15.0321 244.228 12.4221 243.801C9.81212 243.375 7.35062 245.145 6.92416 247.755ZM10.5894 255.018C7.00462 254.432 4.57347 251.051 5.1592 247.466C5.74493 243.882 9.12576 241.45 12.7105 242.036C16.2952 242.622 18.7264 246.003 18.1406 249.587C17.5549 253.172 14.1741 255.603 10.5894 255.018Z" fill="#223A7A"/>
<path fill-rule="evenodd" clip-rule="evenodd" d="M203.286 64.5127L225.999 74.8623L206.492 89.4976L203.286 64.5127ZM205.522 67.51L207.916 86.1679L222.483 75.2388L205.522 67.51Z" fill="#223A7A"/>
<path d="M328.778 186.03C335.991 186.03 341.838 179.42 341.838 171.266C341.838 163.112 335.991 156.502 328.778 156.502C321.565 156.502 315.718 163.112 315.718 171.266C315.718 179.42 321.565 186.03 328.778 186.03Z" fill="white"/>
<path fill-rule="evenodd" clip-rule="evenodd" d="M322.351 160.268C322.351 160.268 316.836 117.393 280.512 122.02L295.257 115.619C295.257 115.619 326.315 115.983 331.617 163.317L322.351 160.268Z" fill="white"/>
<path fill-rule="evenodd" clip-rule="evenodd" d="M326.761 174.674C326.761 174.674 318.311 193.642 308.904 193.642L312.406 198.523C312.406 198.523 327.987 192.11 331.618 174.674H326.761Z" fill="white"/>
<path fill-rule="evenodd" clip-rule="evenodd" d="M5.18178 295.571C5.31054 295.963 5.09491 296.384 4.70016 296.512C3.38036 296.94 2.60891 297.507 2.15896 298.066C1.7116 298.622 1.53882 299.222 1.50855 299.794C1.4778 300.376 1.59538 300.924 1.72823 301.337C1.79388 301.541 1.86116 301.706 1.91067 301.816C1.93536 301.872 1.95541 301.913 1.96833 301.939C1.97478 301.952 1.97943 301.961 1.98196 301.966L1.98391 301.97L1.98348 301.969M5.18178 295.571C5.05303 295.178 4.62866 294.964 4.23391 295.092L5.18178 295.571ZM0.645479 302.65C0.638987 302.638 0.630747 302.622 0.621006 302.602C0.59931 302.559 0.570083 302.498 0.536094 302.422C0.468264 302.27 0.380617 302.055 0.295967 301.792C0.128231 301.27 -0.0362679 300.534 0.00701233 299.716C0.0507801 298.888 0.308154 297.974 0.98468 297.133C1.65861 296.296 2.70477 295.588 4.23391 295.092M0.645479 302.65L30.361 368.433C30.531 368.809 30.9759 368.977 31.3547 368.809C31.7335 368.64 31.9029 368.198 31.7329 367.822L2.00787 302.018C2.00052 302.002 1.99257 301.986 1.98406 301.97" fill="white"/>
<path d="M104.776 119.107L106.039 121.604C106.198 121.921 106.433 122.194 106.725 122.402C107.017 122.609 107.356 122.744 107.713 122.794L110.531 123.197C110.941 123.256 111.325 123.425 111.642 123.687C111.958 123.948 112.194 124.29 112.322 124.675C112.45 125.06 112.466 125.472 112.368 125.865C112.27 126.259 112.061 126.617 111.766 126.901L109.726 128.844C109.467 129.09 109.273 129.394 109.162 129.73C109.05 130.066 109.025 130.423 109.087 130.771L109.566 133.517C109.637 133.917 109.591 134.328 109.435 134.704C109.278 135.08 109.018 135.406 108.682 135.645C108.346 135.883 107.949 136.025 107.535 136.055C107.121 136.084 106.707 136 106.339 135.811L103.814 134.514C103.495 134.35 103.139 134.264 102.778 134.264C102.418 134.264 102.062 134.35 101.743 134.514L99.2178 135.811C98.8501 135.999 98.4359 136.084 98.0219 136.054C97.6079 136.025 97.2106 135.883 96.8748 135.644C96.5389 135.405 96.2779 135.08 96.1212 134.704C95.9645 134.328 95.9183 133.917 95.9879 133.517L96.4702 130.771C96.5313 130.423 96.5048 130.066 96.3931 129.73C96.2813 129.394 96.0876 129.09 95.8288 128.844L93.7909 126.901C93.4956 126.617 93.2871 126.259 93.1887 125.866C93.0904 125.473 93.1061 125.061 93.2342 124.676C93.3622 124.291 93.5975 123.949 93.9135 123.687C94.2296 123.426 94.6138 123.256 95.0232 123.197L97.8415 122.794C98.1987 122.744 98.5379 122.609 98.83 122.401C99.1221 122.194 99.3583 121.92 99.5183 121.604L100.781 119.107C100.964 118.742 101.248 118.434 101.602 118.219C101.955 118.004 102.362 117.89 102.778 117.89C103.194 117.89 103.602 118.004 103.955 118.219C104.308 118.434 104.593 118.742 104.776 119.107Z" fill="white"/>
<path d="M128.625 119.104L129.888 121.601C130.047 121.918 130.283 122.193 130.575 122.4C130.868 122.608 131.207 122.742 131.565 122.792L134.383 123.195C134.792 123.254 135.177 123.424 135.493 123.685C135.809 123.947 136.044 124.289 136.172 124.674C136.3 125.059 136.316 125.471 136.217 125.864C136.119 126.257 135.91 126.616 135.615 126.899L133.575 128.843C133.317 129.09 133.124 129.394 133.013 129.729C132.901 130.065 132.875 130.422 132.936 130.77L133.418 133.516C133.488 133.917 133.442 134.328 133.285 134.704C133.128 135.08 132.867 135.405 132.531 135.644C132.195 135.883 131.798 136.025 131.384 136.054C130.97 136.084 130.556 135.999 130.188 135.811L127.663 134.514C127.344 134.35 126.988 134.264 126.628 134.264C126.267 134.264 125.912 134.35 125.592 134.514L123.067 135.811C122.7 136 122.285 136.084 121.871 136.055C121.457 136.025 121.06 135.883 120.724 135.645C120.388 135.406 120.128 135.08 119.971 134.704C119.815 134.328 119.769 133.916 119.84 133.516L120.32 130.77C120.381 130.422 120.355 130.065 120.243 129.729C120.132 129.394 119.939 129.09 119.681 128.843L117.64 126.899C117.345 126.616 117.136 126.257 117.038 125.864C116.94 125.47 116.956 125.058 117.084 124.673C117.212 124.288 117.448 123.946 117.764 123.684C118.081 123.423 118.465 123.254 118.875 123.195L121.693 122.792C122.05 122.742 122.389 122.607 122.681 122.4C122.973 122.192 123.208 121.918 123.368 121.601L124.63 119.104C124.814 118.74 125.099 118.433 125.452 118.218C125.805 118.003 126.212 117.89 126.628 117.89C127.043 117.89 127.451 118.003 127.804 118.218C128.157 118.433 128.441 118.74 128.625 119.104Z" fill="white"/>
<path d="M152.475 119.107L153.738 121.604C153.898 121.921 154.134 122.194 154.426 122.402C154.718 122.609 155.058 122.744 155.415 122.794L158.233 123.197C158.642 123.256 159.027 123.426 159.343 123.688C159.659 123.949 159.894 124.291 160.022 124.676C160.15 125.061 160.166 125.473 160.067 125.866C159.969 126.259 159.761 126.618 159.465 126.901L157.427 128.845C157.169 129.091 156.975 129.395 156.863 129.73C156.751 130.066 156.725 130.423 156.786 130.771L157.268 133.517C157.338 133.917 157.292 134.329 157.135 134.705C156.978 135.08 156.717 135.406 156.382 135.645C156.046 135.883 155.648 136.025 155.234 136.055C154.82 136.084 154.406 136 154.039 135.812L151.513 134.515C151.194 134.351 150.839 134.265 150.478 134.265C150.117 134.265 149.762 134.351 149.443 134.515L146.917 135.812C146.55 136 146.135 136.084 145.722 136.055C145.308 136.025 144.91 135.883 144.574 135.645C144.239 135.406 143.978 135.08 143.821 134.705C143.664 134.329 143.618 133.917 143.688 133.517L144.17 130.771C144.231 130.423 144.204 130.066 144.093 129.73C143.981 129.395 143.787 129.091 143.528 128.845L141.491 126.901C141.195 126.618 140.987 126.259 140.888 125.866C140.79 125.473 140.806 125.061 140.934 124.676C141.062 124.291 141.297 123.949 141.613 123.688C141.929 123.426 142.314 123.256 142.723 123.197L145.541 122.794C145.898 122.744 146.237 122.609 146.53 122.402C146.822 122.194 147.058 121.921 147.218 121.604L148.48 119.107C148.664 118.742 148.948 118.434 149.301 118.219C149.654 118.004 150.062 117.89 150.478 117.89C150.894 117.89 151.302 118.004 151.655 118.219C152.008 118.434 152.292 118.742 152.475 119.107Z" fill="white"/>
<path d="M176.325 119.107L177.587 121.603C177.746 121.92 177.982 122.194 178.273 122.401C178.565 122.609 178.904 122.744 179.261 122.794L182.079 123.196C182.489 123.255 182.873 123.425 183.19 123.686C183.506 123.947 183.742 124.29 183.87 124.674C183.998 125.059 184.014 125.472 183.916 125.865C183.818 126.258 183.609 126.617 183.314 126.901L181.274 128.844C181.016 129.091 180.823 129.395 180.711 129.73C180.6 130.066 180.574 130.423 180.635 130.771L181.115 133.517C181.185 133.917 181.139 134.328 180.983 134.704C180.827 135.08 180.566 135.406 180.23 135.645C179.894 135.883 179.497 136.025 179.083 136.055C178.669 136.084 178.255 136 177.888 135.811L175.363 134.514C175.043 134.35 174.687 134.264 174.326 134.264C173.965 134.264 173.609 134.35 173.29 134.514L170.765 135.811C170.397 136 169.983 136.084 169.569 136.055C169.155 136.025 168.758 135.883 168.422 135.645C168.086 135.406 167.826 135.08 167.669 134.704C167.513 134.328 167.467 133.917 167.538 133.517L168.017 130.771C168.078 130.423 168.052 130.066 167.941 129.73C167.829 129.395 167.637 129.091 167.379 128.844L165.338 126.901C165.043 126.617 164.835 126.258 164.736 125.865C164.638 125.472 164.654 125.059 164.782 124.674C164.911 124.29 165.146 123.947 165.463 123.686C165.779 123.425 166.164 123.255 166.573 123.196L169.391 122.794C169.748 122.744 170.087 122.609 170.379 122.401C170.67 122.194 170.906 121.92 171.065 121.603L172.328 119.107C172.511 118.742 172.796 118.434 173.149 118.219C173.502 118.004 173.91 117.89 174.326 117.89C174.742 117.89 175.15 118.004 175.503 118.219C175.856 118.434 176.141 118.742 176.325 119.107Z" fill="white"/>
<path d="M200.173 119.107L201.436 121.604C201.596 121.921 201.832 122.194 202.124 122.402C202.416 122.609 202.755 122.744 203.113 122.794L205.931 123.197C206.34 123.256 206.724 123.426 207.04 123.688C207.357 123.949 207.592 124.291 207.72 124.676C207.848 125.061 207.864 125.473 207.765 125.866C207.667 126.259 207.458 126.618 207.163 126.901L205.125 128.845C204.866 129.091 204.673 129.395 204.561 129.73C204.449 130.066 204.423 130.423 204.484 130.771L204.966 133.517C205.036 133.917 204.99 134.329 204.833 134.705C204.676 135.08 204.415 135.406 204.079 135.645C203.743 135.883 203.346 136.025 202.932 136.055C202.518 136.084 202.104 136 201.736 135.812L199.211 134.515C198.892 134.351 198.536 134.265 198.176 134.265C197.815 134.265 197.46 134.351 197.14 134.515L194.615 135.812C194.247 136 193.833 136.084 193.419 136.055C193.005 136.025 192.608 135.883 192.272 135.645C191.936 135.406 191.675 135.08 191.519 134.705C191.362 134.329 191.316 133.917 191.385 133.517L191.868 130.771C191.929 130.423 191.902 130.066 191.79 129.73C191.679 129.395 191.485 129.091 191.226 128.845L189.188 126.901C188.893 126.618 188.685 126.259 188.586 125.866C188.488 125.473 188.504 125.061 188.632 124.676C188.76 124.291 188.995 123.949 189.311 123.688C189.627 123.426 190.011 123.256 190.421 123.197L193.239 122.794C193.596 122.744 193.935 122.609 194.227 122.402C194.519 122.194 194.756 121.921 194.916 121.604L196.178 119.107C196.361 118.742 196.646 118.434 196.999 118.219C197.352 118.004 197.76 117.89 198.176 117.89C198.592 117.89 199 118.004 199.353 118.219C199.706 118.434 199.99 118.742 200.173 119.107Z" fill="white"/>
<path fill-rule="evenodd" clip-rule="evenodd" d="M283.919 191.724L296.412 190.573C296.412 190.573 295.427 199.783 290.164 199.657C284.901 199.531 283.919 191.724 283.919 191.724Z" fill="white"/>
<path d="M331.446 178.773C335.485 178.431 338.433 174.295 338.03 169.533C337.628 164.772 334.028 161.188 329.989 161.53C325.95 161.871 323.002 166.007 323.405 170.769C323.807 175.53 327.407 179.114 331.446 178.773Z" fill="#223A7A"/>
<path fill-rule="evenodd" clip-rule="evenodd" d="M321.792 182.926C321.792 182.926 321.792 182.926 321.792 182.926L321.792 182.926L321.792 182.926L321.792 182.925C321.791 182.925 321.791 182.925 321.791 182.925C321.791 182.925 321.791 182.925 321.791 182.925M321.792 182.926C321.792 182.926 321.792 182.926 321.792 182.926C321.792 182.926 321.792 182.926 321.791 182.925L321.793 182.927C321.796 182.93 321.801 182.936 321.808 182.944C321.822 182.959 321.846 182.985 321.878 183.019C321.944 183.088 322.044 183.189 322.177 183.312C322.444 183.559 322.838 183.887 323.334 184.209C324.332 184.855 325.696 185.438 327.271 185.326C327.755 185.291 328.174 185.671 328.207 186.174C328.241 186.677 327.875 187.113 327.391 187.147C325.324 187.295 323.592 186.527 322.404 185.759C321.808 185.372 321.335 184.977 321.01 184.677C320.847 184.527 320.72 184.399 320.632 184.306C320.587 184.26 320.553 184.222 320.528 184.195C320.516 184.181 320.506 184.17 320.498 184.162L320.489 184.152L320.486 184.148L320.485 184.147L320.484 184.146C320.484 184.146 320.484 184.145 321.138 183.536L320.484 184.145C320.16 183.77 320.191 183.192 320.552 182.856C320.913 182.52 321.467 182.551 321.791 182.925" fill="#223A7A"/>
<path d="M308.938 202.346C313.028 201.618 315.886 198.457 315.322 195.286C314.758 192.115 310.985 190.134 306.895 190.861C302.805 191.589 299.947 194.75 300.511 197.921C301.075 201.093 304.848 203.074 308.938 202.346Z" fill="#223A7A"/>
<path fill-rule="evenodd" clip-rule="evenodd" d="M29.5269 415.437C29.5269 414.81 29.9272 414.302 30.4212 414.302H426.119C426.613 414.302 427.014 414.81 427.014 415.437C427.014 416.065 426.613 416.573 426.119 416.573H30.4212C29.9272 416.573 29.5269 416.065 29.5269 415.437Z" fill="#223A7A"/>
<path d="M411.154 158.419C410.959 154.765 413.575 151.946 417.081 151.771C420.588 151.596 423.405 154.141 423.597 157.798C423.79 161.455 421.261 164.266 417.752 164.444C414.243 164.621 411.347 162.076 411.154 158.419ZM410.719 118.532L409.979 109.287L419.669 108.804L419.825 118.08L419.951 145.849L413.52 146.17L410.719 118.532Z" fill="#FF5D17"/>
<path d="M453.906 126.549C454.878 122.816 453.177 119.724 449.189 118.687C445.983 117.863 443 118.755 440.083 120.66L436.258 114.784C440.73 111.702 446.307 110.15 452.172 111.659C460.307 113.749 465.019 119.691 462.813 128.17C460.245 138.061 447.136 138.411 445.621 148.713L437.716 146.684C439.047 134.926 452.085 133.549 453.906 126.549ZM432.925 157.831C433.835 154.331 437.005 152.406 440.289 153.253C443.574 154.1 445.486 157.326 444.576 160.826C443.665 164.326 440.419 166.231 437.135 165.391C433.851 164.552 432.015 161.331 432.925 157.831Z" fill="#223A7A"/>
</svg>
