<svg width="417" height="415" viewBox="0 0 417 415" fill="none" xmlns="http://www.w3.org/2000/svg">
<path d="M4.79553 340.284C17.0489 369.967 45.7287 383.989 64.0535 392.947C82.3782 401.906 103.023 408.292 125.009 411.827C145.96 415.196 168.86 407.535 191.217 405.4C218.953 402.748 246.262 404.056 272.852 391.924C291.632 383.381 309.231 372.457 325.215 359.424C343.736 344.329 434.978 265.121 413.846 157.97C395.165 63.2662 300.819 8.39711 221.358 1.1581C155.507 -4.8577 69.4821 19.1453 39.0346 76.9522C19.8862 113.303 42.8411 124.828 27.1378 207.169C13.5235 278.441 -10.1897 303.973 4.79553 340.284Z" fill="#CADDFF"/>
<path d="M274.038 391.573C270.342 363.896 267.534 345.954 267.534 345.954L150.45 325.67L138.764 358.757C135.249 368.784 130.473 383.602 126.003 401.835C125.345 404.527 124.497 408.047 123.733 411.621C171.391 419.401 225.401 414.133 274.038 391.573Z" fill="black"/>
<path d="M126.305 356.146C123.713 364.989 119.651 377.201 124.15 383.091C132.321 393.764 139.095 392.05 149.179 388.38C169.347 381.041 201.532 369.445 210.948 375.892L211.365 356.146H126.305Z" fill="black"/>
<path d="M241.948 166.818C250.137 166.769 258.175 169.024 265.14 173.324C272.105 177.624 277.715 183.796 281.329 191.132C289.821 208.437 301.803 253.726 302.27 273.503C303.089 308.094 272.752 310.024 271.853 310.074C271.948 311.077 275.494 348.636 275.775 355.308C276.277 367.5 253.629 386.53 227.6 377.156C201.703 367.831 130.96 349.247 123.773 365.069H123.738L153.418 255.155L129.056 256.328L109.17 244.858V244.833L114.192 222.62C123.733 184.665 149.269 167.249 182.228 167.094L241.948 166.818Z" fill="#5479F7"/>
<path d="M163.833 251.611C159.278 250.769 160.524 245.5 144.524 244.547C98.3581 241.8 120.73 218.404 147.181 222.86C155.944 224.339 159.394 229.999 162.688 231.433C190.363 243.489 172.908 253.285 163.833 251.611Z" fill="white"/>
<path d="M166.063 252.558C165.268 252.561 164.474 252.49 163.692 252.348C161.995 252.037 160.98 251.155 159.901 250.222C157.817 248.407 154.954 245.926 144.479 245.299C129.453 244.407 119.912 241.148 117.622 236.13C116.642 233.995 117.019 231.699 118.711 229.498C122.799 224.189 134.611 219.973 147.306 222.118C153.448 223.156 157.098 226.209 159.765 228.435C160.736 229.34 161.82 230.117 162.989 230.746C177.452 237.043 179.225 242.477 178.17 245.926C176.915 250.027 171.079 252.558 166.063 252.558ZM163.968 250.874C168.604 251.726 175.519 249.37 176.729 245.49C177.447 243.144 176.543 238.291 162.387 232.125C161.226 231.623 160.102 230.676 158.801 229.588C156.124 227.352 152.775 224.575 147.055 223.602C134.917 221.557 123.723 225.462 119.907 230.415C118.978 231.623 118.069 233.488 118.988 235.509C119.907 237.529 124.356 242.597 144.569 243.8C155.557 244.452 158.63 247.129 160.89 249.084C161.925 249.982 162.673 250.633 163.968 250.874Z" fill="black"/>
<path d="M221.956 173.29C222.295 172.99 222.54 172.599 222.66 172.163C222.78 171.727 222.771 171.265 222.634 170.834C222.497 170.403 222.238 170.021 221.887 169.735C221.537 169.448 221.111 169.269 220.66 169.219L217.532 168.843C215.907 168.658 214.366 168.023 213.083 167.011C211.8 165.998 210.826 164.649 210.27 163.113L205.113 125.099L194.537 128.873L180.541 121.965L181.796 162.572C181.733 164.322 181.142 166.011 180.101 167.42C179.06 168.829 177.617 169.891 175.961 170.468L171.868 171.927C171.394 172.085 170.98 172.384 170.681 172.783C170.381 173.183 170.212 173.664 170.193 174.163C170.175 174.661 170.31 175.153 170.58 175.574C170.849 175.994 171.241 176.322 171.702 176.514C180.028 180.153 213.886 180.183 221.956 173.29Z" fill="white"/>
<path d="M192.001 179.702C183.016 179.702 174.926 178.76 171.411 177.195C170.811 176.943 170.302 176.514 169.952 175.967C169.602 175.419 169.427 174.778 169.45 174.128C169.474 173.479 169.694 172.852 170.083 172.331C170.472 171.809 171.01 171.418 171.627 171.21L175.715 169.746C177.231 169.227 178.553 168.26 179.507 166.973C180.46 165.687 180.999 164.141 181.053 162.542L179.802 121.965C179.797 121.836 179.826 121.707 179.886 121.592C179.946 121.477 180.035 121.379 180.144 121.309C180.253 121.238 180.379 121.197 180.51 121.189C180.64 121.181 180.77 121.207 180.887 121.264L194.597 128.031L204.872 124.367C204.976 124.327 205.089 124.313 205.201 124.324C205.312 124.336 205.419 124.372 205.514 124.432C205.611 124.489 205.693 124.568 205.755 124.662C205.817 124.755 205.856 124.862 205.871 124.973L211.018 162.908C211.531 164.297 212.422 165.516 213.59 166.428C214.758 167.34 216.158 167.909 217.632 168.071L220.761 168.447C221.366 168.514 221.938 168.758 222.405 169.149C222.871 169.54 223.211 170.06 223.382 170.643C223.559 171.208 223.565 171.812 223.4 172.38C223.235 172.948 222.905 173.454 222.453 173.837C217.175 178.348 202.868 179.351 196.962 179.582C195.29 179.667 193.628 179.702 192.001 179.702ZM181.334 123.194L182.549 162.567C182.495 164.477 181.86 166.325 180.728 167.865C179.596 169.406 178.02 170.565 176.212 171.19L172.144 172.649C171.812 172.758 171.521 172.967 171.31 173.246C171.1 173.526 170.981 173.863 170.969 174.213C170.957 174.559 171.051 174.901 171.24 175.193C171.428 175.484 171.702 175.711 172.024 175.842C176.016 177.581 186.256 178.509 196.917 178.103C208.889 177.647 218.074 175.631 221.484 172.719C221.714 172.527 221.881 172.27 221.964 171.983C222.047 171.695 222.043 171.389 221.951 171.104C221.863 170.802 221.688 170.532 221.446 170.33C221.205 170.127 220.908 170.001 220.595 169.966L217.461 169.59C215.69 169.398 214.01 168.71 212.612 167.607C211.215 166.504 210.158 165.03 209.562 163.354C209.543 163.306 209.529 163.255 209.522 163.204L204.5 126.106L194.803 129.565C194.708 129.601 194.606 129.616 194.505 129.61C194.404 129.604 194.305 129.577 194.215 129.53L181.334 123.194Z" fill="black"/>
<path d="M209.808 94.8692C227.831 101.492 224.733 113.137 224.733 113.137C224.507 116.341 224.376 122.201 224.974 124.327C225.476 126.081 228.349 129.38 228.489 130.342C228.63 131.305 227.068 133.315 223.97 134.022C223.97 134.022 222.784 149.563 218.702 152.13C214.619 154.696 198.85 149.819 198.85 149.819L196.204 148.761C187.667 145.347 182.464 138.233 179.983 129.465C179.983 129.45 168.508 79.6893 209.808 94.8692Z" fill="white"/>
<path d="M214.83 153.628C208.854 153.628 199.91 150.916 198.64 150.52H198.584L195.938 149.463C187.772 146.194 182.007 139.351 179.275 129.676C179.034 128.628 173.681 104.765 184.634 95.1348C190.112 90.3122 198.695 89.9913 210.079 94.1823C227.721 100.669 225.727 112.16 225.491 113.262C225.255 116.646 225.17 122.216 225.712 124.146C225.943 124.963 226.898 126.362 227.671 127.48C228.62 128.863 229.178 129.671 229.243 130.272C229.449 131.721 227.631 133.781 224.663 134.654C224.392 137.747 223.061 150.32 219.084 152.801C218.094 153.388 216.588 153.628 214.83 153.628ZM199.117 149.117C203.425 150.45 215.187 153.468 218.285 151.528C221.384 149.588 222.88 138.223 223.201 133.982C223.214 133.821 223.278 133.669 223.383 133.547C223.489 133.425 223.631 133.34 223.789 133.305C226.697 132.643 227.807 130.899 227.751 130.463C227.38 129.705 226.936 128.984 226.426 128.312C225.507 126.973 224.557 125.59 224.261 124.532C223.553 122.025 223.829 115.413 223.99 113.082C223.985 113.035 223.985 112.988 223.99 112.942C224.105 112.495 226.641 101.863 209.532 95.576C198.69 91.5905 190.64 91.8111 185.603 96.2377C175.323 105.261 180.656 129.044 180.712 129.285C183.303 138.459 188.747 144.956 196.47 148.044L199.117 149.117Z" fill="black"/>
<path d="M203.872 86.4421C208.608 87.6001 213.238 90.5529 215.689 90.8135C219.636 91.2346 222.483 86.1764 227.475 88.0112C231.859 89.6254 234.32 93.3502 234.947 97.5362C235.056 98.2748 235.078 99.0234 235.013 99.7671C234.084 110.385 227.43 112.641 224.728 113.122C224.728 113.122 209.08 111.673 206.027 112.415C203.169 113.107 198.76 117.539 197.429 123.845C197.34 124.242 197.125 124.6 196.815 124.865C196.505 125.13 196.118 125.287 195.712 125.314C195.243 125.348 194.779 125.207 194.408 124.919C194.037 124.631 193.786 124.217 193.703 123.755C193.201 120.747 191.749 114.676 188.681 114.501C185.09 114.29 180.515 121.379 185.211 125.82C185.543 126.145 185.789 126.546 185.928 126.988C186.066 127.431 186.093 127.901 186.006 128.356C185.918 128.811 185.719 129.238 185.426 129.598C185.133 129.957 184.756 130.239 184.327 130.418C182.79 131.039 180.862 131.074 178.778 129.39C178.778 129.39 169.513 113.177 173.932 99.4913C178.351 85.8054 197.565 84.908 203.872 86.4421Z" fill="black"/>
<path d="M229.032 129.941C228.881 129.939 228.735 129.892 228.611 129.806C228.487 129.721 228.393 129.6 228.338 129.459C228.284 129.319 228.274 129.166 228.308 129.019C228.342 128.873 228.419 128.74 228.53 128.638C229.639 127.635 230.438 125.324 230.568 122.798C230.69 121.16 230.45 119.515 229.865 117.98C229.398 116.882 228.776 116.235 228.153 116.2H228.103C226.978 116.2 225.778 118.095 225.285 120.657C225.273 120.759 225.24 120.858 225.188 120.947C225.136 121.036 225.066 121.113 224.982 121.174C224.899 121.235 224.804 121.278 224.703 121.301C224.602 121.324 224.498 121.325 224.397 121.306C224.295 121.287 224.199 121.247 224.113 121.189C224.028 121.131 223.955 121.056 223.9 120.969C223.845 120.881 223.809 120.784 223.793 120.682C223.777 120.58 223.783 120.476 223.809 120.376C224.477 116.867 226.25 114.606 228.228 114.701C229.469 114.761 230.543 115.704 231.241 117.393C231.912 119.138 232.192 121.008 232.06 122.873C231.909 125.815 230.945 128.447 229.549 129.741C229.409 129.873 229.224 129.945 229.032 129.941Z" fill="black"/>
<path d="M216.743 130.974H216.553C215.046 130.894 213.685 129.916 212.751 128.222C211.836 126.443 211.426 124.447 211.566 122.452C211.807 117.824 214.373 114.315 217.406 114.481C218.913 114.561 220.269 115.533 221.208 117.233C222.123 119.012 222.531 121.008 222.388 123.003C222.152 127.53 219.691 130.974 216.743 130.974ZM217.216 115.98C215.141 115.98 213.258 118.937 213.072 122.527C212.948 124.243 213.295 125.961 214.077 127.495C214.755 128.718 215.664 129.42 216.638 129.47C218.762 129.57 220.706 126.582 220.892 122.928C221.018 121.211 220.671 119.493 219.887 117.96C219.209 116.737 218.3 116.035 217.326 115.985L217.216 115.98Z" fill="black"/>
<path d="M212.877 119.94H212.821L195.627 118.401C195.528 118.392 195.431 118.364 195.343 118.318C195.255 118.272 195.177 118.209 195.114 118.133C194.985 117.979 194.923 117.781 194.941 117.581C194.959 117.382 195.056 117.198 195.21 117.069C195.364 116.941 195.562 116.879 195.762 116.897L212.957 118.436C213.157 118.445 213.345 118.532 213.48 118.679C213.615 118.827 213.686 119.021 213.678 119.221C213.669 119.42 213.581 119.608 213.434 119.743C213.286 119.878 213.091 119.949 212.892 119.94H212.877Z" fill="black"/>
<path d="M221.358 62.7999L229.187 82.7623C232.351 90.9539 221.273 102.775 204.439 109.167C187.606 115.558 171.396 114.095 168.232 105.903L160.403 85.9457L221.358 62.7999Z" fill="#5479F7"/>
<path d="M184.518 113.899C183.358 113.899 182.223 113.854 181.128 113.754C173.987 113.112 169.156 110.42 167.519 106.174L159.69 86.2165C159.651 86.1253 159.631 86.0272 159.631 85.9282C159.631 85.8292 159.651 85.7312 159.69 85.64C159.772 85.4575 159.924 85.315 160.112 85.2439L221.077 62.0881C221.263 62.0178 221.469 62.0237 221.65 62.1044C221.832 62.1852 221.974 62.3343 222.046 62.5192L229.895 82.4867C230.854 84.9632 230.659 87.7405 229.318 90.7384C226.064 98.0125 216.638 105.342 204.711 109.869C197.755 112.506 190.725 113.899 184.518 113.899ZM161.367 86.3769L168.9 105.632C171.913 113.428 187.717 114.696 204.138 108.465C215.528 104.139 224.853 96.9346 227.902 90.1268C229.072 87.5049 229.258 85.1136 228.449 83.0331L220.916 63.7675L161.367 86.3769Z" fill="black"/>
<path d="M156.345 80.5165L182.494 55.3955C183.004 54.9633 183.648 54.7191 184.317 54.7037L220.7 56.0723L233.144 51.3448L235.46 57.3607C235.539 57.5569 235.554 57.7732 235.502 57.9785C235.451 58.1839 235.336 58.3677 235.173 58.5037L198.012 90.227C197.503 90.662 196.858 90.9066 196.189 90.9188L147.18 91.9214C146.964 91.9342 146.749 91.8766 146.568 91.7573C146.387 91.6381 146.249 91.4635 146.176 91.2597L143.861 85.2439L156.345 80.5165Z" fill="#99B9FF"/>
<path d="M147.18 92.6684C146.819 92.6703 146.465 92.5619 146.167 92.3576C145.869 92.1533 145.641 91.8629 145.513 91.5254L143.198 85.5096C143.162 85.4174 143.145 85.3192 143.148 85.2204C143.15 85.1216 143.172 85.0243 143.212 84.934C143.252 84.8437 143.31 84.7621 143.381 84.694C143.453 84.6259 143.538 84.5726 143.63 84.537L155.933 79.8648L181.972 54.8541C182.621 54.2938 183.444 53.9749 184.302 53.9517L220.575 55.3253L232.878 50.6531C233.064 50.5827 233.27 50.5886 233.452 50.6694C233.633 50.7501 233.776 50.8992 233.848 51.0842L236.163 57.1C236.304 57.444 236.331 57.8241 236.241 58.1849C236.151 58.5456 235.947 58.8681 235.66 59.1052L198.499 90.8286C197.865 91.3529 197.072 91.6479 196.249 91.6658L147.241 92.6684H147.18ZM144.875 85.6901L146.919 90.984C146.938 91.0377 146.974 91.084 147.021 91.1164C147.067 91.1488 147.123 91.1656 147.18 91.1645L196.189 90.1618C196.683 90.1553 197.161 89.9782 197.54 89.6605L234.676 57.9372C234.72 57.9022 234.751 57.8538 234.765 57.7995C234.778 57.7452 234.774 57.6878 234.751 57.6364L232.708 52.3375L220.961 56.7942C220.867 56.8306 220.766 56.8476 220.665 56.8443L184.282 55.4657C183.804 55.4831 183.346 55.6596 182.981 55.967L156.868 81.0329C156.795 81.104 156.707 81.1587 156.611 81.1933L144.875 85.6901Z" fill="black"/>
<path d="M144.188 84.0959L181.349 52.3726C181.858 51.9404 182.5 51.6961 183.167 51.6807L232.181 50.6781C232.392 50.6747 232.6 50.7363 232.776 50.8546C232.952 50.9729 233.087 51.1422 233.163 51.3396C233.239 51.537 233.253 51.753 233.202 51.9584C233.151 52.1637 233.038 52.3486 232.879 52.4879L195.717 84.2112C195.208 84.6448 194.563 84.8877 193.894 84.898L144.886 85.9006C144.674 85.9057 144.465 85.8453 144.289 85.7277C144.113 85.61 143.977 85.4409 143.901 85.2434C143.824 85.0459 143.811 84.8297 143.862 84.6243C143.914 84.4189 144.027 84.2344 144.188 84.0959Z" fill="#5479F7"/>
<path d="M144.86 86.6526C144.496 86.6529 144.141 86.542 143.842 86.3347C143.543 86.1274 143.314 85.8337 143.187 85.4931C143.061 85.1525 143.041 84.7812 143.132 84.4293C143.223 84.0773 143.419 83.7615 143.695 83.5244L180.857 51.801C181.499 51.2555 182.309 50.9475 183.152 50.9287L232.165 49.9261C232.533 49.9206 232.894 50.0283 233.199 50.2346C233.503 50.4409 233.737 50.7357 233.868 51.0791C234.001 51.4202 234.025 51.7946 233.935 52.1497C233.845 52.5048 233.646 52.8229 233.365 53.0593L196.204 84.7777C195.563 85.3253 194.752 85.6352 193.909 85.655L144.9 86.6576L144.86 86.6526ZM144.674 84.6473C144.63 84.6818 144.599 84.7305 144.586 84.7853C144.573 84.84 144.58 84.8975 144.604 84.9481C144.617 85.0062 144.652 85.0571 144.702 85.0906C144.751 85.1241 144.811 85.1377 144.87 85.1286L193.879 84.1259C194.371 84.1179 194.847 83.9409 195.224 83.6246L232.386 51.9013C232.431 51.8669 232.462 51.8185 232.476 51.7639C232.49 51.7094 232.484 51.6518 232.461 51.6005C232.445 51.5436 232.41 51.4941 232.362 51.4603C232.313 51.4265 232.254 51.4105 232.195 51.415L183.182 52.4176C182.689 52.4253 182.214 52.6024 181.836 52.919L144.674 84.6473Z" fill="black"/>
<path d="M167.122 103.341C167.564 103.332 167.992 103.489 168.322 103.782C168.652 104.075 168.858 104.482 168.9 104.921L171.341 130.573L164.31 130.753L165.41 105.006C165.427 104.562 165.614 104.142 165.933 103.832C166.251 103.522 166.677 103.346 167.122 103.341Z" fill="#99B9FF"/>
<path d="M164.31 131.505C164.209 131.506 164.108 131.485 164.015 131.445C163.921 131.406 163.837 131.348 163.766 131.275C163.696 131.202 163.641 131.115 163.605 131.02C163.569 130.926 163.553 130.825 163.557 130.723L164.657 104.976C164.686 104.347 164.952 103.753 165.4 103.311C165.849 102.869 166.447 102.611 167.077 102.589H167.122C167.742 102.594 168.338 102.827 168.796 103.243C169.254 103.659 169.541 104.23 169.603 104.845L172.044 130.503C172.054 130.605 172.043 130.709 172.011 130.807C171.98 130.905 171.928 130.996 171.86 131.073C171.791 131.15 171.708 131.212 171.614 131.256C171.52 131.299 171.419 131.323 171.316 131.325L164.285 131.505H164.31ZM167.122 104.093C166.873 104.104 166.637 104.207 166.46 104.382C166.282 104.558 166.177 104.792 166.163 105.041L165.114 129.981L170.507 129.841L168.127 104.991C168.1 104.744 167.983 104.515 167.798 104.349C167.612 104.183 167.371 104.092 167.122 104.093Z" fill="black"/>
<path d="M167.413 103.873C167.216 103.872 167.026 103.793 166.886 103.655C166.745 103.516 166.664 103.328 166.66 103.131L166.404 85.5848C166.402 85.4759 166.424 85.3679 166.468 85.2683C166.512 85.1687 166.578 85.08 166.66 85.0083L187.596 66.6301C187.67 66.5642 187.757 66.5136 187.851 66.4811C187.944 66.4486 188.044 66.4349 188.143 66.4408C188.242 66.4466 188.339 66.4718 188.428 66.515C188.517 66.5583 188.597 66.6187 188.663 66.6927C188.729 66.7668 188.78 66.8531 188.813 66.9467C188.845 67.0403 188.859 67.1394 188.853 67.2383C188.847 67.3373 188.822 67.4341 188.779 67.5232C188.735 67.6124 188.675 67.6922 188.601 67.758L167.926 85.9107L168.177 103.116C168.179 103.314 168.103 103.506 167.965 103.649C167.827 103.792 167.637 103.874 167.438 103.878L167.413 103.873Z" fill="black"/>
<path d="M185.462 194.255C185.462 194.255 192.156 204.738 198.187 202.888C201.356 201.915 204.45 191.573 205.72 191.207C209.738 190.029 217.461 188.114 222.192 179.677C226.606 171.801 225.642 167.595 224.507 165.64C224.245 165.208 224.112 164.71 224.123 164.205C224.133 163.7 224.287 163.209 224.567 162.788C225.416 161.544 226.234 159.659 225.381 157.724C225.234 157.386 225.158 157.022 225.158 156.654C225.158 156.286 225.234 155.921 225.381 155.584C226.506 152.972 228.585 146.971 224.542 145.793C224.008 145.637 223.438 145.65 222.912 145.829C222.385 146.009 221.926 146.346 221.599 146.796C220.319 148.56 217.642 151.889 214.333 153.989C209.657 156.962 206.85 159.003 204.5 160.331C202.491 161.479 201.426 151.443 196.585 147.673C192.292 144.329 190.825 146.024 190.398 147.593C189.972 149.162 192.628 149.788 194.145 157.268C195.917 166.021 194.064 173.38 193.527 177.321C192.909 181.973 185.462 194.255 185.462 194.255Z" fill="white"/>
<path d="M196.716 203.86C190.775 203.86 185.09 195.067 184.829 194.661C184.755 194.542 184.715 194.404 184.715 194.263C184.715 194.122 184.755 193.984 184.829 193.864C184.9 193.744 192.201 181.662 192.804 177.251C192.889 176.609 193.015 175.872 193.151 175.055C193.844 170.914 194.893 164.647 193.432 157.449C192.543 153.072 191.247 151.112 190.474 149.929C189.896 149.052 189.439 148.36 189.696 147.422C189.799 146.915 190.03 146.442 190.365 146.047C190.7 145.652 191.13 145.347 191.614 145.161C193.01 144.695 194.798 145.332 197.073 147.106C199.845 149.262 201.427 153.298 202.597 156.24C203.099 157.554 203.807 159.324 204.229 159.664C205.519 158.927 206.966 157.97 208.784 156.762C210.255 155.784 211.922 154.681 213.966 153.383C217.165 151.353 219.766 148.124 221.032 146.364C221.449 145.789 222.035 145.356 222.708 145.127C223.382 144.897 224.11 144.881 224.793 145.081C225.328 145.22 225.825 145.475 226.25 145.827C226.674 146.18 227.015 146.622 227.249 147.121C228.449 149.668 227.053 153.709 226.114 155.889C226.009 156.132 225.954 156.394 225.954 156.659C225.954 156.924 226.009 157.186 226.114 157.429C226.902 159.218 226.616 161.218 225.24 163.219C225.038 163.521 224.927 163.875 224.92 164.238C224.913 164.601 225.01 164.959 225.2 165.269C226.596 167.64 227.329 172.122 222.895 180.028C218.205 188.39 210.576 190.586 206.484 191.764L206.047 191.889C205.685 192.225 204.892 193.929 204.254 195.308C202.245 199.604 200.553 202.943 198.459 203.585C197.896 203.767 197.308 203.86 196.716 203.86ZM186.356 194.23C187.601 196.05 193.171 203.64 197.967 202.171C199.589 201.67 201.542 197.474 202.838 194.696C204.133 191.919 204.716 190.716 205.504 190.485L206.007 190.34C210.165 189.142 217.13 187.137 221.519 179.311C225.818 171.641 224.818 167.706 223.839 166.046C223.504 165.492 223.335 164.853 223.351 164.206C223.367 163.558 223.568 162.929 223.93 162.392C224.663 161.309 225.391 159.679 224.673 158.05C224.486 157.617 224.39 157.15 224.39 156.679C224.39 156.208 224.486 155.741 224.673 155.308C226.104 151.994 226.521 149.247 225.828 147.788C225.684 147.484 225.474 147.215 225.214 147.002C224.953 146.789 224.648 146.636 224.321 146.555C223.937 146.443 223.527 146.452 223.147 146.582C222.768 146.711 222.438 146.954 222.202 147.277C220.871 149.107 218.134 152.501 214.729 154.666C212.691 155.955 211.033 157.058 209.567 158.03C207.694 159.273 206.212 160.256 204.867 161.038C204.697 161.138 204.508 161.201 204.312 161.221C204.116 161.241 203.918 161.218 203.732 161.153C202.702 160.787 202.084 159.208 201.145 156.822C200.051 154.04 198.554 150.225 196.124 148.325C193.693 146.425 192.553 146.455 192.066 146.615C191.822 146.731 191.609 146.903 191.446 147.118C191.282 147.332 191.173 147.583 191.127 147.848C191.051 148.119 191.207 148.385 191.704 149.137C192.538 150.4 193.939 152.511 194.883 157.158C196.39 164.632 195.325 171.059 194.612 175.316C194.476 176.113 194.356 176.819 194.27 177.466C193.703 181.742 187.682 192.009 186.356 194.23Z" fill="black"/>
<path d="M207.523 198.892L187.25 185.994C187.25 185.994 159.835 230.24 139.075 245.259C128.956 252.588 109.371 243.976 109.371 243.976C109.371 243.976 90.5489 316.165 126.882 326.518C187.395 343.713 207.523 198.892 207.523 198.892Z" fill="#5479F7"/>
<path d="M268.519 311.694C258.41 311.694 245.85 308.185 231.091 301.276C213.434 292.995 198.268 282.442 190.8 276.887C190.64 276.768 190.534 276.589 190.505 276.391C190.476 276.193 190.527 275.992 190.647 275.832C190.767 275.672 190.946 275.566 191.144 275.537C191.342 275.508 191.544 275.56 191.704 275.679C215.021 293.02 250.204 312.411 272.606 309.974C272.705 309.963 272.805 309.972 272.901 310C272.997 310.028 273.086 310.074 273.163 310.136C273.241 310.198 273.306 310.275 273.354 310.362C273.401 310.449 273.432 310.545 273.443 310.644C273.454 310.742 273.445 310.842 273.417 310.938C273.389 311.033 273.343 311.122 273.281 311.2C273.218 311.277 273.141 311.342 273.054 311.389C272.967 311.437 272.871 311.467 272.772 311.478C271.359 311.625 269.939 311.697 268.519 311.694Z" fill="#CADDFF"/>
<path d="M237.81 256.048C225.175 256.048 201.844 245.144 200.759 244.633C200.665 244.593 200.58 244.535 200.509 244.463C200.439 244.39 200.383 244.303 200.347 244.208C200.31 244.114 200.294 244.012 200.297 243.911C200.301 243.809 200.326 243.71 200.369 243.618C200.412 243.526 200.474 243.444 200.55 243.377C200.626 243.309 200.715 243.258 200.812 243.226C200.908 243.194 201.01 243.181 201.112 243.19C201.213 243.198 201.312 243.227 201.402 243.274C201.688 243.409 230.363 256.81 240.974 254.218C258.852 249.851 254.613 227.006 254.568 226.776C254.54 226.584 254.586 226.39 254.697 226.232C254.809 226.074 254.977 225.965 255.167 225.927C255.357 225.89 255.554 225.927 255.718 226.031C255.881 226.135 255.998 226.297 256.044 226.485C256.095 226.731 260.564 250.974 241.335 255.682C240.179 255.941 238.995 256.064 237.81 256.048Z" fill="#CADDFF"/>
<path d="M137.297 248.112C137.18 248.112 137.065 248.086 136.96 248.033C136.855 247.981 136.764 247.905 136.695 247.811C136.575 247.651 136.523 247.451 136.552 247.253C136.58 247.056 136.685 246.878 136.845 246.758C158.705 230.45 185.793 185.703 186.059 185.252C186.163 185.081 186.33 184.958 186.524 184.91C186.718 184.862 186.923 184.893 187.094 184.996C187.265 185.099 187.388 185.266 187.436 185.459C187.484 185.653 187.453 185.858 187.35 186.029C187.079 186.48 159.835 231.478 137.744 247.966C137.614 248.061 137.458 248.112 137.297 248.112Z" fill="#CADDFF"/>
<path d="M135.545 329.39C134.761 329.39 133.983 329.355 133.2 329.29C133 329.273 132.815 329.177 132.686 329.024C132.557 328.87 132.494 328.672 132.512 328.473C132.529 328.273 132.625 328.089 132.778 327.96C132.932 327.831 133.13 327.769 133.33 327.786C144.303 328.728 154.969 322.617 165.058 309.613C173.214 299.086 180.988 284.106 188.159 265.056C199.584 234.717 205.851 203.54 206.684 199.248L198.258 193.934C198.089 193.827 197.971 193.657 197.928 193.462C197.885 193.266 197.921 193.062 198.029 192.894C198.137 192.726 198.308 192.608 198.503 192.565C198.698 192.522 198.903 192.558 199.071 192.666L207.91 198.286C208.037 198.366 208.136 198.483 208.196 198.62C208.256 198.758 208.274 198.91 208.246 199.058C208.181 199.394 201.848 232.972 189.56 265.598C182.328 284.798 174.494 299.923 166.233 310.561C156.541 323.059 146.221 329.39 135.545 329.39Z" fill="#CADDFF"/>
<path d="M45.8495 137.338C56.1177 127.654 56.8269 111.758 47.4335 101.831C38.0402 91.9048 22.1013 91.7077 11.833 101.391C1.56478 111.074 0.855555 126.971 10.2489 136.897C19.6423 146.824 35.5812 147.021 45.8495 137.338Z" fill="white"/>
<path d="M27.9867 146.034C24.6045 146.053 21.2516 145.408 18.1195 144.133C14.9874 142.859 12.1376 140.981 9.733 138.606C7.32837 136.232 5.41604 133.408 4.1053 130.295C2.79456 127.183 2.11111 123.843 2.09401 120.466C1.9534 105.793 13.8251 93.3553 28.5592 92.7436C32.8895 92.5358 37.2027 93.4186 41.1017 95.3109C45.0007 97.2031 48.3603 100.044 50.8713 103.572C50.931 103.653 50.974 103.744 50.9978 103.842C51.0216 103.939 51.0256 104.04 51.0097 104.139C50.9938 104.238 50.9582 104.333 50.9051 104.418C50.852 104.503 50.7824 104.576 50.7005 104.634C50.6185 104.692 50.5258 104.733 50.4277 104.754C50.3297 104.776 50.2284 104.777 50.1297 104.759C50.031 104.741 49.9369 104.703 49.853 104.649C49.7691 104.594 49.697 104.522 49.641 104.439C47.2748 101.117 44.1092 98.4414 40.4356 96.6603C36.762 94.8793 32.6986 94.0496 28.6195 94.2476C14.6888 94.8241 3.46498 106.58 3.60057 120.451C3.614 123.724 4.29223 126.959 5.59424 129.962C6.89625 132.965 8.79496 135.673 11.1755 137.923C13.5561 140.172 16.369 141.916 19.4442 143.049C22.5193 144.182 25.7927 144.681 29.0664 144.515C43.0021 143.938 54.2209 132.177 54.0853 118.311C54.084 118.111 54.1619 117.919 54.3021 117.776C54.4423 117.633 54.6333 117.551 54.8336 117.549C55.0321 117.55 55.2222 117.629 55.363 117.769C55.5038 117.908 55.5842 118.098 55.5868 118.296C55.7325 132.969 43.8608 145.402 29.1267 146.019C28.75 146.024 28.3633 146.034 27.9867 146.034Z" fill="black"/>
<path d="M27.0423 134.403L27.0072 130.924C24.8445 130.958 22.7015 130.509 20.7349 129.61L21.7995 125.279C23.6952 126.232 25.7995 126.698 27.9211 126.633C30.0203 126.547 31.4364 125.68 31.4364 124.216C31.4364 122.752 30.2362 121.995 27.5043 121.208C23.5572 120.05 20.8504 118.331 20.8152 114.776C20.7851 111.553 23.0399 108.931 26.972 107.999L26.9369 104.515L30.5426 104.364L30.5727 107.593C32.4062 107.548 34.2285 107.89 35.921 108.595L34.9166 112.781C33.2445 112.05 31.4277 111.707 29.6035 111.779C27.2131 111.874 26.4497 112.937 26.4598 113.959C26.4598 115.168 27.7655 115.884 30.9041 116.927C35.2983 118.286 37.086 120.226 37.1212 123.524C37.1563 126.823 34.8613 129.666 30.638 130.573L30.6731 134.308L27.0423 134.403Z" fill="#5479F7"/>
<path d="M87.0989 209.831H14.1062C13.0835 209.835 12.0727 209.612 11.1473 209.177C10.2219 208.742 9.40512 208.107 8.75635 207.318C8.10758 206.529 7.64311 205.605 7.39669 204.614C7.15026 203.623 7.12808 202.59 7.33174 201.59L18.4049 148.209C18.8655 146.025 20.0657 144.066 21.8035 142.662C23.5413 141.258 25.7106 140.494 27.9465 140.499H90.554L87.0989 209.831Z" fill="#99B9FF"/>
<path d="M87.0992 210.583H14.1064C12.9648 210.587 11.8369 210.335 10.8055 209.847C9.77398 209.358 8.8651 208.645 8.1455 207.761C7.43121 206.892 6.92104 205.875 6.65251 204.783C6.38397 203.692 6.36389 202.554 6.59375 201.454L17.6418 148.074C18.1481 145.726 19.4431 143.622 21.3119 142.11C23.1807 140.599 25.5111 139.77 27.9166 139.762H90.5542C90.6566 139.762 90.7579 139.783 90.8521 139.823C90.9462 139.863 91.0311 139.922 91.1016 139.996C91.1721 140.07 91.2267 140.158 91.2621 140.254C91.2975 140.35 91.3129 140.452 91.3075 140.554L87.8524 209.886C87.8385 210.076 87.753 210.253 87.6132 210.383C87.4734 210.512 87.2897 210.584 87.0992 210.583ZM27.9417 141.251C25.8809 141.252 23.8829 141.959 22.2815 143.254C20.6801 144.548 19.5723 146.353 19.1434 148.365L8.07018 201.74C7.88575 202.624 7.90141 203.539 8.116 204.417C8.33059 205.294 8.7387 206.113 9.31058 206.813C9.89111 207.523 10.6228 208.094 11.4524 208.486C12.282 208.878 13.1886 209.081 14.1064 209.079H86.3861L89.7859 141.251H27.9417Z" fill="black"/>
<path d="M96.4448 209.831H82.2831C81.26 209.836 80.2486 209.613 79.3226 209.179C78.3965 208.744 77.5791 208.109 76.9298 207.32C76.2805 206.531 75.8156 205.607 75.5689 204.615C75.3222 203.624 75.2999 202.59 75.5036 201.589L87.7017 142.8C87.8391 142.15 88.1966 141.566 88.7143 141.148C89.232 140.73 89.8782 140.502 90.5441 140.504H94.1849C94.911 140.503 95.6111 140.773 96.1468 141.262C96.6825 141.752 97.0146 142.424 97.0775 143.146L102.064 203.805C102.122 204.576 102.02 205.351 101.764 206.081C101.508 206.811 101.103 207.479 100.575 208.045C100.047 208.611 99.4078 209.062 98.697 209.37C97.9862 209.677 97.2194 209.834 96.4448 209.831Z" fill="#5479F7"/>
<path d="M96.4448 210.583H82.2831C81.1408 210.587 80.0121 210.335 78.9798 209.847C77.9475 209.358 77.0377 208.646 76.3171 207.761C75.6051 206.891 75.0963 205.873 74.8278 204.782C74.5594 203.691 74.5381 202.554 74.7654 201.454L86.9635 142.66C87.1373 141.84 87.5878 141.105 88.2396 140.578C88.8914 140.05 89.705 139.762 90.5441 139.762H94.1849C95.0989 139.765 95.9789 140.108 96.6524 140.725C97.3259 141.341 97.7444 142.187 97.8258 143.096L102.817 203.755C102.887 204.631 102.774 205.512 102.484 206.342C102.195 207.173 101.737 207.934 101.138 208.578C100.539 209.222 99.8124 209.735 99.0046 210.085C98.1968 210.434 97.3251 210.612 96.4448 210.608V210.583ZM90.5441 141.251C90.0516 141.252 89.5741 141.42 89.1913 141.73C88.8084 142.039 88.5432 142.47 88.4399 142.95L76.2267 201.74C76.0423 202.625 76.0584 203.54 76.2739 204.417C76.4894 205.295 76.8988 206.114 77.4722 206.813C78.052 207.524 78.7835 208.096 79.6133 208.488C80.443 208.88 81.35 209.082 82.268 209.079H96.4297C97.1077 209.084 97.7792 208.946 98.4004 208.675C99.0216 208.404 99.5787 208.005 100.035 207.505C100.49 207.018 100.838 206.441 101.056 205.811C101.273 205.182 101.357 204.514 101.301 203.85L96.3092 143.191C96.2615 142.657 96.0156 142.161 95.6197 141.799C95.2238 141.437 94.7066 141.236 94.1699 141.236L90.5441 141.251Z" fill="black"/>
<path d="M73.766 169.275H20.0321C19.8323 169.275 19.6407 169.195 19.4994 169.054C19.3582 168.913 19.2788 168.722 19.2788 168.523C19.2788 168.323 19.3582 168.132 19.4994 167.991C19.6407 167.85 19.8323 167.771 20.0321 167.771H73.766C74.4172 167.774 75.0504 167.557 75.5627 167.156C76.0751 166.754 76.4365 166.192 76.5882 165.56L81.6101 144.469C81.6273 144.368 81.6653 144.271 81.7217 144.184C81.7781 144.098 81.8516 144.024 81.9378 143.967C82.024 143.911 82.1209 143.872 82.2226 143.854C82.3243 143.837 82.4286 143.84 82.529 143.864C82.6294 143.888 82.7237 143.932 82.8062 143.994C82.8886 144.057 82.9574 144.135 83.0083 144.224C83.0592 144.314 83.091 144.413 83.1019 144.516C83.1128 144.618 83.1024 144.722 83.0715 144.82L78.0496 165.906C77.8216 166.868 77.2742 167.724 76.4963 168.336C75.7185 168.948 74.7562 169.278 73.766 169.275Z" fill="black"/>
<path d="M55.2151 168.523L54.05 174.924C53.9216 175.452 53.619 175.922 53.1909 176.257C52.7628 176.593 52.2341 176.775 51.6898 176.774H40.3705C40.0841 176.775 39.8013 176.71 39.5443 176.584C39.2873 176.458 39.0632 176.274 38.8895 176.046C38.7158 175.819 38.5972 175.555 38.5431 175.274C38.489 174.993 38.5009 174.704 38.5777 174.428L39.798 168.523H55.2151Z" fill="white"/>
<path d="M51.69 177.526H40.3707C39.972 177.524 39.5791 177.431 39.2221 177.254C38.865 177.077 38.5533 176.82 38.3109 176.504C38.0685 176.188 37.9019 175.821 37.8237 175.431C37.7455 175.04 37.7578 174.637 37.8598 174.253L39.0651 168.367C39.0998 168.199 39.1917 168.047 39.3253 167.939C39.4588 167.83 39.6259 167.771 39.7982 167.771H55.2154C55.3255 167.771 55.4343 167.796 55.5339 167.842C55.6336 167.889 55.7217 167.958 55.7921 168.042C55.8625 168.127 55.9134 168.226 55.9413 168.332C55.9692 168.439 55.9734 168.55 55.9536 168.658L54.7885 175.06C54.6306 175.762 54.2375 176.389 53.674 176.837C53.1106 177.286 52.4107 177.529 51.69 177.526ZM40.4159 169.275L39.3162 174.584V174.634C39.2708 174.795 39.264 174.965 39.2963 175.129C39.3285 175.294 39.399 175.449 39.502 175.581C39.6043 175.719 39.7376 175.83 39.8912 175.907C40.0447 175.984 40.2142 176.023 40.3858 176.022H51.7051C52.0803 176.024 52.4449 175.899 52.7402 175.668C53.0355 175.437 53.244 175.113 53.3322 174.749L54.3365 169.275H40.4159Z" fill="black"/>
<path d="M69.9646 205.224H13.5189C13.3191 205.224 13.1275 205.145 12.9863 205.004C12.845 204.863 12.7656 204.671 12.7656 204.472C12.7656 204.273 12.845 204.081 12.9863 203.94C13.1275 203.799 13.3191 203.72 13.5189 203.72H69.9646C70.1644 203.72 70.356 203.799 70.4972 203.94C70.6385 204.081 70.7179 204.273 70.7179 204.472C70.7179 204.671 70.6385 204.863 70.4972 205.004C70.356 205.145 70.1644 205.224 69.9646 205.224Z" fill="black"/>
<path d="M42.8512 137.04H37.1765C35.1929 137.04 34.8564 139.11 34.8564 140.379H45.1663C45.1663 139.11 44.8299 137.04 42.8512 137.04Z" fill="#5479F7"/>
<path d="M45.1667 141.131H34.8568C34.657 141.131 34.4654 141.051 34.3241 140.91C34.1829 140.769 34.1035 140.578 34.1035 140.379C34.1035 137.817 35.2535 136.288 37.1769 136.288H42.8516C44.775 136.288 45.9199 137.817 45.9199 140.379C45.9199 140.477 45.9005 140.575 45.8626 140.666C45.8248 140.758 45.7693 140.841 45.6993 140.91C45.6294 140.98 45.5463 141.036 45.4549 141.073C45.3636 141.111 45.2656 141.131 45.1667 141.131ZM35.6503 139.627H44.3732C44.2577 138.674 43.871 137.792 42.8667 137.792H37.192C36.1524 137.787 35.7658 138.674 35.6503 139.627Z" fill="black"/>
<path d="M80.3497 137.04H74.6901C72.4704 137.04 72.375 139.11 72.375 140.379H82.6648C82.6648 139.11 82.4288 137.04 80.3497 137.04Z" fill="#5479F7"/>
<path d="M82.6647 141.131H72.3749C72.1751 141.131 71.9835 141.051 71.8422 140.91C71.701 140.769 71.6216 140.578 71.6216 140.379C71.6216 139.376 71.6216 136.288 74.6899 136.288H80.3496C81.4946 136.288 83.4179 136.819 83.4179 140.379C83.4179 140.578 83.3386 140.769 83.1973 140.91C83.056 141.051 82.8644 141.131 82.6647 141.131ZM73.1533 139.627H81.8762C81.6854 137.792 80.7664 137.792 80.3697 137.792H74.6899C73.7157 137.787 73.2587 138.288 73.1533 139.627Z" fill="black"/>
<path d="M79.4607 136.92L80.224 132.408C80.7664 129.219 78.597 126.287 75.378 126.287H45.4879C42.2739 126.287 39.2256 129.219 38.6832 132.408L37.9199 136.92H42.2889L42.8815 133.41C43.3034 130.929 45.6737 129.265 48.1796 129.265H72.2845C75.1269 129.265 76.4727 130.929 76.0509 133.41L75.4583 136.92H79.4607Z" fill="white"/>
<path d="M79.4609 137.672H75.4435C75.3346 137.669 75.2275 137.643 75.1297 137.595C75.0319 137.547 74.9457 137.479 74.8769 137.394C74.8082 137.31 74.7586 137.212 74.7315 137.107C74.7045 137.001 74.7007 136.891 74.7203 136.784L75.3129 133.275C75.411 132.873 75.4209 132.455 75.3421 132.05C75.2632 131.644 75.0973 131.26 74.8559 130.924C74.3537 130.322 73.4598 130.007 72.2897 130.007H48.1848C45.93 130.007 43.9715 131.51 43.63 133.516L43.0374 137.025C43.0068 137.2 42.9156 137.358 42.7797 137.473C42.6439 137.587 42.472 137.651 42.2942 137.652H37.9252C37.8156 137.652 37.7073 137.628 37.6079 137.582C37.5084 137.536 37.4203 137.469 37.3495 137.385C37.2787 137.302 37.2271 137.204 37.1981 137.098C37.1692 136.993 37.1637 136.882 37.1819 136.774L37.9452 132.262C38.5679 128.608 42.023 125.515 45.478 125.515H75.3681C76.1815 125.508 76.9863 125.681 77.725 126.02C78.4638 126.36 79.1182 126.858 79.6417 127.48C80.212 128.17 80.6251 128.976 80.8523 129.842C81.0795 130.708 81.1154 131.612 80.9575 132.493L80.1941 137.005C80.1725 137.185 80.0865 137.352 79.9519 137.475C79.8172 137.597 79.643 137.667 79.4609 137.672ZM76.3524 136.168H78.8232L79.481 132.293C79.6024 131.623 79.5753 130.935 79.4018 130.276C79.2283 129.618 78.9125 129.006 78.4767 128.483C78.0947 128.028 77.6164 127.663 77.0763 127.415C76.5361 127.167 75.9476 127.042 75.3531 127.049H45.4881C42.7562 127.049 39.9239 129.62 39.4267 132.563L38.809 136.188H41.6514L42.1536 133.31C42.6156 130.588 45.2119 128.538 48.1798 128.538H72.2847C73.9118 128.538 75.2024 129.039 76.0009 129.986C76.3912 130.486 76.665 131.066 76.8023 131.684C76.9395 132.303 76.9368 132.944 76.7943 133.561L76.3524 136.168Z" fill="black"/>
<path d="M73.6205 124.783H48.6568C48.1496 124.798 47.6627 124.985 47.2758 125.313C46.889 125.641 46.6251 126.09 46.5275 126.588L46.1609 128.748C46.1148 128.97 46.1193 129.199 46.1741 129.418C46.2289 129.637 46.3325 129.842 46.4773 130.016C46.6221 130.189 46.8043 130.329 47.0103 130.422C47.2164 130.516 47.441 130.563 47.6675 130.558H72.6362C73.1432 130.541 73.6295 130.353 74.0154 130.024C74.4014 129.695 74.664 129.245 74.7604 128.748L75.127 126.588C75.1723 126.366 75.1671 126.138 75.1119 125.919C75.0568 125.701 74.953 125.497 74.8083 125.324C74.6637 125.15 74.4818 125.012 74.2761 124.918C74.0705 124.824 73.8464 124.778 73.6205 124.783Z" fill="#99B9FF"/>
<path d="M72.6362 131.31H47.6726C47.3376 131.317 47.0052 131.249 46.6996 131.112C46.3939 130.975 46.1225 130.772 45.9048 130.518C45.6877 130.258 45.5303 129.953 45.4435 129.626C45.3568 129.299 45.3428 128.956 45.4027 128.623L45.7693 126.462C45.895 125.789 46.2493 125.18 46.7725 124.737C47.2958 124.294 47.9559 124.045 48.6418 124.031H73.6054C73.9399 124.024 74.2717 124.091 74.5773 124.227C74.8828 124.363 75.1546 124.565 75.3731 124.818C75.5902 125.078 75.7477 125.383 75.8344 125.71C75.9212 126.037 75.9351 126.38 75.8753 126.713L75.5087 128.874C75.384 129.548 75.0301 130.158 74.5068 130.602C73.9835 131.046 73.3228 131.296 72.6362 131.31ZM48.6568 125.535C48.3272 125.548 48.0115 125.672 47.7603 125.885C47.5091 126.099 47.3367 126.39 47.2708 126.713L46.9042 128.874C46.8788 128.99 46.8792 129.11 46.9052 129.226C46.9312 129.342 46.9823 129.451 47.0549 129.545C47.1325 129.631 47.2281 129.699 47.3348 129.744C47.4415 129.789 47.5568 129.81 47.6726 129.806H72.6362C72.965 129.787 73.2786 129.661 73.5289 129.448C73.7792 129.234 73.9525 128.944 74.0222 128.623L74.3938 126.462C74.4185 126.346 74.4174 126.225 74.3905 126.109C74.3636 125.993 74.3116 125.884 74.2382 125.79C74.1603 125.705 74.0646 125.638 73.9578 125.594C73.8511 125.55 73.7359 125.53 73.6205 125.535H48.6568Z" fill="black"/>
<path d="M82.1472 205.224C81.98 205.225 81.8172 205.171 81.6845 205.069C81.5517 204.968 81.4566 204.825 81.414 204.664C81.3714 204.502 81.3838 204.331 81.4493 204.178C81.5147 204.024 81.6295 203.897 81.7755 203.815L91.1764 198.501V144.645C91.1764 144.445 91.2558 144.254 91.3971 144.113C91.5384 143.972 91.7299 143.893 91.9297 143.893C92.1295 143.893 92.3211 143.972 92.4624 144.113C92.6036 144.254 92.683 144.445 92.683 144.645V198.948C92.6836 199.08 92.6485 199.211 92.5814 199.325C92.5143 199.44 92.4176 199.535 92.3014 199.599L82.5188 205.114C82.4065 205.182 82.2785 205.22 82.1472 205.224Z" fill="#99B9FF"/>
<path d="M405.259 168.102H331.347C329.203 168.102 327.465 169.837 327.465 171.977V219.697C327.465 221.837 329.203 223.572 331.347 223.572H405.259C407.403 223.572 409.141 221.837 409.141 219.697V171.977C409.141 169.837 407.403 168.102 405.259 168.102Z" fill="white"/>
<path d="M405.51 224.249H395.255C395.056 224.249 394.864 224.17 394.723 224.029C394.582 223.888 394.502 223.696 394.502 223.497C394.502 223.298 394.582 223.106 394.723 222.965C394.864 222.824 395.056 222.745 395.255 222.745H405.51C406.339 222.748 407.136 222.422 407.725 221.839C408.315 221.257 408.648 220.465 408.654 219.637V171.831C408.648 171.003 408.315 170.21 407.726 169.627C407.136 169.044 406.34 168.717 405.51 168.718H334.601C334.402 168.718 334.21 168.639 334.069 168.498C333.928 168.357 333.848 168.166 333.848 167.966C333.848 167.767 333.928 167.576 334.069 167.434C334.21 167.293 334.402 167.214 334.601 167.214H405.51C406.739 167.213 407.919 167.698 408.791 168.564C409.663 169.429 410.155 170.604 410.16 171.831V219.637C410.154 220.863 409.661 222.037 408.789 222.901C407.918 223.766 406.739 224.25 405.51 224.249Z" fill="black"/>
<path d="M357.37 224.249H331.623C330.395 224.25 329.217 223.766 328.346 222.901C327.475 222.037 326.983 220.863 326.978 219.637V198.356C326.978 198.157 327.057 197.965 327.199 197.824C327.34 197.683 327.532 197.604 327.731 197.604C327.931 197.604 328.123 197.683 328.264 197.824C328.405 197.965 328.485 198.157 328.485 198.356V219.637C328.49 220.464 328.823 221.255 329.411 221.838C329.999 222.42 330.795 222.746 331.623 222.745H357.37C357.57 222.745 357.762 222.824 357.903 222.965C358.044 223.106 358.124 223.298 358.124 223.497C358.124 223.696 358.044 223.888 357.903 224.029C357.762 224.17 357.57 224.249 357.37 224.249Z" fill="black"/>
<path d="M368.569 217.08C368.369 217.08 368.178 217.001 368.037 216.86C367.895 216.719 367.816 216.528 367.816 216.328V175.887C367.816 175.688 367.895 175.496 368.037 175.355C368.178 175.214 368.369 175.135 368.569 175.135C368.769 175.135 368.961 175.214 369.102 175.355C369.243 175.496 369.322 175.688 369.322 175.887V216.328C369.322 216.528 369.243 216.719 369.102 216.86C368.961 217.001 368.769 217.08 368.569 217.08Z" fill="black"/>
<path d="M366.013 178.885L368.564 176.333L371.12 178.885V176.719L368.564 174.167L366.013 176.719V178.885Z" fill="black"/>
<path d="M399.202 200.772H336.213C336.013 200.772 335.822 200.693 335.681 200.552C335.539 200.411 335.46 200.22 335.46 200.02C335.46 199.821 335.539 199.63 335.681 199.489C335.822 199.348 336.013 199.268 336.213 199.268H399.202C399.402 199.268 399.594 199.348 399.735 199.489C399.876 199.63 399.956 199.821 399.956 200.02C399.956 200.22 399.876 200.411 399.735 200.552C399.594 200.693 399.402 200.772 399.202 200.772Z" fill="black"/>
<path d="M396.199 202.572L398.755 200.02L396.199 197.474H398.369L400.925 200.02L398.369 202.572H396.199Z" fill="black"/>
<path d="M368.715 214.288C365.088 214.296 361.606 212.867 359.033 210.316C356.46 207.764 355.006 204.298 354.99 200.677V193.052C354.975 189.83 353.681 186.745 351.39 184.475C349.099 182.206 345.999 180.936 342.772 180.945H336.213C336.013 180.945 335.822 180.866 335.681 180.725C335.539 180.584 335.46 180.393 335.46 180.193C335.46 179.994 335.539 179.803 335.681 179.662C335.822 179.521 336.013 179.441 336.213 179.441H342.772C346.399 179.433 349.881 180.862 352.454 183.414C355.027 185.965 356.481 189.432 356.497 193.052V200.677C356.561 203.868 357.877 206.907 360.161 209.141C362.444 211.375 365.515 212.627 368.712 212.627C371.91 212.627 374.98 211.375 377.264 209.141C379.548 206.907 380.863 203.868 380.928 200.677V193.052C380.944 189.432 382.398 185.965 384.971 183.414C387.544 180.862 391.026 179.433 394.653 179.441H398.494C398.694 179.441 398.886 179.521 399.027 179.662C399.168 179.803 399.248 179.994 399.248 180.193C399.248 180.393 399.168 180.584 399.027 180.725C398.886 180.866 398.694 180.945 398.494 180.945H394.653C391.425 180.936 388.325 182.206 386.035 184.475C383.744 186.745 382.449 189.83 382.434 193.052V200.677C382.418 204.297 380.965 207.762 378.393 210.314C375.821 212.865 372.341 214.294 368.715 214.288Z" fill="#5479F7"/>
<path d="M341.341 192.37H304.852C304.652 192.37 304.461 192.291 304.319 192.15C304.178 192.009 304.099 191.818 304.099 191.618V154.295C304.103 154.147 304.15 154.003 304.236 153.882C304.321 153.761 304.441 153.668 304.579 153.614C304.718 153.561 304.869 153.549 305.014 153.581C305.159 153.613 305.291 153.687 305.394 153.794L341.883 191.097C341.986 191.203 342.054 191.337 342.081 191.482C342.108 191.627 342.091 191.777 342.034 191.913C341.976 192.048 341.879 192.164 341.756 192.245C341.633 192.327 341.488 192.37 341.341 192.37ZM305.605 190.866H339.553L305.605 156.145V190.866Z" fill="#5479F7"/>
<path d="M304.852 195.032C306.754 195.032 308.297 193.504 308.297 191.618C308.297 189.733 306.754 188.204 304.852 188.204C302.949 188.204 301.407 189.733 301.407 191.618C301.407 193.504 302.949 195.032 304.852 195.032Z" fill="#5479F7"/>
<path d="M304.852 195.784C304.027 195.779 303.223 195.531 302.54 195.07C301.857 194.609 301.326 193.957 301.014 193.195C300.702 192.434 300.623 191.597 300.787 190.79C300.951 189.984 301.35 189.244 301.935 188.664C302.519 188.084 303.263 187.689 304.072 187.531C304.881 187.372 305.718 187.456 306.479 187.772C307.241 188.088 307.891 188.622 308.348 189.306C308.806 189.991 309.05 190.795 309.05 191.618C309.046 192.726 308.602 193.787 307.814 194.569C307.027 195.35 305.962 195.787 304.852 195.784ZM304.852 188.956C304.325 188.961 303.812 189.122 303.377 189.417C302.942 189.713 302.604 190.13 302.406 190.617C302.208 191.104 302.159 191.638 302.265 192.153C302.37 192.668 302.626 193.139 303 193.509C303.374 193.879 303.849 194.13 304.366 194.231C304.882 194.332 305.417 194.277 305.903 194.075C306.389 193.873 306.804 193.532 307.096 193.095C307.388 192.657 307.543 192.144 307.543 191.618C307.539 190.909 307.254 190.231 306.749 189.731C306.244 189.232 305.562 188.954 304.852 188.956Z" fill="black"/>
<path d="M341.341 195.032C343.243 195.032 344.785 193.504 344.785 191.618C344.785 189.733 343.243 188.204 341.341 188.204C339.438 188.204 337.896 189.733 337.896 191.618C337.896 193.504 339.438 195.032 341.341 195.032Z" fill="#5479F7"/>
<path d="M341.34 195.784C340.516 195.779 339.712 195.531 339.029 195.07C338.346 194.609 337.815 193.957 337.503 193.195C337.191 192.434 337.112 191.597 337.276 190.79C337.439 189.984 337.839 189.244 338.424 188.664C339.008 188.084 339.752 187.689 340.561 187.531C341.369 187.372 342.207 187.456 342.968 187.772C343.729 188.088 344.38 188.622 344.837 189.306C345.295 189.991 345.539 190.795 345.539 191.618C345.535 192.726 345.09 193.787 344.303 194.569C343.516 195.35 342.45 195.787 341.34 195.784ZM341.34 188.956C340.814 188.961 340.301 189.122 339.866 189.417C339.431 189.713 339.093 190.13 338.895 190.617C338.697 191.104 338.648 191.638 338.753 192.153C338.859 192.668 339.115 193.139 339.489 193.509C339.863 193.879 340.338 194.13 340.855 194.231C341.371 194.332 341.906 194.277 342.392 194.075C342.878 193.873 343.293 193.532 343.584 193.095C343.876 192.657 344.032 192.144 344.032 191.618C344.027 190.91 343.741 190.232 343.236 189.733C342.732 189.234 342.05 188.955 341.34 188.956Z" fill="black"/>
<path d="M308.297 154.295C308.302 154.976 308.104 155.644 307.728 156.213C307.353 156.781 306.816 157.226 306.187 157.49C305.558 157.754 304.865 157.826 304.195 157.696C303.525 157.566 302.909 157.241 302.425 156.761C301.94 156.281 301.61 155.668 301.475 155C301.34 154.333 301.407 153.64 301.667 153.01C301.927 152.38 302.368 151.842 302.935 151.463C303.502 151.084 304.169 150.881 304.852 150.881C305.302 150.879 305.749 150.966 306.166 151.137C306.584 151.307 306.963 151.558 307.283 151.875C307.603 152.192 307.857 152.569 308.031 152.985C308.205 153.4 308.295 153.845 308.297 154.295Z" fill="#5479F7"/>
<path d="M304.852 158.466C304.026 158.462 303.221 158.214 302.536 157.754C301.852 157.293 301.319 156.64 301.006 155.878C300.693 155.115 300.613 154.277 300.777 153.469C300.94 152.662 301.34 151.92 301.925 151.339C302.51 150.758 303.254 150.362 304.064 150.203C304.874 150.044 305.713 150.128 306.476 150.444C307.238 150.76 307.889 151.295 308.347 151.98C308.806 152.666 309.05 153.471 309.05 154.295C309.046 155.404 308.602 156.465 307.815 157.247C307.028 158.029 305.962 158.468 304.852 158.466ZM304.852 151.633C304.324 151.637 303.809 151.797 303.373 152.093C302.936 152.389 302.597 152.807 302.398 153.295C302.199 153.783 302.149 154.318 302.255 154.835C302.36 155.351 302.617 155.824 302.992 156.195C303.367 156.566 303.843 156.817 304.361 156.918C304.879 157.019 305.416 156.964 305.902 156.761C306.389 156.558 306.805 156.215 307.097 155.776C307.389 155.337 307.545 154.822 307.544 154.295C307.54 153.586 307.254 152.908 306.749 152.409C306.245 151.909 305.562 151.631 304.852 151.633Z" fill="black"/>
<path d="M365.189 33.0117H307.96C305.267 33.0117 303.084 35.1911 303.084 37.8795V95.2452C303.084 97.9336 305.267 100.113 307.96 100.113H365.189C367.882 100.113 370.065 97.9336 370.065 95.2452V37.8795C370.065 35.1911 367.882 33.0117 365.189 33.0117Z" fill="white"/>
<path d="M365.195 100.865H307.945C306.452 100.862 305.021 100.269 303.966 99.2143C302.911 98.1598 302.317 96.7307 302.316 95.2402V37.8795C302.317 36.3895 302.911 34.9608 303.966 33.9072C305.022 32.8536 306.453 32.2611 307.945 32.2598H365.195C366.687 32.2611 368.118 32.8536 369.174 33.9072C370.229 34.9608 370.823 36.3895 370.824 37.8795V95.2402C370.823 96.7307 370.229 98.1598 369.174 99.2143C368.119 100.269 366.688 100.862 365.195 100.865ZM307.945 33.7637C306.852 33.765 305.804 34.1991 305.032 34.9707C304.259 35.7422 303.824 36.7883 303.822 37.8795V95.2402C303.822 96.3322 304.257 97.3796 305.03 98.1523C305.803 98.9249 306.851 99.3597 307.945 99.361H365.195C366.288 99.3584 367.336 98.9232 368.109 98.1508C368.882 97.3784 369.316 96.3318 369.318 95.2402V37.8795C369.315 36.7888 368.88 35.7434 368.107 34.9721C367.334 34.2008 366.287 33.7664 365.195 33.7637H307.945Z" fill="black"/>
<path d="M311.852 77.4435C311.68 77.4434 311.513 77.3842 311.379 77.2758C311.245 77.1673 311.152 77.0163 311.116 76.8478C311.08 76.6794 311.103 76.5037 311.182 76.3503C311.26 76.1968 311.389 76.0748 311.546 76.0047C334.576 65.7177 352.223 51.2096 361.097 41.0629C361.163 40.9882 361.243 40.9272 361.332 40.8833C361.422 40.8395 361.519 40.8137 361.619 40.8074C361.718 40.8011 361.818 40.8145 361.913 40.8467C362.007 40.879 362.094 40.9294 362.169 40.9952C362.244 41.0611 362.305 41.141 362.349 41.2304C362.393 41.3198 362.419 41.417 362.425 41.5164C362.431 41.6158 362.418 41.7154 362.386 41.8097C362.353 41.9039 362.303 41.9908 362.237 42.0656C353.278 52.3325 335.415 67.0061 312.159 77.3933C312.061 77.4317 311.957 77.4488 311.852 77.4435Z" fill="#99B9FF"/>
<path d="M362.131 46.3418C362.032 46.3418 361.934 46.3221 361.843 46.2839C361.752 46.2457 361.669 46.1897 361.6 46.1192C361.531 46.0487 361.477 45.9651 361.44 45.8733C361.404 45.7816 361.386 45.6835 361.388 45.5848L361.433 41.4289L357.024 41.2935C356.925 41.2903 356.828 41.2676 356.738 41.2268C356.647 41.186 356.566 41.1278 356.499 41.0557C356.431 40.9835 356.378 40.8987 356.343 40.8062C356.309 40.7137 356.292 40.6152 356.296 40.5165C356.296 40.4173 356.317 40.3193 356.357 40.2283C356.396 40.1374 356.454 40.0555 356.526 39.9875C356.599 39.9195 356.684 39.8669 356.777 39.8329C356.871 39.7989 356.97 39.7841 357.069 39.7896L362.217 39.95C362.414 39.9552 362.601 40.0374 362.738 40.179C362.875 40.3205 362.951 40.5101 362.95 40.707L362.895 45.5998C362.893 45.6986 362.872 45.7961 362.833 45.8868C362.794 45.9776 362.738 46.0597 362.667 46.1286C362.596 46.1975 362.512 46.2518 362.42 46.2884C362.328 46.325 362.23 46.3431 362.131 46.3418Z" fill="#99B9FF"/>
<path d="M317.1 84.146H312.601C311.899 84.146 311.33 84.7138 311.33 85.4143V91.8011C311.33 92.5016 311.899 93.0694 312.601 93.0694H317.1C317.802 93.0694 318.371 92.5016 318.371 91.8011V85.4143C318.371 84.7138 317.802 84.146 317.1 84.146Z" fill="#CADDFF"/>
<path d="M331.769 76.2452H327.27C326.568 76.2452 325.999 76.8131 325.999 77.5136V91.8011C325.999 92.5016 326.568 93.0694 327.27 93.0694H331.769C332.471 93.0694 333.04 92.5016 333.04 91.8011V77.5136C333.04 76.8131 332.471 76.2452 331.769 76.2452Z" fill="#CADDFF"/>
<path d="M346.433 67.7831H341.933C341.231 67.7831 340.663 68.3509 340.663 69.0514V91.8012C340.663 92.5016 341.231 93.0695 341.933 93.0695H346.433C347.134 93.0695 347.703 92.5016 347.703 91.8012V69.0514C347.703 68.3509 347.134 67.7831 346.433 67.7831Z" fill="#CADDFF"/>
<path d="M361.097 56.8494H356.597C355.896 56.8494 355.327 57.4172 355.327 58.1177V91.8012C355.327 92.5016 355.896 93.0695 356.597 93.0695H361.097C361.798 93.0695 362.367 92.5016 362.367 91.8012V58.1177C362.367 57.4172 361.798 56.8494 361.097 56.8494Z" fill="#99B9FF"/>
<path d="M332.552 28.4246C332.529 28.2552 332.447 28.099 332.322 27.9822C332.197 27.8654 332.035 27.7951 331.864 27.7829L326.772 27.3669C326.627 27.3565 326.487 27.3034 326.372 27.2142C326.257 27.125 326.171 27.0036 326.124 26.8655C325.795 25.9325 325.406 25.0216 324.959 24.1384C324.895 24.0098 324.868 23.8654 324.884 23.7223C324.899 23.5793 324.955 23.4435 325.045 23.3313L328.279 19.4059C328.385 19.2736 328.442 19.1092 328.442 18.9397C328.442 18.7703 328.385 18.6059 328.279 18.4735L325.517 14.9643C325.411 14.8303 325.264 14.7361 325.097 14.6969C324.931 14.6577 324.757 14.676 324.603 14.7487L319.978 16.9194C319.847 16.9831 319.7 17.0066 319.557 16.9869C319.413 16.9673 319.278 16.9054 319.169 16.8091C318.413 16.1691 317.618 15.5764 316.789 15.0345C316.667 14.9566 316.57 14.845 316.51 14.7133C316.451 14.5816 316.43 14.4354 316.452 14.2925L317.276 9.27935C317.303 9.11103 317.272 8.93848 317.188 8.79001C317.104 8.64154 316.972 8.52595 316.814 8.4622L312.661 6.80284C312.502 6.73935 312.326 6.73155 312.161 6.78071C311.997 6.82987 311.855 6.9331 311.757 7.07355L308.854 11.2395C308.77 11.3575 308.654 11.449 308.52 11.5032C308.385 11.5574 308.238 11.572 308.096 11.5453C307.119 11.3649 306.131 11.2477 305.138 11.1944C304.99 11.186 304.847 11.1339 304.728 11.0447C304.609 10.9554 304.519 10.8331 304.47 10.6931L302.657 5.95061C302.596 5.79212 302.482 5.65895 302.336 5.57256C302.189 5.48617 302.017 5.45158 301.849 5.47436L297.414 6.09598C297.246 6.12034 297.09 6.20101 296.974 6.32483C296.857 6.44866 296.786 6.60832 296.772 6.77778L296.355 11.8361C296.342 11.9799 296.287 12.1168 296.198 12.2306C296.109 12.3444 295.989 12.4302 295.853 12.4777C294.914 12.8041 293.996 13.1892 293.106 13.6308C292.976 13.6957 292.831 13.7222 292.686 13.7071C292.542 13.692 292.405 13.6359 292.292 13.5456L288.34 10.3421C288.205 10.2364 288.039 10.179 287.868 10.179C287.697 10.179 287.53 10.2364 287.396 10.3421L283.881 13.0793C283.746 13.1845 283.652 13.3321 283.613 13.4978C283.573 13.6636 283.592 13.8377 283.665 13.9917L285.854 18.5788C285.915 18.7089 285.937 18.8538 285.917 18.9961C285.898 19.1383 285.837 19.2719 285.744 19.3809C285.098 20.1302 284.499 20.9188 283.951 21.7421C283.871 21.8634 283.758 21.9591 283.626 22.0178C283.493 22.0765 283.346 22.0956 283.203 22.0729L278.181 21.2608C278.012 21.233 277.839 21.263 277.689 21.3458C277.54 21.4286 277.423 21.5594 277.357 21.717L275.685 25.8378C275.621 25.9958 275.613 26.171 275.662 26.3343C275.711 26.4975 275.815 26.639 275.956 26.7352L280.154 29.6178C280.274 29.6981 280.366 29.812 280.421 29.9449C280.475 30.0778 280.489 30.2239 280.461 30.3647C280.282 31.3374 280.165 32.3202 280.109 33.3075C280.099 33.4539 280.046 33.5941 279.956 33.7108C279.867 33.8275 279.746 33.9156 279.607 33.9642L274.826 35.7639C274.663 35.8192 274.523 35.9293 274.432 36.0755C274.34 36.2217 274.302 36.395 274.324 36.566L274.952 40.9676C274.977 41.1363 275.059 41.2914 275.184 41.4079C275.309 41.5244 275.469 41.5953 275.64 41.6093L280.732 42.0203C280.877 42.0325 281.015 42.0864 281.13 42.1753C281.245 42.2643 281.332 42.3846 281.38 42.5217C281.707 43.4539 282.096 44.3633 282.545 45.2438C282.61 45.3725 282.636 45.5175 282.62 45.6608C282.604 45.8042 282.546 45.9397 282.454 46.0509L279.225 49.9762C279.119 50.1094 279.061 50.2747 279.061 50.445C279.061 50.6153 279.119 50.7805 279.225 50.9137L281.982 54.4229C282.089 54.5565 282.238 54.6504 282.404 54.6895C282.571 54.7286 282.746 54.7106 282.901 54.6385L287.526 52.4678C287.658 52.4073 287.804 52.3856 287.947 52.4051C288.09 52.4246 288.225 52.4846 288.335 52.5781C289.091 53.2181 289.886 53.8107 290.715 54.3527C290.837 54.4304 290.934 54.5421 290.993 54.674C291.052 54.8059 291.07 54.9522 291.047 55.0947L290.228 60.1078C290.201 60.2755 290.232 60.4473 290.316 60.5949C290.4 60.7425 290.532 60.8572 290.69 60.92L294.843 62.5793C295.001 62.643 295.176 62.6513 295.339 62.6031C295.502 62.5548 295.644 62.4528 295.742 62.3136L298.65 58.1427C298.734 58.0252 298.85 57.934 298.984 57.8798C299.119 57.8257 299.266 57.8108 299.408 57.8369C300.385 58.0173 301.373 58.1345 302.366 58.1878C302.514 58.1975 302.656 58.2501 302.775 58.3391C302.893 58.4282 302.983 58.5498 303.034 58.6891L304.842 63.4316C304.904 63.5905 305.018 63.7238 305.166 63.8101C305.314 63.8965 305.486 63.9309 305.655 63.9078L310.085 63.2862C310.26 63.2665 310.422 63.1858 310.543 63.0583C310.664 62.9309 310.737 62.7648 310.747 62.5894L311.164 57.5311C311.177 57.3873 311.232 57.2503 311.321 57.1365C311.41 57.0227 311.53 56.9369 311.666 56.8894C312.605 56.5661 313.521 56.1809 314.408 55.7364C314.539 55.6716 314.685 55.6452 314.83 55.6603C314.975 55.6754 315.113 55.7314 315.227 55.8216L319.179 59.025C319.313 59.1324 319.479 59.191 319.651 59.191C319.823 59.191 319.989 59.1324 320.123 59.025L323.639 56.2878C323.773 56.184 323.868 56.0373 323.907 55.8722C323.946 55.7071 323.928 55.5335 323.854 55.3804L321.665 50.7934C321.604 50.6625 321.582 50.5167 321.601 50.3736C321.621 50.2305 321.681 50.096 321.775 49.9863C322.422 49.2378 323.021 48.4492 323.568 47.6251C323.648 47.5038 323.761 47.408 323.893 47.3493C324.026 47.2906 324.173 47.2715 324.316 47.2942L329.363 48.1113C329.533 48.1388 329.706 48.1081 329.856 48.0243C330.005 47.9406 330.122 47.8087 330.187 47.6501L331.839 43.5393C331.903 43.3813 331.912 43.2061 331.862 43.0429C331.813 42.8797 331.709 42.7382 331.568 42.642L327.37 39.7644C327.251 39.6821 327.159 39.5674 327.103 39.4341C327.048 39.3008 327.033 39.1544 327.058 39.0124C327.241 38.0419 327.36 37.0606 327.415 36.0747C327.424 35.9274 327.477 35.7861 327.566 35.6684C327.656 35.5507 327.778 35.4619 327.917 35.413L332.698 33.6133C332.862 33.5579 333.001 33.4479 333.092 33.3017C333.184 33.1555 333.222 32.9822 333.2 32.8112L332.552 28.4246ZM303.757 49.5551C300.82 49.5353 297.955 48.6479 295.523 47.0049C293.091 45.3618 291.201 43.0366 290.091 40.3226C288.981 37.6085 288.701 34.6271 289.286 31.7542C289.871 28.8814 291.295 26.2459 293.378 24.1799C295.462 22.114 298.112 20.7101 300.993 20.1455C303.875 19.5808 306.86 19.8805 309.571 21.0069C312.282 22.1333 314.598 24.0359 316.228 26.4748C317.857 28.9136 318.727 31.7796 318.727 34.7111C318.721 36.6671 318.328 38.6026 317.572 40.4071C316.816 42.2116 315.712 43.8498 314.322 45.2282C312.932 46.6066 311.283 47.6982 309.47 48.4406C307.658 49.183 305.716 49.5617 303.757 49.5551Z" fill="white"/>
<path d="M305.545 64.6599C305.24 64.6596 304.942 64.5669 304.691 64.3942C304.44 64.2214 304.247 63.9767 304.138 63.6923L302.325 58.9498C301.301 58.8982 300.281 58.7793 299.272 58.5939L296.365 62.7548C296.17 63.0352 295.885 63.241 295.557 63.3385C295.23 63.436 294.879 63.4193 294.562 63.2913L290.409 61.6319C290.093 61.5046 289.829 61.2742 289.662 60.9783C289.494 60.6824 289.431 60.3385 289.485 60.0026L290.303 54.9894C289.444 54.437 288.624 53.8273 287.847 53.1647L283.222 55.3354C282.913 55.4821 282.563 55.5193 282.23 55.4409C281.897 55.3626 281.6 55.1733 281.389 54.9042L278.632 51.395C278.42 51.1287 278.304 50.7981 278.304 50.4575C278.304 50.1169 278.42 49.7864 278.632 49.5201L281.866 45.5948C281.402 44.689 280.999 43.7527 280.661 42.7924L275.594 42.3864C275.253 42.3603 274.931 42.219 274.681 41.9857C274.43 41.7524 274.267 41.4411 274.218 41.103L273.585 36.7064C273.537 36.3679 273.606 36.023 273.78 35.7286C273.954 35.4343 274.224 35.208 274.545 35.0872L279.325 33.2925C279.379 32.2746 279.5 31.2615 279.687 30.2595L275.494 27.3819C275.213 27.1883 275.007 26.9053 274.908 26.5793C274.81 26.2532 274.825 25.9035 274.951 25.5872L276.624 21.4664C276.752 21.1501 276.985 20.887 277.284 20.7203C277.582 20.5535 277.928 20.4931 278.266 20.549L283.288 21.3611C283.853 20.5103 284.47 19.695 285.136 18.9197L282.951 14.3427C282.806 14.0346 282.769 13.6864 282.847 13.3549C282.926 13.0234 283.115 12.7283 283.383 12.5179L286.898 9.78071C287.165 9.56839 287.496 9.45278 287.837 9.45278C288.179 9.45278 288.51 9.56839 288.777 9.78071L292.734 12.9891C293.652 12.5287 294.6 12.1284 295.571 11.791L295.988 6.74273C296.017 6.40234 296.161 6.08186 296.396 5.83402C296.632 5.58618 296.945 5.42576 297.284 5.37914L301.713 4.75751C302.051 4.7089 302.396 4.77673 302.691 4.94983C302.986 5.12294 303.213 5.39102 303.335 5.71001L305.143 10.4525C306.169 10.5066 307.19 10.6255 308.201 10.8084L311.109 6.64748C311.304 6.36714 311.588 6.16132 311.916 6.06384C312.244 5.96636 312.595 5.98301 312.912 6.11106L317.06 7.77042C317.377 7.89705 317.642 8.12787 317.811 8.42489C317.98 8.72192 318.043 9.06748 317.989 9.40472L317.165 14.4179C318.025 14.9703 318.848 15.58 319.626 16.2427L324.251 14.072C324.56 13.9266 324.908 13.89 325.24 13.9684C325.573 14.0467 325.868 14.2352 326.079 14.5031L328.841 18.0123C329.054 18.2787 329.169 18.6092 329.169 18.9498C329.169 19.2904 329.054 19.6209 328.841 19.8873L325.607 23.8126C326.073 24.7196 326.475 25.6576 326.812 26.6199L331.904 27.031C332.245 27.0582 332.566 27.1999 332.815 27.4331C333.064 27.6663 333.226 27.977 333.275 28.3144L333.903 32.7109C333.95 33.0487 333.881 33.3924 333.707 33.6857C333.532 33.9791 333.263 34.2045 332.944 34.3252L328.163 36.1249C328.108 37.1343 327.988 38.1391 327.801 39.1328L331.995 42.0104C332.276 42.2043 332.484 42.4881 332.582 42.8152C332.681 43.1424 332.665 43.4932 332.537 43.8101L330.865 47.9259C330.737 48.2431 330.504 48.5073 330.206 48.675C329.907 48.8427 329.561 48.9038 329.223 48.8483L324.196 48.0512C323.63 48.902 323.013 49.7174 322.348 50.4926L324.532 55.0697C324.679 55.3783 324.716 55.7276 324.638 56.0602C324.559 56.3928 324.37 56.6888 324.1 56.8995L320.585 59.6367C320.318 59.8502 319.986 59.9666 319.643 59.9666C319.301 59.9666 318.969 59.8502 318.702 59.6367L314.765 56.4182C313.844 56.874 312.897 57.2725 311.927 57.6113L311.51 62.6596C311.482 63 311.338 63.3205 311.102 63.5683C310.867 63.8161 310.554 63.9766 310.215 64.0232L305.786 64.6448C305.706 64.656 305.625 64.6611 305.545 64.6599ZM299.267 57.0749C299.36 57.0733 299.452 57.0817 299.543 57.1C300.491 57.273 301.449 57.3869 302.411 57.4409C302.701 57.456 302.98 57.5544 303.215 57.7243C303.451 57.8942 303.632 58.1283 303.737 58.3984L305.55 63.1409L309.984 62.5192L310.401 57.466C310.426 57.1775 310.534 56.9024 310.712 56.6739C310.891 56.4453 311.131 56.273 311.405 56.1776C312.315 55.8604 313.204 55.4871 314.067 55.0596C314.325 54.9303 314.616 54.8781 314.903 54.9092C315.191 54.9403 315.464 55.0534 315.689 55.2351L319.641 58.4385L323.156 55.7013L320.962 51.1193C320.839 50.8564 320.795 50.5636 320.835 50.2763C320.875 49.989 320.998 49.7194 321.188 49.5C321.812 48.7745 322.39 48.011 322.92 47.214C323.081 46.9707 323.308 46.779 323.576 46.6625C323.843 46.5459 324.139 46.5093 324.427 46.5573L329.449 47.3694L331.126 43.2536L326.928 40.3761C326.69 40.2114 326.505 39.9821 326.395 39.7154C326.284 39.4488 326.253 39.156 326.305 38.8721C326.478 37.9327 326.592 36.9833 326.646 36.0296C326.663 35.74 326.764 35.4614 326.936 35.2274C327.108 34.9935 327.344 34.8142 327.616 34.7112L332.396 32.9115L331.769 28.5199L326.671 28.1088C326.382 28.0844 326.105 27.9768 325.875 27.7989C325.645 27.6209 325.472 27.3804 325.376 27.1062C325.076 26.2119 324.719 25.3378 324.306 24.4893C324.177 24.2311 324.124 23.9411 324.155 23.6539C324.187 23.3668 324.3 23.0946 324.482 22.8701L327.716 18.9448L324.959 15.4356L320.289 17.6163C320.026 17.7402 319.734 17.7858 319.446 17.7475C319.158 17.7093 318.887 17.5888 318.667 17.4007C317.936 16.7779 317.166 16.2019 316.362 15.6762C316.117 15.5167 315.924 15.2896 315.806 15.0226C315.689 14.7555 315.651 14.4601 315.699 14.1722L316.522 9.15907L312.374 7.50472L309.462 11.6757C309.296 11.9117 309.066 12.0954 308.799 12.2047C308.532 12.314 308.239 12.3444 307.955 12.2923C307.008 12.1149 306.05 12.001 305.088 11.9514C304.797 11.9359 304.517 11.8367 304.282 11.6659C304.047 11.4951 303.866 11.26 303.762 10.9889L301.949 6.24642L297.515 6.86806L297.113 11.9564C297.088 12.2458 296.981 12.5219 296.802 12.7514C296.624 12.9809 296.383 13.154 296.108 13.2498C295.198 13.5631 294.309 13.9349 293.447 14.3627C293.188 14.4921 292.898 14.5443 292.61 14.5132C292.322 14.4821 292.05 14.3689 291.825 14.1873L287.868 10.9538L284.352 13.691L286.542 18.273C286.665 18.5355 286.71 18.8279 286.671 19.1152C286.632 19.4025 286.51 19.6723 286.321 19.8923C285.697 20.6178 285.118 21.3813 284.588 22.1783C284.428 22.4216 284.2 22.6133 283.933 22.7298C283.665 22.8464 283.37 22.883 283.082 22.835L278.06 22.0229L276.383 26.1387L280.581 29.0162C280.818 29.1809 281.003 29.4102 281.114 29.6769C281.224 29.9435 281.255 30.2363 281.204 30.5202C281.026 31.4592 280.911 32.4087 280.857 33.3626C280.841 33.6517 280.741 33.93 280.57 34.1638C280.399 34.3977 280.164 34.5773 279.893 34.6811L275.092 36.5209L275.715 40.9125L280.812 41.3236C281.102 41.348 281.378 41.4556 281.608 41.6336C281.838 41.8115 282.012 42.052 282.107 42.3262C282.429 43.227 282.804 44.1076 283.232 44.9631C283.362 45.2214 283.414 45.5114 283.383 45.7985C283.352 46.0857 283.239 46.3578 283.057 46.5824L279.828 50.5077L282.585 54.0169L287.215 51.8462C287.477 51.724 287.769 51.6798 288.056 51.719C288.343 51.7581 288.612 51.8788 288.832 52.0668C289.565 52.6856 290.335 53.2598 291.137 53.7863C291.382 53.9451 291.576 54.1719 291.695 54.439C291.814 54.7061 291.852 55.0019 291.805 55.2902L290.981 60.3034L295.129 61.9577L298.042 57.7918C298.171 57.581 298.351 57.4052 298.565 57.2802C298.778 57.1551 299.02 57.0846 299.267 57.0749ZM303.757 50.3072C300.671 50.2873 297.661 49.3559 295.105 47.6302C292.549 45.9045 290.562 43.4618 289.395 40.6104C288.228 37.7589 287.933 34.6263 288.547 31.6076C289.161 28.5889 290.657 25.8193 292.845 23.6482C295.034 21.4771 297.818 20.0017 300.846 19.408C303.874 18.8143 307.01 19.1289 309.859 20.3122C312.708 21.4955 315.142 23.4945 316.854 26.057C318.566 28.6196 319.48 31.6309 319.48 34.7112C319.462 38.8592 317.796 42.8304 314.848 45.7541C311.901 48.6778 307.912 50.3152 303.757 50.3072ZM303.757 20.6192C300.969 20.639 298.25 21.4823 295.942 23.0427C293.633 24.6031 291.84 26.8109 290.787 29.3875C289.734 31.9642 289.468 34.7944 290.024 37.5214C290.58 40.2483 291.933 42.7499 293.911 44.7107C295.889 46.6714 298.404 48.0036 301.14 48.5393C303.875 49.075 306.709 48.7901 309.282 47.7206C311.856 46.6512 314.055 44.845 315.601 42.5298C317.148 40.2146 317.974 37.494 317.974 34.7112C317.956 30.9617 316.45 27.3722 313.784 24.7303C311.119 22.0883 307.513 20.6098 303.757 20.6192Z" fill="black"/>
<path d="M159.394 4.43667C173.194 13.9266 174.765 35.9194 163.763 55.3905V55.4206C162.949 57.1752 171.632 68.7205 171.632 68.7205C171.632 68.7205 157.997 63.968 156.531 65.6525C142.159 82.1959 121.378 88.1766 107.819 78.8321C92.7987 68.52 92.2362 43.5394 106.488 22.9854C120.74 2.43141 144.423 -5.87541 159.394 4.43667Z" fill="white"/>
<path d="M117.104 85.65C111.657 85.7311 106.316 84.1461 101.798 81.108C91.1114 73.7587 87.2044 59.0501 91.5935 42.7473C91.6192 42.6518 91.6635 42.5624 91.7238 42.484C91.7842 42.4056 91.8594 42.3399 91.9452 42.2905C92.031 42.2412 92.1257 42.2092 92.2239 42.1964C92.3221 42.1836 92.4219 42.1902 92.5175 42.2159C92.6131 42.2416 92.7027 42.2858 92.7812 42.346C92.8597 42.4063 92.9256 42.4814 92.975 42.567C93.0244 42.6527 93.0565 42.7472 93.0693 42.8452C93.0821 42.9433 93.0755 43.0429 93.0498 43.1383C88.8264 58.8195 92.5074 72.8914 102.652 79.8698C108.994 84.2312 117.32 85.299 126.094 82.8777C134.867 80.4563 143.484 74.7563 150.384 66.8355C151.745 65.2714 158.761 67.1865 164.034 68.921C163.235 67.8081 162.196 66.3392 161.186 64.8203C156.812 58.258 157.259 57.3005 157.5 56.7992L157.546 56.7089C168.473 37.3732 166.695 15.8917 153.402 6.75274C146.754 2.18073 138.016 1.23826 128.795 4.08072C119.575 6.92319 110.661 13.34 103.766 22.1281C103.705 22.2058 103.629 22.2707 103.543 22.319C103.456 22.3674 103.361 22.3982 103.263 22.4099C103.164 22.4215 103.065 22.4137 102.969 22.3868C102.874 22.36 102.785 22.3147 102.707 22.2535C102.629 22.1922 102.564 22.1163 102.516 22.03C102.467 21.9437 102.436 21.8487 102.425 21.7505C102.413 21.6523 102.421 21.5527 102.448 21.4575C102.475 21.3623 102.52 21.2734 102.581 21.1957C109.662 12.197 118.812 5.61977 128.348 2.67202C138.016 -0.335876 147.216 0.696837 154.251 5.53956C168.182 15.1147 170.16 37.4183 158.876 57.4359C158.766 58.6641 162.808 64.8804 166.65 69.9688L168.157 71.944L165.822 71.1268C159.695 68.9912 152.488 67.1664 151.519 67.8582C144.443 76.0046 135.555 81.8951 126.51 84.3716C123.447 85.2173 120.283 85.6473 117.104 85.65Z" fill="black"/>
<path d="M118.219 54.0319L114.348 57.2053C114.084 57.4175 113.749 57.5208 113.412 57.4937C113.075 57.4667 112.761 57.3114 112.535 57.0599L89.5445 31.4927C89.4268 31.3635 89.3365 31.2117 89.2791 31.0467C89.2218 30.8817 89.1985 30.7067 89.2107 30.5324C89.2229 30.3582 89.2703 30.1882 89.3501 30.0327C89.43 29.8772 89.5405 29.7395 89.6751 29.6278L95.5507 24.8102C95.6872 24.6996 95.8446 24.6174 96.0134 24.5685C96.1823 24.5197 96.3593 24.5051 96.5339 24.5256C96.7085 24.5462 96.8773 24.6015 97.0301 24.6883C97.183 24.775 97.3168 24.8915 97.4238 25.0308L118.41 52.2422C118.616 52.5074 118.711 52.8418 118.676 53.1754C118.64 53.5091 118.477 53.816 118.219 54.0319Z" fill="#5479F7"/>
<path d="M124.862 67.8281C126.635 66.5065 126.911 63.8811 125.478 61.9641C124.044 60.0471 121.444 59.5645 119.671 60.8861C117.897 62.2078 117.622 64.8332 119.055 66.7502C120.488 68.6671 123.088 69.1497 124.862 67.8281Z" fill="#5479F7"/>
<path d="M134.505 45.8605L133.682 44.176C131.854 40.7219 131.507 36.3204 133.28 31.0315C134.897 26.3392 135.55 23.0957 134.36 20.0878C133.014 16.6788 129.966 15.8115 125.712 17.3556C123.297 18.273 121.192 20.6292 120.037 22.5392L116.482 17.8268C118.064 15.3804 121.469 12.8538 125.019 11.5002C132.733 8.56249 138.076 11.9765 140.085 17.0548C141.877 21.5967 140.622 25.8429 138.905 30.8761C137.323 35.4782 137.398 38.827 138.96 42.1557L139.713 43.8702L134.505 45.8605ZM136.72 55.7765C135.746 53.305 136.72 50.9288 139.085 50.0364C141.451 49.1441 143.731 50.262 144.705 52.7385C145.629 55.0746 144.8 57.4659 142.319 58.4134C139.969 59.3058 137.644 58.1176 136.72 55.7765Z" fill="#5479F7"/>
<path d="M377.362 322.337C372.757 322.512 365.25 324.126 364.19 322.913C363.13 321.7 369.523 314.446 370.297 309.067C371.07 303.688 369.378 293.696 353.433 295.476C340.376 296.93 312.701 311.373 311.822 341.482C310.019 403.184 379.532 378.83 384.282 342.675C386.437 326.367 381.962 322.161 377.362 322.337ZM359.615 338.519C357.606 342.374 354.232 344.595 352.027 343.477C349.822 342.359 349.647 338.329 351.635 334.453C353.624 330.578 357.019 328.378 359.223 329.495C361.428 330.613 361.604 334.664 359.615 338.519Z" fill="white"/>
<path d="M339.558 380.023C338.574 380.023 337.608 379.981 336.66 379.898C319.732 378.394 310.411 364.357 311.079 341.457C311.953 311.653 339.046 296.338 353.358 294.729C360.057 293.987 364.989 295.195 368.022 298.323C371.623 302.033 371.336 307.147 371.035 309.177C370.593 312.22 368.524 315.724 366.837 318.537C365.958 320.041 364.873 321.845 364.828 322.462C365.606 322.858 369.348 322.412 371.833 322.111C373.129 321.961 374.465 321.795 375.69 321.695C375.89 321.678 376.088 321.74 376.242 321.869C376.396 321.998 376.491 322.182 376.509 322.382C376.526 322.581 376.463 322.779 376.334 322.932C376.205 323.086 376.021 323.182 375.821 323.199C374.621 323.304 373.31 323.465 372.014 323.615C367.264 324.186 364.532 324.457 363.623 323.414C362.779 322.447 363.763 320.787 365.551 317.78C367.158 315.077 369.157 311.719 369.569 308.971C369.825 307.167 370.071 302.615 366.957 299.381C364.265 296.604 359.751 295.546 353.544 296.233C339.683 297.772 313.444 312.631 312.601 341.512C311.958 363.52 320.781 376.97 336.806 378.409C346.101 379.246 357.099 375.762 366.229 369.099C375.745 362.151 382.033 352.701 383.479 343.166C383.509 342.967 383.617 342.787 383.78 342.668C383.942 342.548 384.146 342.497 384.345 342.527C384.545 342.557 384.725 342.665 384.845 342.827C384.965 342.989 385.016 343.192 384.986 343.392C383.479 353.318 376.976 363.129 367.133 370.313C358.616 376.499 348.532 380.023 339.558 380.023ZM353.283 344.52C352.729 344.524 352.181 344.396 351.686 344.149C351.231 343.902 350.831 343.567 350.508 343.163C350.186 342.759 349.947 342.295 349.808 341.798C349.13 339.712 349.567 336.845 350.968 334.128C353.177 329.841 356.954 327.52 359.565 328.849C360.025 329.091 360.43 329.424 360.757 329.827C361.084 330.23 361.326 330.696 361.468 331.195C362.146 333.28 361.714 336.148 360.313 338.865C358.495 342.324 355.678 344.52 353.283 344.52ZM357.953 329.982C356.165 329.982 353.79 331.942 352.303 334.824C351.103 337.155 350.691 339.652 351.239 341.341C351.318 341.65 351.459 341.939 351.653 342.191C351.848 342.444 352.091 342.654 352.369 342.81C354.167 343.723 357.18 341.607 358.947 338.183C360.148 335.847 360.559 333.35 360.012 331.666C359.933 331.358 359.791 331.069 359.597 330.816C359.403 330.564 359.16 330.353 358.882 330.197C358.595 330.05 358.276 329.975 357.953 329.977V329.982Z" fill="black"/>
<path d="M358.244 316.336C361.295 316.336 363.768 313.883 363.768 310.857C363.768 307.83 361.295 305.377 358.244 305.377C355.193 305.377 352.72 307.83 352.72 310.857C352.72 313.883 355.193 316.336 358.244 316.336Z" fill="#5479F7"/>
<path d="M340.944 318.106C343.995 318.106 346.468 315.652 346.468 312.626C346.468 309.6 343.995 307.147 340.944 307.147C337.893 307.147 335.42 309.6 335.42 312.626C335.42 315.652 337.893 318.106 340.944 318.106Z" fill="#99B9FF"/>
<path d="M327.38 330.498C330.431 330.498 332.904 328.045 332.904 325.019C332.904 321.993 330.431 319.539 327.38 319.539C324.329 319.539 321.856 321.993 321.856 325.019C321.856 328.045 324.329 330.498 327.38 330.498Z" fill="#CADDFF"/>
<path d="M323.061 347.924C321.827 347.919 320.623 347.549 319.6 346.862C318.577 346.174 317.78 345.199 317.312 344.06C316.843 342.921 316.723 341.669 316.967 340.462C317.21 339.254 317.807 338.146 318.681 337.277C319.555 336.409 320.667 335.818 321.877 335.579C323.088 335.341 324.341 335.466 325.48 335.938C326.62 336.41 327.593 337.209 328.278 338.233C328.963 339.257 329.328 340.461 329.328 341.692C329.321 343.347 328.658 344.932 327.484 346.1C326.309 347.268 324.719 347.924 323.061 347.924ZM323.061 336.965C322.126 336.972 321.214 337.255 320.44 337.779C319.665 338.302 319.064 339.043 318.711 339.908C318.358 340.772 318.269 341.721 318.456 342.636C318.642 343.551 319.096 344.39 319.76 345.048C320.423 345.705 321.267 346.152 322.185 346.331C323.103 346.511 324.053 346.415 324.916 346.057C325.78 345.698 326.517 345.092 327.036 344.315C327.555 343.539 327.832 342.626 327.832 341.692C327.825 340.435 327.319 339.231 326.425 338.345C325.531 337.459 324.321 336.962 323.061 336.965Z" fill="#CADDFF"/>
<path d="M379.396 328.312L384.835 335.12L341.381 366.081L333.175 369.175C333.175 369.175 338.041 362.286 338.357 362.016L379.396 328.312Z" fill="white"/>
<path d="M333.165 369.927C333.027 369.926 332.893 369.887 332.776 369.816C332.659 369.744 332.563 369.642 332.5 369.52C332.437 369.398 332.409 369.261 332.418 369.124C332.427 368.988 332.473 368.856 332.552 368.743C335.816 364.116 337.599 361.66 337.86 361.439L378.914 327.731C378.991 327.666 379.08 327.618 379.176 327.589C379.272 327.559 379.372 327.549 379.472 327.56C379.572 327.57 379.669 327.6 379.757 327.648C379.844 327.697 379.922 327.762 379.984 327.841L385.422 334.649C385.486 334.729 385.533 334.822 385.56 334.921C385.587 335.02 385.593 335.124 385.578 335.225C385.564 335.325 385.529 335.421 385.477 335.508C385.424 335.594 385.354 335.668 385.272 335.727L341.807 366.688C341.754 366.725 341.697 366.755 341.637 366.778L333.431 369.896C333.345 369.921 333.255 369.931 333.165 369.927ZM338.87 362.567C338.563 362.918 336.811 365.355 335.214 367.58L341.019 365.385L383.76 334.945L379.291 329.35L338.87 362.567Z" fill="black"/>
<path d="M379.391 328.312L384.83 335.12L375.203 341.978L370.221 335.842L379.391 328.312Z" fill="#99B9FF"/>
<path d="M375.208 342.73C375.095 342.73 374.984 342.705 374.882 342.657C374.78 342.608 374.691 342.537 374.62 342.449L369.639 336.308C369.576 336.232 369.529 336.145 369.501 336.051C369.472 335.957 369.463 335.858 369.472 335.76C369.482 335.662 369.511 335.567 369.558 335.481C369.605 335.394 369.668 335.318 369.744 335.256L378.914 327.736C378.991 327.671 379.08 327.623 379.176 327.594C379.272 327.564 379.372 327.554 379.472 327.565C379.572 327.575 379.669 327.605 379.757 327.654C379.844 327.702 379.922 327.767 379.984 327.846L385.422 334.654C385.486 334.734 385.533 334.827 385.56 334.926C385.587 335.025 385.593 335.129 385.578 335.231C385.564 335.33 385.529 335.427 385.477 335.513C385.424 335.599 385.354 335.673 385.272 335.732L375.645 342.59C375.518 342.682 375.365 342.731 375.208 342.73ZM371.281 335.947L375.349 340.961L383.75 334.975L379.281 329.38L371.281 335.947Z" fill="black"/>
<path d="M385.573 317.689C380.697 321.615 378.995 325.239 379.311 328.332L384.835 335.17C387.848 336.173 391.79 335.276 396.717 331.31C404.029 325.425 408.714 310.345 408.714 310.345C408.714 310.345 392.885 311.804 385.573 317.689Z" fill="#5479F7"/>
<path d="M387.25 336.308C386.354 336.311 385.464 336.169 384.614 335.887C384.47 335.843 384.343 335.758 384.247 335.642L378.723 328.804C378.638 328.694 378.583 328.565 378.562 328.428C378.181 324.703 380.38 320.908 385.091 317.103C392.493 311.142 407.995 309.658 408.648 309.583C408.772 309.573 408.896 309.593 409.011 309.641C409.125 309.689 409.226 309.764 409.306 309.859C409.383 309.956 409.435 310.07 409.458 310.191C409.481 310.313 409.474 310.438 409.437 310.556C409.246 311.182 404.601 325.921 397.193 331.882C393.563 334.84 390.223 336.308 387.25 336.308ZM385.277 334.519C388.29 335.401 392.081 334.088 396.259 330.729C402.18 325.961 406.409 314.782 407.639 311.228C403.888 311.694 391.966 313.503 386.045 318.246C381.907 321.58 379.833 324.954 380.019 328.012L385.277 334.519Z" fill="black"/>
<path d="M13.4833 395.238H95.8117V390.631H92.6379V371.451H95.8016L96.0075 366.347H13.6892C10.1036 366.347 4.6499 372.087 4.6499 375.977V386.505C4.65492 390.36 9.89774 395.238 13.4833 395.238Z" fill="#5479F7"/>
<path d="M92.9194 390.631H15.2112C14.4462 390.631 13.6887 390.481 12.9819 390.188C12.2752 389.896 11.633 389.468 11.092 388.928C10.5511 388.388 10.122 387.747 9.82928 387.041C9.53652 386.336 9.38585 385.579 9.38585 384.816V377.266C9.38585 376.502 9.53652 375.746 9.82928 375.041C10.122 374.335 10.5511 373.694 11.092 373.154C11.633 372.614 12.2752 372.186 12.9819 371.893C13.6887 371.601 14.4462 371.451 15.2112 371.451H92.9194V390.631Z" fill="white"/>
<path d="M92.9192 391.378H15.211C13.4666 391.377 11.7941 390.684 10.5606 389.453C9.32719 388.222 8.63365 386.552 8.63232 384.811V377.261C8.63498 375.52 9.32894 373.851 10.5621 372.62C11.7953 371.389 13.467 370.696 15.211 370.694H92.9192C93.119 370.694 93.3106 370.773 93.4518 370.914C93.5931 371.055 93.6725 371.246 93.6725 371.446V390.626C93.6725 390.825 93.5931 391.017 93.4518 391.158C93.3106 391.299 93.119 391.378 92.9192 391.378ZM15.211 372.198C13.8662 372.199 12.5768 372.733 11.6259 373.682C10.675 374.631 10.1402 375.918 10.1389 377.261V384.811C10.1402 386.153 10.675 387.44 11.6259 388.39C12.5768 389.339 13.8662 389.873 15.211 389.874H92.1659V372.198H15.211Z" fill="black"/>
<path d="M88.8517 378.173H18.0033C17.8035 378.173 17.6119 378.094 17.4706 377.953C17.3294 377.812 17.25 377.621 17.25 377.421C17.25 377.222 17.3294 377.031 17.4706 376.89C17.6119 376.749 17.8035 376.669 18.0033 376.669H88.8517C89.0514 376.669 89.243 376.749 89.3843 376.89C89.5256 377.031 89.6049 377.222 89.6049 377.421C89.6049 377.621 89.5256 377.812 89.3843 377.953C89.243 378.094 89.0514 378.173 88.8517 378.173Z" fill="#99B9FF"/>
<path d="M67.2273 384.149H18.013C17.8133 384.149 17.6217 384.07 17.4804 383.929C17.3391 383.788 17.2598 383.596 17.2598 383.397C17.2598 383.198 17.3391 383.006 17.4804 382.865C17.6217 382.724 17.8133 382.645 18.013 382.645H67.2273C67.4271 382.645 67.6187 382.724 67.7599 382.865C67.9012 383.006 67.9806 383.198 67.9806 383.397C67.9806 383.596 67.9012 383.788 67.7599 383.929C67.6187 384.07 67.4271 384.149 67.2273 384.149Z" fill="#99B9FF"/>
<path d="M41.2495 328.698L30.8944 331.461L16.9487 280.106L27.2988 277.338L41.2495 328.698Z" fill="white"/>
<path d="M30.3668 332.383L16.0244 279.574L27.8308 276.421L42.1732 329.23L30.3668 332.383ZM17.8775 280.662L31.4365 330.568L40.3352 328.192L26.7762 278.286L17.8775 280.662Z" fill="black"/>
<path d="M21.5388 285.841C21.339 285.866 21.1374 285.811 20.9782 285.688C20.819 285.565 20.7154 285.384 20.6901 285.184C20.6648 284.985 20.7199 284.783 20.8433 284.624C20.9666 284.466 21.1482 284.362 21.348 284.337L25.9229 283.149C26.0205 283.118 26.1234 283.107 26.2253 283.117C26.3273 283.127 26.4261 283.158 26.5157 283.207C26.6054 283.256 26.684 283.324 26.7468 283.404C26.8096 283.485 26.8552 283.578 26.8808 283.677C26.9064 283.776 26.9116 283.879 26.8959 283.98C26.8803 284.081 26.8442 284.178 26.7898 284.265C26.7353 284.351 26.6638 284.426 26.5795 284.484C26.4952 284.542 26.4 284.582 26.2995 284.603L21.7296 285.796C21.6681 285.819 21.604 285.834 21.5388 285.841Z" fill="#99B9FF"/>
<path d="M25.1693 338.815C18.6408 338.73 12.6397 333.135 12.6397 326.242C12.6397 319.349 18.6408 313.749 25.1693 313.664V307.021C15.6277 307.107 5.93555 315.679 5.93555 326.247C5.93555 336.815 15.6277 345.387 25.1693 345.472V338.815Z" fill="white"/>
<path d="M24.5016 346.214H24.4765C15.2413 345.883 4.95654 337.602 4.95654 326.252C4.95654 314.902 15.5024 306.355 24.9385 306.274C25.1385 306.276 25.3306 306.353 25.4759 306.49C25.6175 306.633 25.6969 306.826 25.6968 307.026V313.674C25.6975 313.772 25.6788 313.869 25.6418 313.96C25.6048 314.051 25.5502 314.134 25.4812 314.203C25.4122 314.273 25.3301 314.329 25.2395 314.367C25.149 314.405 25.0518 314.425 24.9536 314.426C18.6763 314.506 13.1673 320.031 13.1673 326.252C13.1673 332.473 18.4503 337.842 24.7175 338.068C24.8165 338.072 24.9137 338.095 25.0037 338.136C25.0937 338.177 25.1747 338.235 25.2421 338.308C25.3095 338.38 25.3619 338.465 25.3964 338.558C25.4309 338.65 25.4468 338.749 25.4432 338.847C25.4396 338.946 25.4165 339.043 25.3753 339.133C25.3341 339.223 25.2756 339.304 25.203 339.371C25.1305 339.438 25.0455 339.491 24.9527 339.525C24.8599 339.56 24.7612 339.575 24.6623 339.572C17.6317 339.316 11.6758 333.215 11.6758 326.252C11.6758 319.364 17.3404 313.438 24.2053 312.957V307.798C15.6682 308.3 6.47817 316.07 6.47817 326.247C6.47817 336.739 16.0197 344.4 24.5568 344.71C24.7566 344.714 24.9469 344.796 25.0858 344.939C25.2247 345.083 25.3009 345.275 25.2976 345.475C25.2942 345.674 25.2117 345.864 25.0681 346.003C24.9245 346.142 24.7315 346.218 24.5317 346.214H24.5016Z" fill="black"/>
<path d="M40.9379 317.063L25.1341 321.284L18.7563 297.802L34.5601 293.581L40.9379 317.063Z" fill="white"/>
<path d="M24.607 322.206L17.8325 297.271L35.0926 292.659L41.8671 317.594L24.607 322.206ZM19.6806 298.334L25.6666 320.392L40.0191 316.556L34.0431 294.499L19.6806 298.334Z" fill="black"/>
<path d="M36.6693 345.552H24.4712V359.228H36.6693V345.552Z" fill="white"/>
<path d="M36.6692 359.98H32.5011C32.3013 359.98 32.1097 359.901 31.9684 359.76C31.8272 359.619 31.7478 359.428 31.7478 359.228C31.7478 359.029 31.8272 358.838 31.9684 358.697C32.1097 358.556 32.3013 358.476 32.5011 358.476H35.9159V346.304H25.2244V358.476H25.7266C25.9264 358.476 26.118 358.556 26.2592 358.697C26.4005 358.838 26.4799 359.029 26.4799 359.228C26.4799 359.428 26.4005 359.619 26.2592 359.76C26.118 359.901 25.9264 359.98 25.7266 359.98H24.451C24.2513 359.98 24.0596 359.901 23.9184 359.76C23.7771 359.619 23.6978 359.428 23.6978 359.228V345.553C23.6978 345.353 23.7771 345.162 23.9184 345.021C24.0596 344.88 24.2513 344.801 24.451 344.801H36.6491C36.8489 344.801 37.0405 344.88 37.1818 345.021C37.3231 345.162 37.4024 345.353 37.4024 345.553V359.228C37.4025 359.424 37.3259 359.613 37.1889 359.753C37.052 359.894 36.8655 359.975 36.6692 359.98Z" fill="black"/>
<path d="M52.1215 338.815H24.4712V345.317H52.1215V338.815Z" fill="white"/>
<path d="M52.1219 346.214H24.4715C24.2718 346.214 24.0802 346.135 23.9389 345.994C23.7976 345.853 23.7183 345.662 23.7183 345.462C23.7183 345.263 23.7976 345.072 23.9389 344.931C24.0802 344.79 24.2718 344.711 24.4715 344.711H51.3686V339.567H25.2248V341.823C25.2248 342.022 25.1455 342.214 25.0042 342.355C24.8629 342.496 24.6713 342.575 24.4715 342.575C24.2718 342.575 24.0802 342.496 23.9389 342.355C23.7976 342.214 23.7183 342.022 23.7183 341.823V338.815C23.7183 338.616 23.7976 338.424 23.9389 338.283C24.0802 338.142 24.2718 338.063 24.4715 338.063H52.1219C52.3217 338.063 52.5133 338.142 52.6545 338.283C52.7958 338.424 52.8752 338.616 52.8752 338.815V345.462C52.8752 345.662 52.7958 345.853 52.6545 345.994C52.5133 346.135 52.3217 346.214 52.1219 346.214Z" fill="black"/>
<path d="M47.2105 359.233H14.8496V365.736H47.2105V359.233Z" fill="white"/>
<path d="M47.2103 366.483H14.8495C14.6497 366.483 14.4581 366.403 14.3168 366.262C14.1756 366.121 14.0962 365.93 14.0962 365.731V359.213C14.0962 359.014 14.1756 358.823 14.3168 358.682C14.4581 358.541 14.6497 358.461 14.8495 358.461H26.9421C27.1419 358.461 27.3335 358.541 27.4748 358.682C27.616 358.823 27.6954 359.014 27.6954 359.213C27.6954 359.413 27.616 359.604 27.4748 359.745C27.3335 359.886 27.1419 359.965 26.9421 359.965H15.6027V364.979H46.457V359.965H31.7279C31.5282 359.965 31.3366 359.886 31.1953 359.745C31.054 359.604 30.9747 359.413 30.9747 359.213C30.9747 359.014 31.054 358.823 31.1953 358.682C31.3366 358.541 31.5282 358.461 31.7279 358.461H47.2103C47.4101 358.461 47.6017 358.541 47.743 358.682C47.8842 358.823 47.9636 359.014 47.9636 359.213V365.731C47.9636 365.93 47.8842 366.121 47.743 366.262C47.6017 366.403 47.4101 366.483 47.2103 366.483Z" fill="black"/>
<path d="M81.4893 359.113L72.6257 346.335V328.037H61.0755V346.335L52.237 359.138C51.8002 359.789 51.5483 360.546 51.5081 361.328C51.468 362.11 51.6411 362.889 52.009 363.581C52.3769 364.272 52.9258 364.852 53.5974 365.257C54.269 365.662 55.038 365.878 55.8226 365.881H77.9188C78.7062 365.878 79.4779 365.661 80.1512 365.254C80.8245 364.846 81.3741 364.264 81.741 363.568C82.1079 362.873 82.2783 362.091 82.234 361.306C82.1896 360.521 81.9322 359.763 81.4893 359.113Z" fill="white"/>
<path d="M77.9041 366.608H55.8079C54.8884 366.601 53.9879 366.345 53.2022 365.868C52.4165 365.391 51.7748 364.711 51.3454 363.899C50.9159 363.087 50.7146 362.174 50.7629 361.258C50.8112 360.341 51.1073 359.454 51.6197 358.692L60.3276 346.079V327.285H73.3844V346.104L82.1174 358.717C82.6308 359.481 82.927 360.369 82.9744 361.288C83.0219 362.206 82.8189 363.12 82.387 363.933C81.9551 364.745 81.3106 365.425 80.522 365.901C79.7334 366.376 78.8304 366.629 77.9091 366.633L77.9041 366.608ZM61.8342 328.764V346.545L52.8651 359.539C52.5062 360.077 52.2996 360.702 52.2675 361.347C52.2354 361.992 52.3788 362.634 52.6825 363.205C52.9863 363.775 53.4391 364.253 53.9929 364.587C54.5467 364.922 55.1808 365.1 55.828 365.104H77.9242C78.5714 365.1 79.2055 364.922 79.7593 364.587C80.3131 364.253 80.7659 363.775 81.0697 363.205C81.3734 362.634 81.5169 361.992 81.4847 361.347C81.4526 360.702 81.2461 360.077 80.8871 359.539L71.8929 346.545V328.789L61.8342 328.764Z" fill="black"/>
<path d="M67.6039 343.953C67.4041 343.953 67.2125 343.874 67.0712 343.733C66.93 343.592 66.8506 343.401 66.8506 343.201V334.238C66.8506 334.038 66.93 333.847 67.0712 333.706C67.2125 333.565 67.4041 333.486 67.6039 333.486C67.8036 333.486 67.9953 333.565 68.1365 333.706C68.2778 333.847 68.3571 334.038 68.3571 334.238V343.201C68.3571 343.401 68.2778 343.592 68.1365 343.733C67.9953 343.874 67.8036 343.953 67.6039 343.953Z" fill="#99B9FF"/>
<path d="M32.6568 46.3467C32.4566 46.3402 32.267 46.2548 32.1297 46.1092C31.9923 45.9636 31.9182 45.7696 31.9236 45.5697L32.0341 42.1758C32.0354 42.0766 32.0565 41.9787 32.0963 41.8878C32.1362 41.797 32.1938 41.715 32.2659 41.6467C32.338 41.5785 32.4231 41.5254 32.5161 41.4905C32.6091 41.4557 32.7082 41.4398 32.8075 41.4438C33.0077 41.4504 33.1972 41.5358 33.3346 41.6814C33.472 41.827 33.5461 42.0209 33.5407 42.2209L33.4302 45.6198C33.4276 45.7183 33.4055 45.8154 33.3651 45.9054C33.3248 45.9953 33.267 46.0765 33.1951 46.144C33.1232 46.2116 33.0387 46.2643 32.9463 46.2991C32.8539 46.3339 32.7555 46.3501 32.6568 46.3467Z" fill="black"/>
<path d="M33.0387 34.4505H33.0136C32.8147 34.4439 32.6264 34.359 32.49 34.2144C32.3536 34.0697 32.28 33.8771 32.2854 33.6784L32.3959 30.2795C32.3965 30.1801 32.4172 30.0819 32.4568 29.9907C32.4963 29.8995 32.554 29.8173 32.6262 29.7489C32.6985 29.6805 32.7838 29.6274 32.8772 29.5928C32.9705 29.5582 33.0698 29.5429 33.1693 29.5476C33.2682 29.5508 33.3656 29.5735 33.4557 29.6143C33.5459 29.6551 33.6271 29.7133 33.6947 29.7854C33.7623 29.8576 33.815 29.9424 33.8498 30.0349C33.8846 30.1274 33.9008 30.2259 33.8974 30.3246L33.792 33.7236C33.7855 33.9186 33.7032 34.1035 33.5627 34.2392C33.4221 34.3748 33.2342 34.4506 33.0387 34.4505Z" fill="black"/>
<path d="M40.4959 39.0275H40.4608L37.0861 38.8721C36.8863 38.8634 36.6981 38.7759 36.563 38.6288C36.4279 38.4817 36.3568 38.287 36.3655 38.0875C36.3741 37.8881 36.4618 37.7003 36.6092 37.5653C36.7565 37.4304 36.9516 37.3595 37.1514 37.3681L40.5261 37.5235C40.625 37.5255 40.7226 37.5469 40.8132 37.5865C40.9038 37.6262 40.9858 37.6832 41.0543 37.7544C41.1229 37.8256 41.1767 37.9097 41.2127 38.0017C41.2487 38.0936 41.2663 38.1918 41.2643 38.2906C41.2623 38.3893 41.2409 38.4867 41.2012 38.5772C41.1615 38.6677 41.1043 38.7494 41.033 38.8179C40.9616 38.8863 40.8775 38.94 40.7853 38.976C40.6932 39.012 40.5949 39.0295 40.4959 39.0275Z" fill="black"/>
<path d="M28.6797 38.5262H28.6445L25.2698 38.3708C25.0714 38.3604 24.8849 38.2726 24.7506 38.1264C24.6163 37.9801 24.5449 37.7871 24.5517 37.5888C24.5549 37.4895 24.578 37.392 24.6196 37.3018C24.6612 37.2116 24.7206 37.1307 24.7941 37.0639C24.8676 36.997 24.9538 36.9456 25.0476 36.9126C25.1414 36.8797 25.2409 36.8658 25.3402 36.8719L28.7148 37.0223C28.9146 37.0269 29.1044 37.1106 29.2423 37.2549C29.3803 37.3992 29.4552 37.5924 29.4505 37.7918C29.4459 37.9912 29.362 38.1807 29.2175 38.3184C29.0729 38.4561 28.8795 38.5309 28.6797 38.5262Z" fill="black"/>
<path d="M60.523 288.067C60.4207 288.066 60.3195 288.044 60.2255 288.004C60.1315 287.964 60.0466 287.905 59.9757 287.831L57.6455 285.355C57.5751 285.283 57.5197 285.199 57.4825 285.106C57.4453 285.013 57.427 284.913 57.4288 284.813C57.4306 284.713 57.4524 284.615 57.4929 284.523C57.5334 284.431 57.5918 284.349 57.6646 284.28C57.7375 284.211 57.8234 284.158 57.9172 284.123C58.0111 284.087 58.1111 284.071 58.2112 284.075C58.3114 284.079 58.4098 284.103 58.5007 284.145C58.5915 284.188 58.673 284.248 58.7403 284.322L61.0855 286.798C61.154 286.87 61.2076 286.954 61.2432 287.046C61.2789 287.139 61.2958 287.237 61.293 287.336C61.2902 287.435 61.2677 287.532 61.2269 287.622C61.1861 287.712 61.1278 287.794 61.0554 287.861C60.9115 287.996 60.7205 288.07 60.523 288.067Z" fill="black"/>
<path d="M68.7443 296.739C68.6416 296.741 68.5397 296.721 68.4453 296.68C68.351 296.639 68.2663 296.579 68.1969 296.504L65.8467 294.027C65.7763 293.956 65.7209 293.871 65.6837 293.778C65.6465 293.685 65.6282 293.586 65.63 293.486C65.6318 293.386 65.6535 293.287 65.694 293.196C65.7345 293.104 65.7929 293.021 65.8658 292.953C65.9387 292.884 66.0245 292.83 66.1184 292.795C66.2123 292.76 66.3122 292.744 66.4124 292.748C66.5126 292.752 66.611 292.776 66.7018 292.818C66.7927 292.86 66.8741 292.92 66.9414 292.994L69.2917 295.471C69.4288 295.616 69.5027 295.809 69.497 296.009C69.4914 296.208 69.4067 296.397 69.2615 296.534C69.1226 296.667 68.937 296.741 68.7443 296.739Z" fill="black"/>
<path d="M57.8417 296.243C57.7367 296.244 57.6327 296.222 57.5366 296.18C57.4405 296.137 57.3545 296.075 57.2843 295.997C57.2176 295.924 57.166 295.839 57.1325 295.746C57.0989 295.653 57.0841 295.554 57.0887 295.456C57.0934 295.357 57.1175 295.26 57.1597 295.171C57.2018 295.081 57.2612 295.001 57.3345 294.935L59.8454 292.679C59.9166 292.602 60.0029 292.541 60.0989 292.5C60.1949 292.458 60.2985 292.437 60.4031 292.438C60.5077 292.439 60.611 292.462 60.7064 292.504C60.8018 292.547 60.8872 292.609 60.9572 292.687C61.0272 292.764 61.0802 292.856 61.113 292.955C61.1457 293.054 61.1574 293.159 61.1473 293.263C61.1372 293.367 61.1055 293.467 61.0543 293.558C61.0031 293.65 60.9334 293.729 60.8498 293.792L58.3389 296.048C58.2024 296.171 58.0257 296.24 57.8417 296.243Z" fill="black"/>
<path d="M66.5799 288.342C66.4282 288.342 66.2803 288.295 66.1556 288.209C66.0309 288.123 65.9352 288.001 65.8809 287.86C65.8266 287.718 65.8164 287.564 65.8515 287.416C65.8866 287.269 65.9655 287.136 66.0777 287.034L68.5886 284.778C68.6598 284.702 68.7461 284.641 68.8421 284.599C68.9381 284.558 69.0417 284.537 69.1463 284.538C69.2509 284.538 69.3542 284.561 69.4496 284.604C69.545 284.647 69.6304 284.709 69.7004 284.786C69.7704 284.864 69.8234 284.955 69.8562 285.054C69.8889 285.153 69.9006 285.258 69.8905 285.362C69.8804 285.466 69.8487 285.567 69.7975 285.658C69.7463 285.749 69.6766 285.828 69.593 285.891L67.0821 288.147C66.9443 288.271 66.7656 288.341 66.5799 288.342Z" fill="black"/>
<path d="M363.03 138.404H362.779C362.167 138.377 361.567 138.231 361.012 137.973C360.457 137.715 359.959 137.35 359.545 136.9C359.133 136.447 358.816 135.916 358.611 135.34C358.407 134.763 358.32 134.151 358.355 133.541C358.41 132.622 358.736 131.739 359.292 131.004C359.848 130.269 360.609 129.714 361.479 129.409C362.349 129.104 363.291 129.062 364.185 129.289C365.079 129.515 365.886 130.001 366.505 130.683C366.918 131.136 367.236 131.666 367.442 132.242C367.647 132.819 367.735 133.431 367.7 134.042C367.622 135.225 367.096 136.335 366.229 137.145C365.362 137.955 364.218 138.405 363.03 138.404ZM362.859 136.9C363.696 136.945 364.516 136.657 365.141 136.1C365.766 135.543 366.144 134.762 366.194 133.927C366.217 133.515 366.157 133.102 366.019 132.713C365.882 132.324 365.668 131.967 365.39 131.661C364.969 131.202 364.422 130.877 363.818 130.725C363.213 130.574 362.577 130.603 361.989 130.809C361.401 131.015 360.886 131.389 360.509 131.884C360.131 132.38 359.908 132.975 359.866 133.596C359.843 134.008 359.903 134.42 360.042 134.808C360.181 135.196 360.396 135.553 360.675 135.857C360.954 136.166 361.291 136.418 361.668 136.597C362.044 136.776 362.453 136.879 362.869 136.9H362.859Z" fill="black"/>
<path d="M81.8363 262.996H81.5801C80.3411 262.962 79.1651 262.443 78.3066 261.55C77.4481 260.658 76.9763 259.463 76.9931 258.226C77.0099 256.989 77.5141 255.808 78.3965 254.939C79.279 254.07 80.4687 253.583 81.7082 253.583C82.9477 253.583 84.1374 254.07 85.0199 254.939C85.9023 255.808 86.4065 256.989 86.4233 258.226C86.4401 259.463 85.9683 260.658 85.1098 261.55C84.2514 262.443 83.0753 262.962 81.8363 262.996ZM81.8363 255.21C81.0279 255.209 80.2495 255.516 79.6604 256.068C79.0714 256.621 78.7161 257.378 78.6675 258.183C78.6472 258.598 78.7092 259.012 78.8498 259.403C78.9904 259.794 79.2068 260.153 79.4868 260.46C79.7667 260.767 80.1046 261.015 80.4811 261.192C80.8576 261.368 81.2652 261.468 81.6806 261.487C82.5172 261.533 83.3382 261.247 83.9641 260.691C84.5899 260.135 84.9696 259.354 85.0201 258.519C85.0432 258.107 84.9836 257.694 84.8447 257.305C84.7059 256.916 84.4906 256.558 84.2116 256.253C83.933 255.945 83.5962 255.694 83.2205 255.516C82.8448 255.338 82.4375 255.236 82.0221 255.215L81.8363 255.21Z" fill="black"/>
<path d="M372.396 392.727C374.229 392.727 375.715 391.252 375.715 389.433C375.715 387.614 374.229 386.139 372.396 386.139C370.562 386.139 369.076 387.614 369.076 389.433C369.076 391.252 370.562 392.727 372.396 392.727Z" fill="#99B9FF"/>
</svg>
