<svg width="47" height="38" viewBox="0 0 47 38" fill="none" xmlns="http://www.w3.org/2000/svg">
<path d="M37.2968 38C33.3548 38 30.3731 36.3915 28.3516 33.1746C26.6333 30.4603 25.7742 27.1429 25.7742 23.2222C25.7742 18.1958 27.0376 13.672 29.5645 9.65079C32.1925 5.62963 36.1344 2.4127 41.3903 0L42.7548 2.71428C39.6215 4.02116 36.8925 6.08201 34.5677 8.89683C32.3441 11.7116 31.2323 14.5767 31.2323 17.4921C31.2323 18.6984 31.3839 19.754 31.6871 20.6587C33.3043 19.3518 35.1742 18.6984 37.2968 18.6984C40.0258 18.6984 42.3 19.6032 44.1194 21.4127C46.0398 23.1217 47 25.4339 47 28.3492C47 31.0635 46.0398 33.3757 44.1194 35.2857C42.3 37.0952 40.0258 38 37.2968 38ZM11.5226 38C7.58065 38 4.59892 36.3915 2.57742 33.1746C0.859139 30.4603 0 27.1429 0 23.2222C0 18.1958 1.26344 13.672 3.79032 9.65079C6.41828 5.62963 10.3602 2.4127 15.6161 0L16.9806 2.71428C13.8473 4.02116 11.1183 6.08201 8.79355 8.89683C6.56989 11.7116 5.45806 14.5767 5.45806 17.4921C5.45806 18.6984 5.60968 19.754 5.9129 20.6587C7.53011 19.3518 9.4 18.6984 11.5226 18.6984C14.2516 18.6984 16.5258 19.6032 18.3452 21.4127C20.2656 23.1217 21.2258 25.4339 21.2258 28.3492C21.2258 31.0635 20.2656 33.3757 18.3452 35.2857C16.5258 37.0952 14.2516 38 11.5226 38Z" fill="#3E02AD" fill-opacity="0.8"/>
</svg>
